<svg xmlns="http://www.w3.org/2000/svg" width="43.845" height="25.78" viewBox="0 0 43.845 25.78"><defs><style>.a{fill:#522bc5;}</style></defs><g transform="translate(31.77 18.412)"><path class="a" d="M22.191,65.4a2.175,2.175,0,1,0-2.143-2.174A2.161,2.161,0,0,0,22.191,65.4Zm0-2.83a.655.655,0,1,1-.646.656A.651.651,0,0,1,22.191,62.57Z" transform="translate(-20.048 -61.05)"/></g><g transform="translate(28.405 15.395)"><path class="a" d="M19.122,65.4A5.193,5.193,0,1,0,14.01,60.2,5.161,5.161,0,0,0,19.122,65.4Zm0-8.865A3.673,3.673,0,1,1,15.506,60.2,3.65,3.65,0,0,1,19.122,56.532Z" transform="translate(-14.01 -55.012)"/></g><g transform="translate(9.989 18.412)"><path class="a" d="M68.692,65.4a2.175,2.175,0,1,0-2.144-2.174A2.16,2.16,0,0,0,68.692,65.4Zm0-2.83a.655.655,0,1,1-.648.656A.652.652,0,0,1,68.692,62.57Z" transform="translate(-66.548 -61.05)"/></g><g transform="translate(0.758 0)"><path class="a" d="M5.129,43.267a.737.737,0,0,0,.715-.759V37.361a2.941,2.941,0,0,1,.786-1.913A4.925,4.925,0,0,1,10.372,34.2H15.8a.706.706,0,0,0,.607-.359l3.618-6.2a4.5,4.5,0,0,1,3.818-1.922H35.1c.167,0,4.264.179,5.665,8.153a.727.727,0,0,0,.7.62h1.811c.228,0,2.3.141,2.3,3.437v4.576a.716.716,0,1,0,1.43,0V37.93c0-4.9-3.692-4.956-3.73-4.956H42.058C40.308,24.3,35.321,24.2,35.1,24.2H23.846a5.9,5.9,0,0,0-5.031,2.638L15.4,32.681H10.373a6.187,6.187,0,0,0-4.788,1.73,4.56,4.56,0,0,0-1.169,2.972v5.124A.736.736,0,0,0,5.129,43.267Z" transform="translate(-4.415 -24.201)"/></g><g transform="translate(0.757 11.832)"><path class="a" d="M86.023,52.606h1.734a2.363,2.363,0,0,0,0-4.726H86.084a.749.749,0,0,0-.733.613,3.614,3.614,0,0,0-.076.732v2.622A.753.753,0,0,0,86.023,52.606ZM87.757,49.4a.844.844,0,0,1,0,1.687h-.985V49.4Z" transform="translate(-85.275 -47.88)"/></g><g transform="translate(9.931 8.482)"><path class="a" d="M42.306,42.988a.76.76,0,0,0,.008-1.519L15.44,41.176h-.007a.76.76,0,0,0-.007,1.519l26.873.292Z" transform="translate(-14.685 -41.176)"/></g><g transform="translate(25.865 0.001)"><path class="a" d="M39.244,34.346a.754.754,0,0,0,.748-.76V24.963a.749.749,0,1,0-1.5,0v8.623A.754.754,0,0,0,39.244,34.346Z" transform="translate(-38.496 -24.203)"/></g><g transform="translate(36.449 17.46)"><path class="a" d="M4.848,63.085H8.875a1.971,1.971,0,0,0,0-3.941H4.166a.75.75,0,0,0-.656.393.77.77,0,0,0,.025.773,3.7,3.7,0,0,1,.57,1.96A.8.8,0,0,0,4.848,63.085Zm4.027-2.421a.451.451,0,0,1,0,.9H5.538a5.251,5.251,0,0,0-.2-.9H8.875Z" transform="translate(-3.418 -59.144)"/></g><g transform="translate(7.101 15.395)"><path class="a" d="M65.624,65.4A5.193,5.193,0,1,0,60.511,60.2,5.16,5.16,0,0,0,65.624,65.4Zm0-8.865A3.673,3.673,0,1,1,62.007,60.2,3.649,3.649,0,0,1,65.624,56.532Z" transform="translate(-60.511 -55.012)"/></g><g transform="translate(0 17.459)"><g transform="translate(15.567 0)"><path class="a" d="M31.787,63.085H45.951a.746.746,0,0,0,.551-.245.765.765,0,0,0,.194-.577,3.674,3.674,0,0,1,.567-1.953.774.774,0,0,0,.024-.773.752.752,0,0,0-.656-.393H31.107a.749.749,0,0,0-.656.393.77.77,0,0,0,.025.773,3.7,3.7,0,0,1,.57,1.96.757.757,0,0,0,.193.573A.732.732,0,0,0,31.787,63.085Zm13.458-1.519H32.48a5.445,5.445,0,0,0-.2-.9H45.454A5.24,5.24,0,0,0,45.246,61.565Z" transform="translate(-30.359 -59.144)"/></g><g transform="translate(0)"><path class="a" d="M78.8,63.084h6.338a.753.753,0,0,0,.748-.759,3.694,3.694,0,0,1,.564-2.015.771.771,0,0,0,.025-.773.749.749,0,0,0-.656-.393H78.8a1.971,1.971,0,0,0,0,3.941Zm5.632-1.519H78.8a.451.451,0,0,1,0-.9h5.841A5.073,5.073,0,0,0,84.43,61.565Z" transform="translate(-76.858 -59.143)"/></g></g></svg>