<svg xmlns="http://www.w3.org/2000/svg" width="32.967" height="33.06" viewBox="0 0 32.967 33.06"><defs><style>.a{fill:#522bc5;}</style></defs><path class="a" d="M32.04,14.72l.72.489a.547.547,0,0,0,.76-.146l1.229-1.812a.547.547,0,0,0-.146-.76L18.667,1.678a.547.547,0,0,0-.615,0L2.116,12.492a.547.547,0,0,0-.146.76L3.2,15.063a.547.547,0,0,0,.76.146l.72-.489v5.475a1.36,1.36,0,0,0-.72.739c-.92,2.274-2.016,5.263-2.016,6.6A3.6,3.6,0,0,0,4.68,31.307v2.242H1.944v1.094H34.776V33.549H32.04ZM3.8,14l-.615-.907L18.36,2.791l15.176,10.3L32.921,14,18.667,4.323a.547.547,0,0,0-.615,0ZM3.038,27.53a24.409,24.409,0,0,1,1.935-6.185.273.273,0,0,1,.507,0A24.409,24.409,0,0,1,7.416,27.53c0,1.585-.921,2.736-2.189,2.736S3.038,29.115,3.038,27.53Zm2.736,3.777A3.6,3.6,0,0,0,8.51,27.53c0-1.333-1.1-4.322-2.016-6.6a1.36,1.36,0,0,0-.72-.739V13.977L18.36,5.437l12.585,8.54V24.628l-.092-.138a.568.568,0,0,0-.911,0l-1.094,1.642a.547.547,0,0,0-.092.3V27.53H27.662V26.435a.55.55,0,0,0-.092-.3L26.476,24.49a.568.568,0,0,0-.911,0l-1.094,1.642a.55.55,0,0,0-.092.3V27.53H23.285V26.435a.55.55,0,0,0-.092-.3L22.1,24.49a.568.568,0,0,0-.911,0l-1.094,1.642a.55.55,0,0,0-.092.3v7.114H16.718v-10.4a.547.547,0,0,0-.547-.547H10.152a.547.547,0,0,0-.547.547v10.4H5.774ZM22.19,33.549H21.1V26.6l.547-.821.547.821Zm1.094-4.925h1.094v1.094H23.285Zm0,2.189h1.094v2.736H23.285Zm3.283,2.736H25.473V26.6l.547-.821.547.821Zm1.094-4.925h1.094v1.094H27.662Zm0,2.189h1.094v2.736H27.662ZM15.624,33.549H10.7V23.7h4.925Zm14.227,0V26.6l.547-.821.547.821v6.948Z" transform="translate(-1.876 -1.584)"/><path class="a" d="M27.189,26.661h3.283a2.191,2.191,0,0,0,2.189-2.189V21.189A2.191,2.191,0,0,0,30.472,19H27.189A2.191,2.191,0,0,0,25,21.189v3.283A2.191,2.191,0,0,0,27.189,26.661Zm-1.094-2.189V23.378h2.189v2.189H27.189A1.1,1.1,0,0,1,26.094,24.472Zm4.378,1.094H29.378V23.378h2.189v1.094A1.1,1.1,0,0,1,30.472,25.566Zm1.094-4.378v1.094H29.378V20.094h1.094A1.1,1.1,0,0,1,31.566,21.189Zm-4.378-1.094h1.094v2.189H26.094V21.189A1.1,1.1,0,0,1,27.189,20.094Z" transform="translate(-12.347 -9.47)"/><path class="a" d="M23,50h1.094v1.094H23Z" transform="translate(-11.441 -23.507)"/></svg>