<svg xmlns="http://www.w3.org/2000/svg" width="215.033" height="148.341" viewBox="0 0 215.033 148.341">
  <g id="Group_992" data-name="Group 992" transform="translate(-113.115 -245.103)">
    <g id="Group_990" data-name="Group 990">
      <g id="Group_526" data-name="Group 526" transform="translate(-276.755 41.938)">
        <g id="Group_313" data-name="Group 313" transform="translate(405.127 251.432)">
          <g id="Group_310" data-name="Group 310" transform="translate(12.546 16.221)">
            <path id="Path_454" data-name="Path 454" d="M393.957,289.2c-1.056,8.723,6.764,11.832,3.876,18.033s-1.014,12.671,4.9,13.874,10.338,1.757,10.1,9.068,6.286,13.851,11.544,10.28c1.309-.888,2.725-1.852,4.112-2.8l1.128-.77c.086-.058.173-.116.258-.175a13.256,13.256,0,0,0,4.3-17.176,8.206,8.206,0,0,0-6.291-4.676c-9.441-1.173-2.768-8.284-6.208-14.012-3.963-6.6-10.908-4.093-13.326-9.3C404.988,284.3,395.014,280.472,393.957,289.2Z" transform="translate(-393.859 -284.166)" fill="#5c17b2"/>
            <g id="Group_309" data-name="Group 309" transform="translate(8.53 11.657)">
              <g id="Group_308" data-name="Group 308">
                <path id="Path_455" data-name="Path 455" d="M403.932,298.835l26,40.779,1.128-.77L405.084,298.1a.683.683,0,0,0-1.152.733Z" transform="translate(-403.825 -297.786)" fill="#3b1189"/>
              </g>
            </g>
          </g>
          <g id="Group_312" data-name="Group 312" transform="translate(0 41.212)">
            <path id="Path_456" data-name="Path 456" d="M379.6,320.916c2.683,9.02,11.693,8.739,11.5,16.063s4.409,12.881,10.734,11.54,10.906-2.685,13.792,4.6,12.086,10.926,15.727,5.175c.908-1.431,1.887-2.982,2.846-4.5.261-.416.523-.83.78-1.238l.179-.282a14.2,14.2,0,0,0-3.1-18.709,8.788,8.788,0,0,0-8.176-1.909c-9.776,2.874-6.253-6.958-12.077-11.118-6.708-4.793-12.462.632-17.059-3.452C388.35,311.4,376.917,311.895,379.6,320.916Z" transform="translate(-379.2 -313.366)" fill="#7742ca"/>
            <g id="Group_311" data-name="Group 311" transform="translate(11.743 10.113)">
              <path id="Path_457" data-name="Path 457" d="M393.242,326.518l42.936,28.974c.261-.416.523-.83.78-1.238l-42.9-28.948a.731.731,0,1,0-.818,1.212Z" transform="translate(-392.92 -325.181)" fill="#5c17b2"/>
            </g>
          </g>
          <path id="Path_458" data-name="Path 458" d="M427.5,277.534c1.374-7.579,4.071-14.5,7.213-11.675S433,280.512,425.655,287.1l-1.962,2.838c5.266-4.893,13.773-7.849,16.108-5.124,2.32,2.708-3.522,4.161-9.079,4.6a19.913,19.913,0,0,0-8.228,2.259l-9.263,13.4c8.361-7.724,21.794-12.377,25.489-8.065,3.681,4.3-5.588,6.6-14.406,7.3a31.675,31.675,0,0,0-13.014,3.559l-1.847,2.672q-.77-.371-1.536-.751l11.021-15.944a21.907,21.907,0,0,0-.946-6.8c-1.554-5.353-2.258-11.332,1.1-10.118,2.91,1.053,3.489,7.894,1.851,14.024l3.811-5.514A31.813,31.813,0,0,0,427.5,277.534Z" transform="translate(-383.339 -265.214)" fill="#5c17b2"/>
        </g>
        <ellipse id="Ellipse_80" data-name="Ellipse 80" cx="107.517" cy="7.515" rx="107.517" ry="7.515" transform="translate(389.869 336.477)" fill="#d8d2f2" opacity="0.6"/>
      </g>
    </g>
    <g id="Group_534" data-name="Group 534" transform="translate(-155.795 12.489)">
      <g id="Group_997" data-name="Group 997">
        <rect id="Rectangle_249" data-name="Rectangle 249" width="18.695" height="48.039" transform="translate(332.795 321.811)" fill="#ffce4f"/>
        <rect id="Rectangle_250" data-name="Rectangle 250" width="18.695" height="48.039" transform="translate(351.49 321.811)" fill="#ffac00"/>
      </g>
      <g id="Group_535" data-name="Group 535" transform="translate(336.585 232.614)">
        <g id="Group_477" data-name="Group 477" transform="translate(21.854 33.601)">
          <path id="Path_621" data-name="Path 621" d="M478.588,251.914c1.448,5.35,8.745,19.288,11.578,21.286,3.689,2.6,15.252,7.48,21.267,9.969,1.085.449-2.94,5.2-2.94,5.2s-15.555-3.956-21.892-8c-1.792-1.144-5.676-5.031-10.593-12.821-1.491-2.362-4.943-7.056-5.325-10.408C470.241,253.278,474.588,250.624,478.588,251.914Z" transform="translate(-470.652 -251.585)" fill="#4d0b9e"/>
        </g>
        <g id="Group_504" data-name="Group 504" transform="translate(0.675)">
          <g id="Group_480" data-name="Group 480" transform="translate(30.564 75.637)">
            <g id="Group_479" data-name="Group 479" transform="translate(14.706 51.118)">
              <path id="Path_622" data-name="Path 622" d="M500.2,360.426l-.2,5.821s1.439,1.066,4.415.536l1.215-6.26Z" transform="translate(-498.973 -360.426)" fill="#fda893"/>
              <g id="Group_478" data-name="Group 478" transform="translate(0 4.085)">
                <path id="Path_623" data-name="Path 623" d="M503.789,366.579s1.031-1.428,1.868-1.38,7.351,5.078,9.563,5.469,2.1,3.143,1.234,3.456c-.99.357-17.352.05-17.352.05s-.621-5.821-.082-7.395S502.069,366.974,503.789,366.579Z" transform="translate(-498.8 -365.199)" fill="#5c17b2"/>
              </g>
            </g>
            <path id="Path_624" data-name="Path 624" d="M482.334,302.207s22.526-3.717,29.292.52c5.129,3.212-7.984,50.288-7.984,50.288-2.353.733-5.6.389-7.026-.514,0,0-2.054-6.284-.146-22.482a70.819,70.819,0,0,1,2.293-15.76l-17.147-7.57Z" transform="translate(-481.617 -300.699)" fill="#1d1a45"/>
            <path id="Path_625" data-name="Path 625" d="M507.116,358a20.1,20.1,0,0,1-.632,3.807s-6.446,1.139-8.572-1.4l.28-2.847S503.544,358.711,507.116,358Z" transform="translate(-483.966 -308.894)" fill="#2e3062"/>
          </g>
          <g id="Group_484" data-name="Group 484" transform="translate(0 26.514)">
            <path id="Path_626" data-name="Path 626" d="M457.129,243.943s-6.242,2.038-9.579,4.968-.547,11.674-.628,16.639.738,33.791,7.851,37.413c5.371,2.735,27.984-1.417,26.33-8.786a241.106,241.106,0,0,1-4.633-26.1c-.956-8.039-.553-13.977-1.448-17.315s-11.346-7.163-11.346-7.163Z" transform="translate(-445.906 -243.347)" fill="#a374ee"/>
            <g id="Group_481" data-name="Group 481" transform="translate(12.83 29.143)">
              <path id="Path_627" data-name="Path 627" d="M461.126,293.66a.23.23,0,0,1-.027-.458c8.409-.967,11.892-15.523,11.927-15.67a.23.23,0,0,1,.448.1c-.143.613-3.594,15.018-12.321,16.023Z" transform="translate(-460.896 -277.355)" fill="#5c17b2"/>
            </g>
            <g id="Group_482" data-name="Group 482" transform="translate(16.178 33.561)">
              <path id="Path_628" data-name="Path 628" d="M465.038,290a.229.229,0,0,1-.121-.425,10.855,10.855,0,0,0,5.144-6.863.23.23,0,0,1,.454.068,11.111,11.111,0,0,1-5.357,7.185A.231.231,0,0,1,465.038,290Z" transform="translate(-464.809 -282.517)" fill="#5c17b2"/>
            </g>
            <g id="Group_483" data-name="Group 483" transform="translate(12.678 4.296)">
              <path id="Path_629" data-name="Path 629" d="M472.17,281.715l-3.046,8.343-5.5-7.931-.444-25.38-.01-1.227,1.455-.259.263,1.644Z" transform="translate(-461.073 -249.323)" fill="#fff"/>
              <path id="Path_630" data-name="Path 630" d="M464.893,256.9l-.672.9-1.037-1.059-.01-1.227,1.455-.259Z" transform="translate(-461.073 -249.323)" fill="#ededed"/>
              <path id="Path_631" data-name="Path 631" d="M460.718,252.9l2.909,2.878,2.05-2.943-2.508-4.508Z" transform="translate(-460.718 -248.324)" fill="#fff"/>
            </g>
            <path id="Path_632" data-name="Path 632" d="M458.687,243.3l-.962.833a8.665,8.665,0,0,0-.679.573,1.832,1.832,0,0,0-.656,2.067,2.506,2.506,0,0,0,.116.407h0l1.962,7.971,4.236-7.817A5.3,5.3,0,0,1,458.687,243.3Z" transform="translate(-447.406 -243.304)" fill="#5c17b2"/>
            <path id="Path_633" data-name="Path 633" d="M466.626,243.3s2.785,2.7,2.236,5.177l-1.94,5.168-3.339-6.048A5.352,5.352,0,0,0,466.626,243.3Z" transform="translate(-448.454 -243.304)" fill="#5c17b2"/>
          </g>
          <g id="Group_487" data-name="Group 487" transform="translate(3.748 76.725)">
            <g id="Group_486" data-name="Group 486" transform="translate(28.613 50.03)">
              <path id="Path_634" data-name="Path 634" d="M485.409,360.426l-.484,6.5a13.159,13.159,0,0,0,4.7-.148l1.215-6.26Z" transform="translate(-483.891 -360.426)" fill="#fda893"/>
              <g id="Group_485" data-name="Group 485" transform="translate(0 4.085)">
                <path id="Path_635" data-name="Path 635" d="M488.706,366.579s1.031-1.428,1.868-1.38,7.35,5.078,9.563,5.469,2.1,3.143,1.234,3.456c-.99.357-17.352.05-17.352.05s-.621-5.821-.082-7.395S486.986,366.974,488.706,366.579Z" transform="translate(-483.717 -365.199)" fill="#7742ca"/>
              </g>
            </g>
            <path id="Path_636" data-name="Path 636" d="M450.637,302.932s39.068-2.149,45.773-.021c5.769,1.831-10,50.656-10,50.656a7.977,7.977,0,0,1-6.9-1.565s-1.2-2.915.71-19.113a99.272,99.272,0,0,1,2.815-17.56l-25.916.131c-5.551,0-7.307-4.682-6.725-10.2Z" transform="translate(-450.285 -301.971)" fill="#2e3062"/>
            <path id="Path_637" data-name="Path 637" d="M492.343,359.677a13.346,13.346,0,0,1-.787,2.991s-4.743.826-8.242-1.747L483.6,358A33.416,33.416,0,0,0,492.343,359.677Z" transform="translate(-455.045 -310.047)" fill="#524e86"/>
          </g>
          <g id="Group_503" data-name="Group 503" transform="translate(5.636)">
            <circle id="Ellipse_81" data-name="Ellipse 81" cx="9.055" cy="9.055" r="9.055" transform="matrix(0.863, -0.506, 0.506, 0.863, 0, 9.155)" fill="#2e3062"/>
            <path id="Path_638" data-name="Path 638" d="M457.642,226.112s-2.173-3.021-1.037-6.157a4.072,4.072,0,0,1,2.326-2.148s.573-3.967,4.327-4.009,9.8,3.287,12.934,2.062c0,0,.852,5.5-2.738,6.251S457.642,226.112,457.642,226.112Z" transform="translate(-453.037 -212.537)" fill="#2e3062"/>
            <g id="Group_491" data-name="Group 491" transform="translate(17.247 16.214)">
              <path id="Path_639" data-name="Path 639" d="M474.41,231.839s1.879-1.477,2.5.326-2.041,5.926-4.269,4.151Z" transform="translate(-472.643 -231.269)" fill="#fd896b"/>
              <g id="Group_488" data-name="Group 488" transform="translate(0.759 1.789)">
                <path id="Path_640" data-name="Path 640" d="M473.694,235.37a.221.221,0,0,0,.247-.1,3.414,3.414,0,0,1,2.373-1.469.221.221,0,0,0-.045-.439,3.8,3.8,0,0,0-2.709,1.684.221.221,0,0,0,.078.3A.225.225,0,0,0,473.694,235.37Z" transform="translate(-473.53 -233.36)" fill="#d65c48"/>
              </g>
              <g id="Group_490" data-name="Group 490" transform="translate(1.847 2.298)">
                <g id="Group_489" data-name="Group 489">
                  <path id="Path_641" data-name="Path 641" d="M475.522,235.143a.219.219,0,0,0,.124,0,.222.222,0,0,0,.143-.278,2.013,2.013,0,0,0-.628-.858.221.221,0,0,0-.278.342,1.6,1.6,0,0,1,.486.651A.22.22,0,0,0,475.522,235.143Z" transform="translate(-474.801 -233.954)" fill="#d65c48"/>
                </g>
              </g>
            </g>
            <path id="Path_642" data-name="Path 642" d="M460.125,238.665l-1.2,4.487s.566,3.05,3.2,3.627c1.8.394,3.32-1.73,3.32-1.73l1.153-4.315Z" transform="translate(-453.419 -216.121)" fill="#fda893"/>
            <path id="Path_643" data-name="Path 643" d="M460.237,238.665l-.532,1.992c.854,1.672,2.921,2.585,6.238,2.966l.772-2.889Z" transform="translate(-453.531 -216.121)" fill="#fd896b"/>
            <path id="Path_644" data-name="Path 644" d="M458.234,223.068a45.278,45.278,0,0,0-.933,5.824c-.033.457-.049.892-.042,1.286.061,3.559.907,9.86,8.151,9.266,3.2-.261,5.422-3.153,6.91-6.3a33.111,33.111,0,0,0,2.082-6.022,4.851,4.851,0,0,0-1.312-4.622c-3.311-3.256-7.651-3.532-10.641-3.214A4.833,4.833,0,0,0,458.234,223.068Z" transform="translate(-453.178 -213.314)" fill="#fda893"/>
            <path id="Path_645" data-name="Path 645" d="M470.633,231.458c-.128.479.015.934.319,1.015s.656-.241.783-.72-.015-.934-.319-1.015S470.761,230.979,470.633,231.458Z" transform="translate(-455.099 -214.977)" fill="#2e3062"/>
            <path id="Path_646" data-name="Path 646" d="M463.088,229.442c-.128.478.015.933.32,1.014s.655-.241.783-.72-.015-.933-.32-1.014S463.217,228.962,463.088,229.442Z" transform="translate(-454.012 -214.686)" fill="#2e3062"/>
            <path id="Path_647" data-name="Path 647" d="M473.523,228.989a6.4,6.4,0,0,0-4.025-1.23l-.071.86a7.709,7.709,0,0,1,3.715,1.284C473.361,229.556,473.568,229.417,473.523,228.989Z" transform="translate(-454.932 -214.544)" fill="#2e3062"/>
            <path id="Path_648" data-name="Path 648" d="M461.912,225.916a6.394,6.394,0,0,1,4.1.942l-.367.781a7.716,7.716,0,0,0-3.861-.741C461.77,226.489,461.659,226.265,461.912,225.916Z" transform="translate(-453.825 -214.279)" fill="#2e3062"/>
            <g id="Group_494" data-name="Group 494" transform="translate(10.751 15.015)">
              <g id="Group_493" data-name="Group 493">
                <g id="Group_492" data-name="Group 492">
                  <path id="Path_649" data-name="Path 649" d="M465.869,233.931a2.344,2.344,0,0,1-.728-.369.221.221,0,0,1,.266-.352c.172.13.6.376.834.31a.242.242,0,0,0,.158-.171,33.667,33.667,0,0,0,.744-3.3.22.22,0,0,1,.434.078,32.406,32.406,0,0,1-.766,3.378.671.671,0,0,1-.448.437A.929.929,0,0,1,465.869,233.931Z" transform="translate(-465.053 -229.869)" fill="#fd896b"/>
                </g>
              </g>
            </g>
            <path id="Path_650" data-name="Path 650" d="M467.82,236.733a2.842,2.842,0,0,1-3.37,1.767,2.736,2.736,0,0,1-2.028-3.21Z" transform="translate(-453.92 -215.635)" fill="#fff"/>
            <g id="Group_495" data-name="Group 495" transform="translate(9.236 23.042)">
              <path id="Path_651" data-name="Path 651" d="M464.306,240.19a2.3,2.3,0,0,1-.961-.569.221.221,0,0,1,.318-.306,1.866,1.866,0,0,0,.757.448,1.786,1.786,0,0,0,.837-.021.221.221,0,0,1,.128.423A2.206,2.206,0,0,1,464.306,240.19Z" transform="translate(-463.283 -239.248)" fill="#fd896b"/>
            </g>
            <path id="Path_652" data-name="Path 652" d="M472.06,231.578a9.243,9.243,0,0,0,.9-2.54c.068-1.085-.623-1.918-.074-2.835a2.165,2.165,0,0,0-.94-2.651c-.723-.386-2.632-.484-4.183-1.8-1.481-1.259-4.582-1.47-5.354-.511-.934,1.163-.175,1.5-2.143,2.5-.783.4-.428,2.075-.578,3.062a6.692,6.692,0,0,1-.264,1.141l-.071.24-1.9-.508c.188-1.544.507-3.217.809-4.607a4.832,4.832,0,0,1,4.216-3.78c2.99-.318,7.329-.044,10.642,3.215a4.845,4.845,0,0,1,1.31,4.621,35.147,35.147,0,0,1-1.5,4.688Z" transform="translate(-453.206 -213.314)" fill="#2e3062"/>
            <g id="Group_502" data-name="Group 502" transform="translate(1.908 11.725)">
              <path id="Path_653" data-name="Path 653" d="M457.681,229.705a8.2,8.2,0,0,0,.28-1.513,1.846,1.846,0,0,0-.581-1.821,1.209,1.209,0,0,0-1.662-.024c-1.439,1.252-1.562,6.313,1.256,5.886Z" transform="translate(-454.721 -226.025)" fill="#fda893"/>
              <g id="Group_498" data-name="Group 498" transform="translate(1.139 1.414)">
                <g id="Group_497" data-name="Group 497">
                  <g id="Group_496" data-name="Group 496">
                    <path id="Path_654" data-name="Path 654" d="M457.047,230.956a.22.22,0,0,1-.119-.239,3.409,3.409,0,0,0-.817-2.669.221.221,0,0,1,.323-.3,3.8,3.8,0,0,1,.929,3.051.221.221,0,0,1-.258.176A.214.214,0,0,1,457.047,230.956Z" transform="translate(-456.052 -227.677)" fill="#fd896b"/>
                  </g>
                </g>
              </g>
              <g id="Group_501" data-name="Group 501" transform="translate(0.981 2.754)">
                <g id="Group_500" data-name="Group 500">
                  <g id="Group_499" data-name="Group 499">
                    <path id="Path_655" data-name="Path 655" d="M455.99,229.863a.216.216,0,0,1-.092-.084.22.22,0,0,1,.075-.3,2.013,2.013,0,0,1,1.038-.232.221.221,0,1,1-.016.441,1.585,1.585,0,0,0-.8.17A.22.22,0,0,1,455.99,229.863Z" transform="translate(-455.867 -229.242)" fill="#fd896b"/>
                  </g>
                </g>
              </g>
            </g>
          </g>
        </g>
        <g id="Group_506" data-name="Group 506" transform="translate(0 31.054)">
          <path id="Path_656" data-name="Path 656" d="M494.178,289.1s5.882.995,8.335,3.042,5.742,3.811,5.251,4.87-3.952-1.188-3.952-1.188a5.631,5.631,0,0,1-3.661,2.737c-2.835.829-8.9-4.046-8.9-4.046Z" transform="translate(-451.767 -254.444)" fill="#fda893"/>
          <g id="Group_505" data-name="Group 505">
            <path id="Path_657" data-name="Path 657" d="M448.764,248.608c3.281,4.973,15.838,22.165,18.671,24.163,3.688,2.6,14.005,8,20.021,10.493,1.084.448-2.411,5.561-2.411,5.561s-14.838-4.843-21.175-8.888c-1.793-1.144-9.249-8.613-14-15.238-1.629-2.269-4.278-5.421-4.661-8.774C444.765,252.067,445.977,250,448.764,248.608Z" transform="translate(-445.118 -248.608)" fill="#4d0b9e"/>
          </g>
        </g>
        <g id="Group_507" data-name="Group 507" transform="translate(32.7 50.017)">
          <rect id="Rectangle_248" data-name="Rectangle 248" width="32.648" height="4.255" rx="1.658" transform="translate(32.648 27.648) rotate(180)" fill="#ebebeb"/>
          <path id="Path_658" data-name="Path 658" d="M524.6,298.413l6.643-24.878a2.2,2.2,0,0,0-2.127-2.769H514.5a2.2,2.2,0,0,0-2.119,1.606l-7.315,26.042Z" transform="translate(-486.458 -270.765)" fill="#fff"/>
          <path id="Path_659" data-name="Path 659" d="M512.105,272.372,504.851,298.2h-1.67l7.254-25.826a2.2,2.2,0,0,1,2.12-1.607h1.671A2.2,2.2,0,0,0,512.105,272.372Z" transform="translate(-486.186 -270.765)" fill="#ebebeb"/>
          <path id="Path_660" data-name="Path 660" d="M517.986,287.719a2.287,2.287,0,0,0,2.283,2.972,3.966,3.966,0,0,0,3.659-2.972,2.287,2.287,0,0,0-2.284-2.972A3.968,3.968,0,0,0,517.986,287.719Z" transform="translate(-488.309 -272.78)" fill="#ebebeb"/>
        </g>
      </g>
    </g>
  </g>
</svg>
