<svg xmlns="http://www.w3.org/2000/svg" xmlns:xlink="http://www.w3.org/1999/xlink" width="215.033" height="157.444" viewBox="0 0 215.033 157.444">
  <defs>
    <linearGradient id="linear-gradient" x1="-59.141" y1="0.912" x2="-58.286" y2="-0.104" gradientUnits="objectBoundingBox">
      <stop offset="0" stop-color="#fff"/>
      <stop offset="0.643" stop-color="#c6c0b9"/>
    </linearGradient>
    <linearGradient id="linear-gradient-2" x1="-0.161" y1="2.264" x2="-0.234" y2="1.447" gradientUnits="objectBoundingBox">
      <stop offset="0" stop-color="#fff"/>
      <stop offset="0.527" stop-color="#c6c0b9"/>
    </linearGradient>
    <linearGradient id="linear-gradient-3" x1="0.529" y1="0.767" x2="0.465" y2="0.176" xlink:href="#linear-gradient"/>
    <linearGradient id="linear-gradient-4" x1="0.291" y1="0.734" x2="1.397" y2="-0.088" xlink:href="#linear-gradient"/>
  </defs>
  <g id="Group_994" data-name="Group 994" transform="translate(-112.115 -241)">
    <g id="Group_526" data-name="Group 526" transform="translate(-280.755 7.938)">
      <ellipse id="Ellipse_80" data-name="Ellipse 80" cx="107.517" cy="7.515" rx="107.517" ry="7.515" transform="translate(392.869 375.477)" fill="#d8d2f2" opacity="0.6"/>
    </g>
    <g id="Group_845" data-name="Group 845" transform="translate(320.029 213.82)">
      <g id="Group_828" data-name="Group 828">
        <g id="Group_827" data-name="Group 827">
          <path id="Path_1051" data-name="Path 1051" d="M-88.6,57.577c4.348-1.373,5.282.557,7.542,4.792.126.244.6.362.714.633-.064.274-.763.41-1.234.609-1.1.459-2.107.3-5.288-1.224C-91.409,60.205-88.6,57.577-88.6,57.577Z" fill="#ffb827"/>
          <path id="Path_1052" data-name="Path 1052" d="M-81.937,62.706a17.164,17.164,0,0,1-2.443-1.57l1.388.065s-1.331-.232-1.6-.258l.01.031c-.117-.1-.244-.2-.365-.3l-.789-.682,1.646.1s-1.525-.289-1.919-.333L-87.4,58.567l1.8.112s-1.632-.312-1.96-.344l.048.135c-.509-.438-.864-.74-.864-.74a12.829,12.829,0,0,0,1.454,1.5,4.036,4.036,0,0,0,.684,1.811c-.013-.166-.251-1.146-.335-1.5.41.363.823.72,1.223,1.046a3.287,3.287,0,0,0,.6,1.519c-.01-.136-.192-.89-.284-1.269.451.356.847.65,1.113.817A9.672,9.672,0,0,0-81.937,62.706Z" fill="#ffa727" opacity="0.47" style="mix-blend-mode: multiply;isolation: isolate"/>
        </g>
        <path id="Path_1053" data-name="Path 1053" d="M-88.334,57.747a4.863,4.863,0,0,0-4.828.47c-.226.618.081.738.081.738s.043-1.291,2.523-1.206c1.862.063,2.187.337,2.187.337Z" fill="#ffa727"/>
      </g>
      <g id="Group_830" data-name="Group 830">
        <g id="Group_829" data-name="Group 829">
          <path id="Path_1054" data-name="Path 1054" d="M-93.3,70.922c-1.794,4.191-3.865,3.641-8.55,2.591-.268-.063-.667.219-.945.128-.168-.227.186-.845.342-1.332.372-1.134,1.145-1.795,4.377-3.209C-93.451,67.075-93.3,70.922-93.3,70.922Z" fill="#ffa506"/>
          <path id="Path_1055" data-name="Path 1055" d="M-101.526,72.623a17.256,17.256,0,0,1,2.784-.827l-.955,1.01s1.044-.857,1.242-1.049l-.029-.011c.151-.025.307-.057.465-.081l1.03-.153-1.149,1.181s1.213-.967,1.5-1.237l1.808-.27-1.261,1.292s1.3-1.033,1.539-1.262l-.134-.05c.664-.1,1.125-.174,1.125-.174a12.891,12.891,0,0,0-2.085.125,4.034,4.034,0,0,0-1.817-.663c.133.1,1.03.559,1.353.723-.543.074-1.082.156-1.591.247a3.265,3.265,0,0,0-1.541-.538c.11.081.8.435,1.147.613-.563.108-1.046.217-1.346.309A9.65,9.65,0,0,0-101.526,72.623Z" fill="#ffa727" opacity="0.47" style="mix-blend-mode: multiply;isolation: isolate"/>
        </g>
        <path id="Path_1056" data-name="Path 1056" d="M-93.594,71.009A4.865,4.865,0,0,0-90.8,67.044c-.322-.574-.614-.42-.614-.42s.952.874-.731,2.7c-1.263,1.371-1.682,1.438-1.682,1.438Z" fill="#ffa506"/>
      </g>
      <path id="Path_1057" data-name="Path 1057" d="M-80.91,165.2c-.628,2.48-1.826,5.4-4.2,6.583-1.757.875-3,1.985-2.988,2.936.05,3.861,7.613,1.268,7.613,1.268a11.094,11.094,0,0,1,4.67-1.224c4.283-.316,1.758-6.443,1.148-8.926S-80.91,165.2-80.91,165.2Z"/>
      <path id="Path_1058" data-name="Path 1058" d="M-94.7,163.42a8.222,8.222,0,0,1-4.654,5.394c-1.757.88-4.842,2.093-4.831,3.047.054,3.857,7.537,1.822,7.537,1.822a22.054,22.054,0,0,1,7.111-1.45c2.383-.157,1.143-5.665.53-8.148S-94.7,163.42-94.7,163.42Z"/>
      <path id="Path_1059" data-name="Path 1059" d="M-83.965,86.365c3.036,6.983,3.372,6.579,5.272,19.823.717,4.993.249,17.63,1.328,21.63,5.453,20.225,4.787,43.844,4.787,43.844l-9.064-2.423S-92.98,92.845-93.6,90.324-83.965,86.365-83.965,86.365Z" fill="#2e3062"/>
      <g id="Group_831" data-name="Group 831">
        <path id="Path_1060" data-name="Path 1060" d="M-101.52,133.309c4.088,20.562,2.375,34.873,2.375,34.873l11.947-.07c-1.176-23.011-1.89-23.433-2.32-31.024A43.469,43.469,0,0,0-93.575,121.4s1.668,4.75,2.292,7.274,6.265,42.141,6.265,42.141l7.641-.284c1.624-5.322-2.517-30.906-4.69-40.731-1.266-5.73-3.59-34.332-8.857-44.277l-15.386,1.589S-104.023,120.717-101.52,133.309Z" fill="#1d1a45"/>
      </g>
      <path id="Path_1061" data-name="Path 1061" d="M-90.283,47.024c-.052-.327-3.316-7.78-3.316-7.78l-4.97,2.31-1.349,5.31-1.432,5.993,6.063,10.695c4.878,1.614,7.9-11.664,9.267-13.137C-86.557,50.993-88.052,49.769-90.283,47.024Z" fill="#e5afa1"/>
      <path id="Path_1062" data-name="Path 1062" d="M-92.513,45.193l-5.662,18.474-3.776-9.352,1.906-8.254Z" fill="url(#linear-gradient)" style="mix-blend-mode: multiply;isolation: isolate"/>
      <path id="Path_1063" data-name="Path 1063" d="M-106.814,51.312c-2.285.258-2.051,9.978-1.468,11.437,0,0,.21,6.333.063,13.726-.283,14.386.337,19.3.223,20.1-.356,2.378,29.381,3.643,28.347-1.035C-82.371,83.192-83.6,66.181-82.43,61.205a10.077,10.077,0,0,0-2.123-8.853,42.215,42.215,0,0,0-4.26-3.888s-3.113,4.582-7.742,4.329a3.952,3.952,0,0,1-3.851-4.14Z" fill="#5c17b2"/>
      <path id="Path_1064" data-name="Path 1064" d="M-88.734,48.412c2.342,2.047,5.139,3.094,7.765,4.381,7.459,3.657-4.286,17.609,2.185,43.475a19.793,19.793,0,0,1-7.724,1.716c-3.239-35.213,1.773-41.41,1.773-41.41L-92,51.541Z" fill="#7742ca"/>
      <path id="Path_1065" data-name="Path 1065" d="M-93.828,36.591c-1.27-3.7-3.032-6.591-8.359-4.833a8.681,8.681,0,0,0-3.527,1.956c-2.263,1.6,2.99,16.654,8.139,16.7.1,0,1.191-.443,1.265-.478,3.754-1.752,3.871-4.305,3.707-7.936a3.115,3.115,0,0,0,.5-2.879C-92.489,37.611-92.815,36.393-93.828,36.591Z" fill="#efc8b9"/>
      <g id="Group_832" data-name="Group 832">
        <path id="Path_1066" data-name="Path 1066" d="M-106.025,42.219a3.582,3.582,0,0,1,1.157,1.8c.572,3.2,3.376,7.034,6.894,6.434.028,0,.013.041.113,0-4.332-2.015-7.35-7.321-8.208-15.557l.418-1.208a.215.215,0,0,1-.041.038C-107.954,35.336-106.932,39.33-106.025,42.219Z" fill="#e5afa1"/>
      </g>
      <path id="Path_1067" data-name="Path 1067" d="M-92.4,29.807a7.74,7.74,0,0,0-7.151-2c-2.23.687-3.26,3.432-3.26,3.432a11.916,11.916,0,0,1,2.329.523,36.638,36.638,0,0,0-1.986,4.111c1.2-.858,3.6-2.061,4.292-.688.535,1.076.17,3.09,1.2,3.433s.551,1.242,1.2,1.8c.3.259.9,0,.9,0a5.466,5.466,0,0,1,.244-3.232,59.158,59.158,0,0,1,3.146,7.264c1.288-1.287.242-1.512.343-3.517C-91.056,39.216-89.2,33.239-92.4,29.807Z" fill="#232121"/>
      <path id="Path_1068" data-name="Path 1068" d="M-104.511,37.528c-1.544,1.145-2.931-1.572-3.745-.929-.712.56-.817-2.059.214-2.4,0,0-.127-1.53,1.931-.387-.873-.885-2.4-.188-2.247-.4.173-.23,1.275-3.2,3.1-3.2,0-.857-1.544.172,0-.857s6.45-3.546,8.337-1.2c.218.269-1.487.858-3.018,3.6a10.786,10.786,0,0,0-1.542,3.546C-101.82,37.014-104.511,37.528-104.511,37.528Z"/>
      <path id="Path_1069" data-name="Path 1069" d="M-94.914,37.757c.386-.815,1.228-2,1.913-.8s1.517,5.176-.156,4.7C-94.424,41.3-94.914,37.757-94.914,37.757Z" fill="#efc8b9"/>
      <path id="Path_1070" data-name="Path 1070" d="M-114.874,37.749c-.337-.5,5.375,1.241,6,5.328,1.832,11.9,2.4,19.1,3.489,31.4.189,2.153-16,3.268-16.127,2.186s5.515-39.054,5.515-39.054Z" fill="#5e2014"/>
      <path id="Path_1071" data-name="Path 1071" d="M-100.58,82.541a80.819,80.819,0,0,0-5.433-17.615c-1.531-3.362-3.316-5.778-5.145-5.548-.231,3.43,4,15.785,4.46,16.471C-108.3,76.079-100.58,82.541-100.58,82.541Z" fill="#e5afa1"/>
      <path id="Path_1072" data-name="Path 1072" d="M-120.077,35.039c-3.321,1.632-7.554,4.035-10.416,16.161-.81,3.445-5.746,20.708-5.26,23.1.425,2.123,15.6,3.693,15.788,2.62.209-1.079-1.088-35.885-1.088-35.885Z" fill="#380f01"/>
      <path id="Path_1073" data-name="Path 1073" d="M-109.727,69.745l-2.232-10.768-4.634-1.831-.691-7.409-7.695-1.466s1.175,8.144-2.788,10.324c-1.934.5-5.271,1.039-5.78,2.144-.53,1.154,2.619,10.658,2.619,10.658s-.222,3.216.407,3.286C-129.916,74.755-113.867,71.041-109.727,69.745Z" fill="#efc8b9"/>
      <path id="Path_1074" data-name="Path 1074" d="M-129.178,58.953c4.375-.056,4.326-11.193,4.326-11.193,2.243-1.777,9.136-1.493,8.547.32a21.727,21.727,0,0,0-.435,6.11c.238,1.584-8.852,13.21-8.852,13.21Z" fill="url(#linear-gradient-2)" style="mix-blend-mode: multiply;isolation: isolate"/>
      <g id="Group_836" data-name="Group 836">
        <g id="Group_835" data-name="Group 835">
          <g id="Group_834" data-name="Group 834">
            <g id="Group_833" data-name="Group 833">
              <path id="Path_1075" data-name="Path 1075" d="M-110.352,46.008c-1.036,6.334-5.277,10.752-7.671,9.994-5.063-1.6-7.224-5.486-6.775-12.2.379-5.505,2.767-10.583,9.426-9.036C-109.135,36.219-109.467,40.6-110.352,46.008Z" fill="#efc8b9"/>
            </g>
          </g>
        </g>
        <path id="Path_1076" data-name="Path 1076" d="M-116.706,40.5c1.6,2.431,6.4,2.058,6.005,6.635a12.7,12.7,0,0,1-1.716,5.633c-1.136,1.658,1.231-.662,1.231-.662s4.528-8.748.674-14.458c-1.661-2.461-5.163-3.243-5.37-2.959C-116.065,34.972-116.706,40.5-116.706,40.5Z" fill="#5e2014"/>
        <path id="Path_1077" data-name="Path 1077" d="M-112.931,42.734c-3.178.6-6.349.118-8.238,3.174-1.372,2.206-3.284,3.847-3.683,5.888-.534,2.728-.848-8.67-.848-8.67s-.681-5.726,5.623-8.087c4.062-1.526,7.574.559,7.486,1C-112.651,36.384-112.931,42.734-112.931,42.734Z" fill="#380f01"/>
      </g>
      <path id="Path_1078" data-name="Path 1078" d="M-112.444,170.421c-.351-.259-6.61-3.279-6.864-6.491-.7-8.859,3.35-23.868,5.761-28.667,1.374-2.744,2.75-22.253,3.67-25.182,0,0-9.616-2.125-10.817,1.062s-1.377,12.945-2.282,22.339c-3.841,5.305-2.892,30.294-2.892,30.294-.914,2.694-2.744,5.215-1.418,6.409s3.023,1.6,4.19.965,7.243,1.884,9.989,1.757S-111.1,171.388-112.444,170.421Z" fill="#e5afa1"/>
      <path id="Path_1079" data-name="Path 1079" d="M-126.831,165.153c-.973,1.579-1.584,4.644-1.051,5.583s3.833,1.405,4.753,1.214a4.554,4.554,0,0,1,3.317.014c1.461.63,7.687,2.128,9,.808s-1.836-2.815-2.952-3.545-2.305.6-3.789.541S-126.831,165.153-126.831,165.153Z"/>
      <path id="Path_1080" data-name="Path 1080" d="M-117.81,109.777s-10-6.048-12.89-1.041-2.126,13.116-3.766,27.6c-4.295,6.434-2.877,21.979-4.217,25.295-1.018,2.509-6.282,9.954-3.572,12.318,4.98,4.35,7.573-5.191,8.642-9.539.642-2.591,7.307-24.336,8.6-28.784C-123.458,130.3-120.224,116.416-117.81,109.777Z" fill="#efc8b9"/>
      <path id="Path_1081" data-name="Path 1081" d="M-134.675,168.584c-2.446,3.949-4.317,2.765-5.007,2.333a3.605,3.605,0,0,1-1.847-4.517c.174-.553-2.384,3.493-2.24,5.672s.062,4.3,1.532,4.708,4.417-.775,5.534-3.014A41.853,41.853,0,0,0-134.675,168.584Z"/>
      <path id="Path_1082" data-name="Path 1082" d="M-105.659,124.27c-.62-4.874-.737-11.407-1-18.281-.314-8.24-.43-16.926-2-20.892-.182-.9-.325-1.608-.386-1.928-.2-1.085-.24-8.449-.169-8.521,1.921-2.055.934-4.825-.114-8.006a27.5,27.5,0,0,1-1.716-7.494l-2.629-1.029s2.263,6.928-.239,8.072a16.62,16.62,0,0,1-3.769,1.322l.724,6.865c-.812.217.073,1.558-.085,2.167-.316,1.231.136,6.019.64,10.352l-.869.336s.672,45.082,1.239,46.113a2.8,2.8,0,0,0,2.486,1.917,14.827,14.827,0,0,0,10.614-2.974A20.171,20.171,0,0,1-105.659,124.27Z" fill="#f7d18f"/>
      <path id="Path_1083" data-name="Path 1083" d="M-111.053,105.815c0-14.189-2.324-19.039-2.437-21.021-.023-4-2.047-8.45-1.915-10.349.443-6.439-2.069-7.219-2.069-7.219-2.175.7-7.9-.713-8.956-3.439-1.688-4.367-2.6-5.316-2.6-5.316l-1.724.716,1.058,10.542c-.342,3.431-1.5,4.518-1.256,4.919,1.583,2.571,3.038,6.669,2.562,9.261-1.013,1.377-2.64,5.53-4.276,10.216-.151.344-.245.555-.245.555h.05c-1.17,3.386-2.337,6.99-3.277,10-2.308,7.387-6.148,23-8.9,26.123a8.078,8.078,0,0,1,5.972,2.252c2.326,2.515,3.523,2.963,6.374,2.47s3.143-2.908,5.111-1.621,2.344,2.113,5.826.833,8.639,2.8,11.7.312C-109.423,134.543-111.053,113.711-111.053,105.815Z" fill="#fa8a00"/>
      <path id="Path_1084" data-name="Path 1084" d="M-120.688,102.482c2.014-6.8-4.325,33.143-4.325,33.143s-2.615-2.092-3.345-2.092C-123.977,126.08-121.858,106.427-120.688,102.482Z" fill="#f7d18f"/>
      <path id="Path_1085" data-name="Path 1085" d="M-131.208,105.551c2.459-5.739-6.8,29-7.088,28.42s-2.922-2.776-3.945-2.776C-136.907,127.689-131.647,106.574-131.208,105.551Z" fill="#f7d18f"/>
      <g id="Group_838" data-name="Group 838">
        <path id="Path_1086" data-name="Path 1086" d="M-103.867,72.1c0,2.4-2.477,4.318-5,4.318s-5.291-1.831-5.291-4.233c0-1.493,1.7-3.6,2.889-3.431.687.1.919-1.087,1.829-1.372C-105.44,66.126-103.867,69.7-103.867,72.1Z" fill="#efc8b9"/>
        <path id="Path_1087" data-name="Path 1087" d="M-110.016,68.113a5.405,5.405,0,0,1-2.445.473.531.531,0,0,0-.556.686c.085.386.1.858.556,1.029S-110.016,68.113-110.016,68.113Z" fill="#efc8b9"/>
        <g id="Group_837" data-name="Group 837">
          <path id="Path_1088" data-name="Path 1088" d="M-108.95,71.695c1.243.043.28,1.716-.579,1.716s-2.322-.59-1.544-.815A20.625,20.625,0,0,0-108.95,71.695Z" fill="#f9ddd2" opacity="0.72"/>
          <path id="Path_1089" data-name="Path 1089" d="M-109.292,71.738c.321.236.4.129.578.558s-.9.858-1.244.6-1.115-.451-.687-.621.709-.357.858-.087C-109.357,72.961-109.292,71.738-109.292,71.738Z" fill="#efc8b9"/>
        </g>
        <path id="Path_1090" data-name="Path 1090" d="M-110.558,69.014c.17.429.256,1.03.514.944s.343-.944.086-1.029A.944.944,0,0,0-110.558,69.014Z" fill="#efc8b9" opacity="0.47" style="mix-blend-mode: multiply;isolation: isolate"/>
      </g>
      <path id="Path_1091" data-name="Path 1091" d="M-133.123,81.283c-1.144,2.287-4.8,12.012-4.8,12.012l2.287,1.944a7.087,7.087,0,0,1-.688,2.058c-1.147,1.143,5.836,2.517,7.208,4.347s.573-16.929-.574-18.3A8.3,8.3,0,0,0-133.123,81.283Z" fill="#c1dff7"/>
      <path id="Path_1092" data-name="Path 1092" d="M-119.967,41.533c-1.544,7.377-6.064,12.754-2.29,26.709-3.2-1.943-6.462-5.147-7.147-13.84C-129.914,47.96-119.967,41.533-119.967,41.533Z" fill="#380f01"/>
      <path id="Path_1093" data-name="Path 1093" d="M-111.294,42.98c.974,4.232.287,21.792-.285,22.708,1.259-1.259,2.287-5.034,2.287-8.124s-.456-11.667-.686-12.01S-111.294,42.98-111.294,42.98Z" fill="#5e2014"/>
      <path id="Path_1094" data-name="Path 1094" d="M-110.358,74.305c-3.26-1.2-6.178-4.289-7.893-4.118s-7.38,2.918-8.065,4.976,6.018-1.742,9.358-.785A12.768,12.768,0,0,0-110.358,74.305Z" fill="#fff"/>
      <path id="Path_1095" data-name="Path 1095" d="M-104.582,40.96c.229,2.117.1,4.95.186,5.205.428,1.2,1.672-.086,2.659-.429C-101.043,45.495-104.582,40.96-104.582,40.96Z" fill="#efc8b9"/>
      <path id="Path_1096" data-name="Path 1096" d="M-108.234,80.78l-13.472,24.27-13.377.191,7.836-19.874Z" fill="url(#linear-gradient-3)" style="mix-blend-mode: multiply;isolation: isolate"/>
      <path id="Path_1097" data-name="Path 1097" d="M-105.895,67.442a3.383,3.383,0,0,1-1.6,4.918c-1.717.515-3.147.172-6.664-.172s-13.642,1.2-18.1,8.923l6.69,4.289s5.493,3.261,13.729-1.372c3.783-2.128,7.773-8.662,8.351-10.468C-102.008,68.929-105.895,67.442-105.895,67.442Z" fill="#fff"/>
      <path id="Path_1098" data-name="Path 1098" d="M-103.381,77.165c-1.832-1.257-9.322-1.716-11.9-1.144-.056.013-.08.046-.13.064a6.951,6.951,0,0,1-2.618-.349c-.64-.346-2.057-.057-3.315.429-1.478.57-1.629.572-1.317.828.329.271,1.128-.195,1.487-.056a2.526,2.526,0,0,0,1.661-.048c-.185.07-.889.33-2.269.792-2.447.82-3.451,2-2.938,2.2l2.174-.944.171.258s-2.171,1.115-2.2,1.572,2.717-.543,2.717-.543a19.478,19.478,0,0,1-1.845.944c-.627.28-.55.633,0,.514a9.224,9.224,0,0,1,1.957-.248c-.18.058-.381.127-.626.22-.829.314-1.247.285-1.117.587.113.26,1.807-.248,2.791-.572a.05.05,0,0,0,.013.013c2.091-.184,4.418-2.081,6.076-2.394,2.329.6,7.266,4.239,8.821,4.281,4.118.114,5.2-1.029,5.2-1.029S-103.841,76.479-103.381,77.165Z" fill="#e5afa1"/>
      <path id="Path_1099" data-name="Path 1099" d="M-132.322,81.683c-.687.858-4.118,11.955-4.118,11.955s5.663,4.688,7.721,7.263,3.434,2.574,4.119,1.544.685-15.271,1.887-16.815S-132.322,81.683-132.322,81.683Z" fill="#fff"/>
      <path id="Path_1100" data-name="Path 1100" d="M-110.99,83.342c.076-.491-1.257.629-2.628.915.793-.3,2.229-.972,2.115-1.544-.152-.752-.738.886-3.315.8-1.718-.057-1.662-.058-1.662-.058s-.173-.038.515-.571a3.925,3.925,0,0,0,.917-.858c.457-.686.116-.427-1.373.114-1.26.458-1.773.229-2.288.744s-.973.516-1.546.916c-.1.067-10.35-3.433-10.35-3.433a65.871,65.871,0,0,0,.913-8.807c-.037-.821-1.821-12.335-3.1-11.41-.794.108-2.506,1.6-3.3,3.574-1.321,3.271-1.136,18.426-.458,21.678,0,0,3.03,3.316,16,2.289a44.91,44.91,0,0,0,6.473-.46s2.573-1.258,2.859-2.46c.093-.394-1.382.236-1.488.116A2.664,2.664,0,0,0-110.99,83.342Z" fill="#efc8b9"/>
      <path id="Path_1101" data-name="Path 1101" d="M-105.125,77.909l-5.492,5.834s2.145,3.174,4.634,2.917,4.289-3.6,4.289-3.6a38.326,38.326,0,0,0,0-4.462C-101.865,77.909-105.125,77.909-105.125,77.909Z" fill="url(#linear-gradient-4)" style="mix-blend-mode: multiply;isolation: isolate"/>
      <g id="Group_839" data-name="Group 839">
        <path id="Path_1102" data-name="Path 1102" d="M-135.793,61.952a.743.743,0,0,0-.74.365.767.767,0,0,0,.276,1.114,5.771,5.771,0,0,0,2.085.687c.368,0,1.594.164,1.7-.139s-.08-.343-.919-.781S-135.793,61.952-135.793,61.952Z" fill="#e5afa1"/>
        <path id="Path_1103" data-name="Path 1103" d="M-136.483,63.246c-.644-.026-1.448.691-1,1.4s1.674.63,2.379.919a3.054,3.054,0,0,0,2.609-.172c.519-.494.114-.67-.66-.848S-136.483,63.246-136.483,63.246Z" fill="#e5afa1"/>
        <path id="Path_1104" data-name="Path 1104" d="M-137.2,64.972a.962.962,0,0,0-.319,1.643,5.307,5.307,0,0,0,2.934.467c.623-.057,1.42-.159,1.531-.458s-.665-.847-1.35-1.046S-137.2,64.972-137.2,64.972Z" fill="#e5afa1"/>
        <path id="Path_1105" data-name="Path 1105" d="M-137.139,66.673c-.33.534-.746,1.091-.1,1.482s3.355.172,3.406-.271c.069-.611-.826-.611-1.687-.769A11.124,11.124,0,0,1-137.139,66.673Z" fill="#e5afa1"/>
      </g>
      <g id="Group_844" data-name="Group 844">
        <path id="Path_1106" data-name="Path 1106" d="M-76.8,61.764c2.109,7.465,3.611,19.8,3.286,21.1s-.041,6.491-2.961,15.416a58.186,58.186,0,0,1-2.759,6.491c-.162.487-4.057-.649-4.057-.649s1.257-18.864,1.744-21.136c-2.109-8.114-4.015-14.564-3.2-17.81S-76.8,61.764-76.8,61.764Z" fill="#efc8b9"/>
        <path id="Path_1107" data-name="Path 1107" d="M-82.631,102.53c-.027.049-.611-.179-.611-.126a9.043,9.043,0,0,1-1.218,2.589,4.09,4.09,0,0,0-1.259,2.638c-.155,1.574-.617,2.232-.215,2.19.833-.086.52-.745.78-1.03a2.019,2.019,0,0,0,.641-1.168,3.577,3.577,0,0,0-.509,1.849c-.126,2.58.611,3.943.984,3.536l-.091-2.367.3-.066s.25,2.428.667,2.622.985-3.174.985-3.174-.067,1.459-.014,2.583c.034.687.426.734.708.244.441-.761.105-2.5.586-2.412-.011.191-.03.835-.032,1.095-.008.888-.186,1.264.141,1.255a4.931,4.931,0,0,0,1.446-2.815c.008,0,1.611-4.169.124-7.238C-79.216,102.735-82.233,101.825-82.631,102.53Z" fill="#efc8b9"/>
        <g id="Group_843" data-name="Group 843">
          <g id="Group_842" data-name="Group 842">
            <g id="Group_841" data-name="Group 841">
              <g id="Group_840" data-name="Group 840">
                <path id="Path_1108" data-name="Path 1108" d="M-79.743,55.447c1.987,3.772,5.3,14.943,5.138,18.407a22.778,22.778,0,0,0-9.737,2.069s-4.773-12.712-1.582-18.013S-79.743,55.447-79.743,55.447Z" fill="#5c17b2"/>
              </g>
            </g>
          </g>
          <path id="Path_1109" data-name="Path 1109" d="M-82.394,54.746c-1.287-.275,3.164-1.46,4.381.365,2.677,4.017,5.835,19.508,5.436,19.23-.811-.569-4.138-.487-4.138-.487S-79.555,55.355-82.394,54.746Z" fill="#7742ca"/>
        </g>
      </g>
    </g>
  </g>
</svg>
