<svg xmlns="http://www.w3.org/2000/svg" width="215.033" height="167.285" viewBox="0 0 215.033 167.285">
  <g id="Group_995" data-name="Group 995" transform="translate(-112.115 -231.16)">
    <g id="Group_526" data-name="Group 526" transform="translate(-280.755 7.938)">
      <ellipse id="Ellipse_80" data-name="Ellipse 80" cx="107.517" cy="7.515" rx="107.517" ry="7.515" transform="translate(392.869 375.477)" fill="#d8d2f2" opacity="0.6"/>
    </g>
    <g id="Group_962" data-name="Group 962" transform="translate(-1029.873 -351.457)">
      <g id="Group_957" data-name="Group 957" transform="translate(1175.873 582.617)">
        <g id="Group_919" data-name="Group 919" transform="translate(3.208 88.022)">
          <g id="Group_916" data-name="Group 916" transform="translate(0)">
            <path id="Path_1315" data-name="Path 1315" d="M1325.768,1192.044H1194.125v-2.972h131.643a.537.537,0,0,1,.537.537v1.9A.537.537,0,0,1,1325.768,1192.044Z" transform="translate(-1194.125 -1189.072)" fill="#893003"/>
          </g>
          <g id="Group_917" data-name="Group 917" transform="translate(0 0.537)">
            <rect id="Rectangle_552" data-name="Rectangle 552" width="1.085" height="70.512" fill="#893003"/>
          </g>
          <g id="Group_918" data-name="Group 918" transform="translate(131.096 0.537)">
            <path id="Rectangle_553" data-name="Rectangle 553" d="M.542,0h0a.542.542,0,0,1,.542.542V69.97a.542.542,0,0,1-.542.542h0A.542.542,0,0,1,0,69.97V.542A.542.542,0,0,1,.542,0Z" fill="#893003"/>
          </g>
        </g>
        <g id="Group_920" data-name="Group 920" transform="translate(51.149 81.316)">
          <path id="Path_1316" data-name="Path 1316" d="M1501.06,1150.919h-34.219l.913,73.1h6.535s4.947-36.777,6.812-57.1h4.53l1.362,57.1h6.535s7.713-57.336,7.506-68.389A42.828,42.828,0,0,0,1501.06,1150.919Z" transform="translate(-1466.841 -1150.919)" fill="#1d1a45"/>
        </g>
        <g id="Group_923" data-name="Group 923" transform="translate(46.848 28.974)">
          <g id="Group_922" data-name="Group 922">
            <g id="Group_921" data-name="Group 921">
              <path id="Path_1317" data-name="Path 1317" d="M1480.9,905.505H1446.68l-4.272-45.452c-.383-3.708,3.2-6.89,7.758-6.89h27.246c4.558,0,8.141,3.182,7.758,6.89Z" transform="translate(-1442.379 -853.164)" fill="#b49fe7"/>
            </g>
          </g>
        </g>
        <g id="Group_926" data-name="Group 926" transform="translate(8.069 22.101)">
          <g id="Group_925" data-name="Group 925">
            <g id="Group_924" data-name="Group 924">
              <path id="Path_1318" data-name="Path 1318" d="M1274.825,832.837l-24.477,10.07a6.049,6.049,0,0,1-6.654-1.394L1221.775,818.9l4.253-4.839,21.344,16.22s12.823-7.714,17.956-9.034c2.3-.591,7.993,5.571,7.993,5.571Z" transform="translate(-1221.775 -814.066)" fill="#b59fe7"/>
            </g>
          </g>
        </g>
        <g id="Group_928" data-name="Group 928" transform="translate(44.277 154.325)">
          <g id="Group_927" data-name="Group 927">
            <path id="Path_1319" data-name="Path 1319" d="M1435.443,1566.246h6.644v5.1h-13.476c-.889,0-1.2-2-.416-2.428Z" transform="translate(-1427.748 -1566.246)" fill="#5c17b2"/>
          </g>
        </g>
        <g id="Group_930" data-name="Group 930" transform="translate(71.331 154.325)">
          <g id="Group_929" data-name="Group 929">
            <path id="Path_1320" data-name="Path 1320" d="M1588.295,1566.246h-6.645v5.1h13.476c.89,0,1.2-2,.417-2.428Z" transform="translate(-1581.65 -1566.246)" fill="#5c17b2"/>
          </g>
        </g>
        <g id="Group_931" data-name="Group 931" transform="translate(51.149 81.316)">
          <rect id="Rectangle_554" data-name="Rectangle 554" width="34.249" height="2.423" fill="#7742ca"/>
        </g>
        <g id="Group_932" data-name="Group 932" transform="translate(0 15.877)">
          <path id="Path_1321" data-name="Path 1321" d="M1188.195,784.884s1.173-5.523-.147-5.523-1.768,3.244-2.346,3.422c-1.271.391-2.982-1.418-4.888-3.031s-5.063-1.374-4.937.293c.244,3.226,8.065,9.678,8.065,9.678Z" transform="translate(-1175.873 -778.66)" fill="#e98896"/>
        </g>
        <g id="Group_935" data-name="Group 935" transform="translate(75.08 22.101)">
          <g id="Group_934" data-name="Group 934">
            <g id="Group_933" data-name="Group 933">
              <path id="Path_1322" data-name="Path 1322" d="M1602.98,832.837l24.478,10.07a6.049,6.049,0,0,0,6.654-1.394l21.919-22.608-4.252-4.839-21.344,16.22s-12.823-7.714-17.956-9.034c-2.3-.591-7.993,5.571-7.993,5.571Z" transform="translate(-1602.98 -814.066)" fill="#b59fe7"/>
            </g>
          </g>
        </g>
        <g id="Group_936" data-name="Group 936" transform="translate(123.398 15.877)">
          <path id="Path_1323" data-name="Path 1323" d="M1878.324,784.884s-1.173-5.523.147-5.523,1.768,3.244,2.346,3.422c1.271.391,2.982-1.418,4.888-3.031s5.063-1.374,4.937.293c-.244,3.226-8.065,9.678-8.065,9.678Z" transform="translate(-1877.844 -778.66)" fill="#e98896"/>
        </g>
        <g id="Group_940" data-name="Group 940" transform="translate(90.66 65.067)">
          <g id="Group_937" data-name="Group 937" transform="translate(7.841)">
            <path id="Path_1324" data-name="Path 1324" d="M1736.215,1078.34h32.068l4.4-19.855h-32.067Z" transform="translate(-1736.215 -1058.485)" fill="#bbb"/>
          </g>
          <g id="Group_938" data-name="Group 938" transform="translate(0 19.714)">
            <rect id="Rectangle_555" data-name="Rectangle 555" width="39.937" height="3.384" fill="#bbb"/>
          </g>
          <g id="Group_939" data-name="Group 939" transform="translate(24.592 8.35)">
            <path id="Path_1325" data-name="Path 1325" d="M1831.506,1108.1a2.111,2.111,0,1,0,2.111-2.111A2.111,2.111,0,0,0,1831.506,1108.1Z" transform="translate(-1831.506 -1105.986)" fill="#4e687f"/>
          </g>
        </g>
        <g id="Group_956" data-name="Group 956" transform="translate(54.137 0)">
          <circle id="Ellipse_89" data-name="Ellipse 89" cx="9.775" cy="9.775" r="9.775" transform="translate(0 13.824) rotate(-45)" fill="#2e3062"/>
          <path id="Path_1326" data-name="Path 1326" d="M1504.962,712.037s-3.1-2.551-2.787-6.138a4.4,4.4,0,0,1,1.832-2.886s-.5-4.3,3.4-5.381,11.139.715,14.067-1.43c0,0,2.413,5.507-1.125,7.281S1504.962,712.037,1504.962,712.037Z" transform="translate(-1498.933 -694.82)" fill="#2e3062"/>
          <g id="Group_944" data-name="Group 944" transform="translate(21.348 15.543)">
            <path id="Path_1327" data-name="Path 1327" d="M1605.886,777.792s1.552-2.062,2.7-.353-.488,6.749-3.3,5.513Z" transform="translate(-1605.282 -776.762)" fill="#fd896b"/>
            <g id="Group_941" data-name="Group 941" transform="translate(0.38 1.809)">
              <path id="Path_1328" data-name="Path 1328" d="M1607.683,789.875a.239.239,0,0,0,.23-.174,3.683,3.683,0,0,1,2.07-2.19.238.238,0,0,0-.168-.446,4.1,4.1,0,0,0-2.36,2.507.238.238,0,0,0,.165.294A.248.248,0,0,0,1607.683,789.875Z" transform="translate(-1607.445 -787.05)" fill="#d65c48"/>
            </g>
            <g id="Group_943" data-name="Group 943" transform="translate(1.219 2.742)">
              <g id="Group_942" data-name="Group 942">
                <path id="Path_1329" data-name="Path 1329" d="M1613.247,793.471a.235.235,0,0,0,.129-.038.238.238,0,0,0,.072-.329,2.172,2.172,0,0,0-.893-.722.238.238,0,1,0-.2.434,1.725,1.725,0,0,1,.687.545A.238.238,0,0,0,1613.247,793.471Z" transform="translate(-1612.219 -792.361)" fill="#d65c48"/>
              </g>
            </g>
          </g>
          <path id="Path_1330" data-name="Path 1330" d="M1539.332,836.193l-.009,5.015a6.136,6.136,0,0,0,5.26,2.9c2.4-.086,3.61-2.724,3.61-2.724l.008-4.822Z" transform="translate(-1529.57 -810.202)" fill="#fda893"/>
          <path id="Path_1331" data-name="Path 1331" d="M1544.722,836.2l0,2.225c1.354,1.508,3.764,1.888,7.331,1.368l.006-3.228Z" transform="translate(-1534.016 -810.211)" fill="#fd896b"/>
          <path id="Path_1332" data-name="Path 1332" d="M1514.768,733.441a48.8,48.8,0,0,0,.639,6.335c.092.486.2.944.312,1.354,1.049,3.7,3.677,10.038,11.071,7.411,3.266-1.159,4.785-4.792,5.465-8.488a35.744,35.744,0,0,0,.505-6.86,5.235,5.235,0,0,0-2.648-4.459c-4.357-2.48-8.962-1.566-11.994-.407A5.219,5.219,0,0,0,1514.768,733.441Z" transform="translate(-1509.327 -720.336)" fill="#fda893"/>
          <path id="Path_1333" data-name="Path 1333" d="M1587.583,781.771c0,.535.274.969.614.97s.617-.433.618-.968-.274-.97-.614-.97S1587.584,781.236,1587.583,781.771Z" transform="translate(-1569.346 -764.549)" fill="#2e3062"/>
          <path id="Path_1334" data-name="Path 1334" d="M1546.537,781.7c0,.535.274.97.615.97s.617-.433.617-.968-.274-.97-.614-.97S1546.538,781.165,1546.537,781.7Z" transform="translate(-1535.516 -764.491)" fill="#2e3062"/>
          <path id="Path_1335" data-name="Path 1335" d="M1581.234,767.029a6.9,6.9,0,0,0-4.54-.168l.163.917a8.328,8.328,0,0,1,4.233.311C1581.222,767.666,1581.4,767.464,1581.234,767.029Z" transform="translate(-1560.372 -752.779)" fill="#2e3062"/>
          <path id="Path_1336" data-name="Path 1336" d="M1535.43,766.957a6.9,6.9,0,0,1,4.54-.153l-.167.917a8.325,8.325,0,0,0-4.234.3C1535.44,767.594,1535.263,767.391,1535.43,766.957Z" transform="translate(-1526.305 -752.727)" fill="#2e3062"/>
          <g id="Group_947" data-name="Group 947" transform="translate(13.807 16.37)">
            <g id="Group_946" data-name="Group 946">
              <g id="Group_945" data-name="Group 945">
                <path id="Path_1337" data-name="Path 1337" d="M1563.392,786.125a2.534,2.534,0,0,1-.862-.183.238.238,0,0,1,.181-.441,1.431,1.431,0,0,0,.955.092.259.259,0,0,0,.118-.222,35.922,35.922,0,0,0-.138-3.649.238.238,0,0,1,.475-.038,35.347,35.347,0,0,1,.136,3.737.727.727,0,0,1-.347.581A1,1,0,0,1,1563.392,786.125Z" transform="translate(-1562.383 -781.465)" fill="#fd896b"/>
              </g>
            </g>
          </g>
          <path id="Path_1338" data-name="Path 1338" d="M1556.885,816.242a3.067,3.067,0,0,1-3.026,2.776,2.953,2.953,0,0,1-3-2.787Z" transform="translate(-1539.075 -793.75)" fill="#fff"/>
          <g id="Group_948" data-name="Group 948" transform="translate(13.536 25.743)">
            <path id="Path_1339" data-name="Path 1339" d="M1562.119,835.554a2.486,2.486,0,0,1-1.161-.328.238.238,0,1,1,.248-.407,2.025,2.025,0,0,0,.914.258,1.936,1.936,0,0,0,.867-.254.238.238,0,1,1,.249.406A2.385,2.385,0,0,1,1562.119,835.554Z" transform="translate(-1560.844 -834.784)" fill="#fd896b"/>
          </g>
          <path id="Path_1340" data-name="Path 1340" d="M1531.517,738.5a9.981,9.981,0,0,0,.234-2.9c-.23-1.151-1.181-1.829-.862-2.937s-.851-2.307-1.715-2.506-2.88.224-4.863-.722c-1.893-.9-5.189-.265-5.728.95-.652,1.471.232,1.612-1.544,3.2-.707.634.128,2.283.246,3.356a7.182,7.182,0,0,1,.04,1.264l-.008.269-2.122,0c-.231-1.663-.361-3.5-.432-5.03a5.219,5.219,0,0,1,3.352-5.113c3.033-1.16,7.635-2.075,11.995.407a5.233,5.233,0,0,1,2.647,4.459,37.952,37.952,0,0,1-.266,5.308Z" transform="translate(-1509.322 -720.334)" fill="#2e3062"/>
          <g id="Group_955" data-name="Group 955" transform="translate(3.408 15.502)">
            <path id="Path_1341" data-name="Path 1341" d="M1506.631,780.079a8.889,8.889,0,0,0-.127-1.657,1.993,1.993,0,0,0-1.111-1.739,1.305,1.305,0,0,0-1.741.435c-1.154,1.705.119,7.02,2.94,5.794Z" transform="translate(-1503.228 -776.528)" fill="#fda893"/>
            <g id="Group_951" data-name="Group 951" transform="translate(0.928 1.622)">
              <g id="Group_950" data-name="Group 950">
                <g id="Group_949" data-name="Group 949">
                  <path id="Path_1342" data-name="Path 1342" d="M1510.4,788.969a.239.239,0,0,1-.19-.216,3.684,3.684,0,0,0-1.592-2.559.238.238,0,0,1,.254-.4,4.1,4.1,0,0,1,1.814,2.926.239.239,0,0,1-.285.251Z" transform="translate(-1508.509 -785.755)" fill="#fd896b"/>
                </g>
              </g>
            </g>
            <g id="Group_954" data-name="Group 954" transform="translate(1.19 2.811)">
              <g id="Group_953" data-name="Group 953">
                <g id="Group_952" data-name="Group 952">
                  <path id="Path_1343" data-name="Path 1343" d="M1510.189,793.452a.236.236,0,0,1-.119-.063.238.238,0,0,1,0-.337,2.17,2.17,0,0,1,1.019-.53.238.238,0,1,1,.1.465,1.721,1.721,0,0,0-.782.4A.238.238,0,0,1,1510.189,793.452Z" transform="translate(-1509.997 -792.517)" fill="#fd896b"/>
                </g>
              </g>
            </g>
          </g>
        </g>
      </g>
      <g id="Group_960" data-name="Group 960" transform="translate(1183.929 631.602)">
        <path id="Path_1344" data-name="Path 1344" d="M1282.879,1147.181h-3.253l-1.276,5.3h5.812Z" transform="translate(-1268.391 -1115.507)" fill="#ffcf03"/>
        <path id="Path_1345" data-name="Path 1345" d="M1288.469,1152.476h1.677l-1.283-5.3h-3.253a4.812,4.812,0,0,1,2.252.97C1288.382,1148.683,1288.463,1151.169,1288.469,1152.476Z" transform="translate(-1274.376 -1115.507)" fill="#ff9e03"/>
        <path id="Path_1346" data-name="Path 1346" d="M1332.34,1037.375c1.989-1.41,5.579-4.5,4.844-8.033a2,2,0,0,0-3.549-.519,1.893,1.893,0,0,0,.277,2.592.438.438,0,0,1-.6.641,3.18,3.18,0,0,1-.709-.937v-2.283c1.205-2.548,4.92-2.154,5.437.328,1.026,4.926-4.9,8.812-6.259,9.633A7.308,7.308,0,0,0,1332.34,1037.375Z" transform="translate(-1312.432 -1016.538)" fill="#f58500"/>
        <path id="Path_1347" data-name="Path 1347" d="M1247.574,1023.879v.774h16.632v-.774Z" transform="translate(-1243.026 -1013.88)" fill="#ffec03"/>
        <path id="Path_1348" data-name="Path 1348" d="M1267.376,1005.6h-6.746a3.212,3.212,0,0,0-3.213,3.212h13.171A3.212,3.212,0,0,0,1267.376,1005.6Z" transform="translate(-1251.138 -998.819)" fill="#ffcf03"/>
        <path id="Path_1349" data-name="Path 1349" d="M1280.6,995.013h-3.008l-1.862,1.862h6.731Z" transform="translate(-1266.234 -990.089)" fill="#ffec03"/>
        <path id="Path_1350" data-name="Path 1350" d="M1291,988.846v1.084h1.365v-1.084Z" transform="translate(-1278.815 -985.006)" fill="#ff8b00"/>
        <path id="Path_1351" data-name="Path 1351" d="M1291,989.177c.277.052.6.156.683.365a1.58,1.58,0,0,1,.095.389h.588v-1.084H1291Z" transform="translate(-1278.815 -985.006)" fill="#e67d00"/>
        <path id="Path_1352" data-name="Path 1352" d="M1253.305,1028.282v8.1a7.354,7.354,0,0,0,3.327,6.157h7.963a7.353,7.353,0,0,0,3.327-6.157v-8.1Z" transform="translate(-1247.749 -1017.509)" fill="#ffb600"/>
        <path id="Path_1353" data-name="Path 1353" d="M1253.305,1036.386a7.336,7.336,0,0,0,2.116,5.164,11.291,11.291,0,0,0,10.528-13.268h-12.644Z" transform="translate(-1247.749 -1017.509)" fill="#ffb600" opacity="0.49" style="mix-blend-mode: screen;isolation: isolate"/>
        <path id="Path_1354" data-name="Path 1354" d="M1272.231,1109.41l2.363,5.671h3.239l2.36-5.671Z" transform="translate(-1263.348 -1084.376)" fill="#ffcf03"/>
        <path id="Path_1355" data-name="Path 1355" d="M1272.841,1110.874c1.645-.028,3.653.117,4.054.989a6.475,6.475,0,0,1-.034,3.218h.972l2.36-5.671h-7.963Z" transform="translate(-1263.348 -1084.376)" fill="#ff9e03"/>
        <path id="Path_1356" data-name="Path 1356" d="M1286.861,1141.668h-3.234a.448.448,0,0,0-.438.457v.167h4.11v-.167A.448.448,0,0,0,1286.861,1141.668Z" transform="translate(-1272.38 -1110.964)" fill="#ffec03"/>
        <path id="Path_1357" data-name="Path 1357" d="M1283.189,1145.219v.014a.448.448,0,0,0,.438.457h3.234a.448.448,0,0,0,.438-.457v-.014Z" transform="translate(-1272.38 -1113.89)" fill="#ff8b00"/>
        <path id="Path_1358" data-name="Path 1358" d="M1278.687,1177.3h-6.775a.788.788,0,0,0-.789.788h8.352A.788.788,0,0,0,1278.687,1177.3Z" transform="translate(-1262.435 -1140.335)" fill="#ff8b00"/>
        <path id="Path_1359" data-name="Path 1359" d="M1267.594,1181.789H1256.92a1.621,1.621,0,0,0-1.621,1.621h13.916A1.621,1.621,0,0,0,1267.594,1181.789Z" transform="translate(-1249.393 -1144.032)" fill="#893003"/>
        <path id="Path_1360" data-name="Path 1360" d="M1227.519,1037.375c-1.989-1.41-5.579-4.5-4.844-8.033a2,2,0,0,1,3.549-.519,1.892,1.892,0,0,1-.277,2.592.438.438,0,0,0,.6.641,3.187,3.187,0,0,0,.709-.937v-2.283c-1.205-2.548-4.921-2.154-5.437.328-1.026,4.926,4.9,8.812,6.259,9.633A7.317,7.317,0,0,1,1227.519,1037.375Z" transform="translate(-1221.699 -1016.538)" fill="#ff8b00"/>
        <g id="Group_958" data-name="Group 958" transform="translate(19.351 20.415)">
          <path id="Path_1361" data-name="Path 1361" d="M1332.34,1083.559a7.305,7.305,0,0,1-.557,1.421c.173-.1.421-.259.718-.459a7.788,7.788,0,0,0,.413-1.384C1332.713,1083.291,1332.52,1083.432,1332.34,1083.559Z" transform="translate(-1331.783 -1083.137)" fill="#db7700"/>
        </g>
        <path id="Path_1362" data-name="Path 1362" d="M1272.422,1109.871H1280l.192-.461h-7.963Z" transform="translate(-1263.348 -1084.376)" fill="#f08300"/>
        <g id="Group_959" data-name="Group 959" transform="translate(5.246 20.415)">
          <path id="Path_1363" data-name="Path 1363" d="M1251.544,1083.137a7.791,7.791,0,0,0,.413,1.384c.3.2.545.354.719.459a7.307,7.307,0,0,1-.558-1.421C1251.938,1083.432,1251.745,1083.291,1251.544,1083.137Z" transform="translate(-1251.544 -1083.137)" fill="#f08300"/>
        </g>
        <circle id="Ellipse_90" data-name="Ellipse 90" cx="2.099" cy="2.099" r="2.099" transform="translate(10.766 0)" fill="#ff8b00"/>
        <circle id="Ellipse_91" data-name="Ellipse 91" cx="2.007" cy="2.007" r="2.007" transform="translate(10.858 0.092)" fill="#ffcf03"/>
        <circle id="Ellipse_92" data-name="Ellipse 92" cx="1.268" cy="1.268" r="1.268" transform="translate(11.596 0.83)" fill="#ffec03"/>
        <path id="Path_1364" data-name="Path 1364" d="M1288.105,970.648c0-.022,0-.061-.007-.225a.293.293,0,0,0,.231.181.3.3,0,0,0-.253-.291,1.561,1.561,0,0,0-.039-.155.314.314,0,0,0,.237.113.3.3,0,0,0-.285-.247,1.516,1.516,0,0,0-.076-.16.31.31,0,0,0,.265.094.337.337,0,0,0-.126-.164.33.33,0,0,0-.2-.039,1.572,1.572,0,0,0-.112-.15.315.315,0,0,0,.261.017.3.3,0,0,0-.36-.124,1.562,1.562,0,0,0-.163-.14.314.314,0,0,0,.261-.046.3.3,0,0,0-.378-.034,1.586,1.586,0,0,0-.147-.08.318.318,0,0,0,.225-.1.3.3,0,0,0-.373.034,1.6,1.6,0,0,0-.216-.06.3.3,0,0,0,.241-.153.3.3,0,0,0-.36.133,1.6,1.6,0,0,0-.174-.012.3.3,0,0,0,.2-.187.3.3,0,0,0-.335.19c-.038,0-.076.007-.113.012a.332.332,0,0,0,.1-.194.3.3,0,0,0-.276.229,1.531,1.531,0,0,0-.177.058.325.325,0,0,0,.062-.224.3.3,0,0,0-.214.293,1.586,1.586,0,0,0-.155.092.323.323,0,0,0,.007-.234.3.3,0,0,0-.138.333q-.046.039-.089.08a.339.339,0,0,0-.037-.2.3.3,0,0,0-.088.339q-.048.06-.091.124a.338.338,0,0,0-.077-.2.3.3,0,0,0-.016.355,1.58,1.58,0,0,0-.073.17.319.319,0,0,0-.125-.192.3.3,0,0,0,.075.355,1.623,1.623,0,0,0-.033.18.321.321,0,0,0-.172-.165.3.3,0,0,0,.16.326c0,.04,0,.082,0,.125a.337.337,0,0,0-.181-.113.3.3,0,0,0,.2.294c.008.044.017.087.029.129a.317.317,0,0,0-.219-.117.3.3,0,0,0,.268.268,1.571,1.571,0,0,0,.073.164.278.278,0,1,0,.069.12,2.255,2.255,0,0,0,.134.185.294.294,0,0,0-.292-.029.3.3,0,0,0,.369.111,1.511,1.511,0,0,0,.125.113.281.281,0,1,0,.109.082,1.525,1.525,0,0,0,.135.082.382.382,0,0,0,.033.025.294.294,0,0,0-.281.082.338.338,0,0,0,.2.054.316.316,0,0,0,.186-.094,1.543,1.543,0,0,0,.163.059.307.307,0,0,0,.053.025.294.294,0,0,0-.255.145.338.338,0,0,0,.207.006.31.31,0,0,0,.159-.136,1.644,1.644,0,0,0,.183.022.3.3,0,0,0,.042.007.294.294,0,0,0-.212.2.3.3,0,0,0,.323-.207q.075,0,.148-.012a.314.314,0,0,0-.133.212.3.3,0,0,0,.283-.238,1.575,1.575,0,0,0,.258-.082.316.316,0,0,0-.088.242.3.3,0,0,0,.221-.306,1.5,1.5,0,0,0,.2-.127.294.294,0,0,0-.052.288.3.3,0,0,0,.14-.359c.075-.065.1-.1.162-.157a.3.3,0,0,0,.019.293.3.3,0,0,0,.05-.382c.031-.042.061-.085.088-.13a.316.316,0,0,0,.075.249.3.3,0,0,0,0-.377,1.546,1.546,0,0,0,.075-.181.3.3,0,0,0,.123.242.3.3,0,0,0-.085-.372c.029-.116.026-.147.042-.23a.294.294,0,0,0,.18.231.338.338,0,0,0-.023-.206A.331.331,0,0,0,1288.105,970.648Zm-.025.011a.292.292,0,0,0-.173.321.345.345,0,0,0,.154-.116q-.01.064-.026.126a.3.3,0,0,0-.252.272.337.337,0,0,0,.2-.1c-.016.043-.035.085-.055.126a.3.3,0,0,0-.308.217.327.327,0,0,0,.221-.063q-.035.056-.075.108a.3.3,0,0,0-.328.167.346.346,0,0,0,.188-.008q-.042.042-.088.082a.3.3,0,0,0-.358.083.342.342,0,0,0,.2.036q-.057.037-.117.069a.3.3,0,0,0-.375-.01.323.323,0,0,0,.219.082,1.528,1.528,0,0,1-.223.07.333.333,0,0,0-.163-.119.339.339,0,0,0-.206.017.318.318,0,0,0,.2.131c-.047.006-.1.009-.143.01a.3.3,0,0,0-.339-.143.35.35,0,0,0,.118.134c-.038,0-.075-.01-.113-.018a.293.293,0,0,0-.291-.213.351.351,0,0,0,.08.156q-.056-.019-.109-.042a.293.293,0,0,0-.233-.276.346.346,0,0,0,.047.18c-.026-.016-.05-.031-.075-.048a.3.3,0,0,0-.165-.332.332.332,0,0,0,.021.22q-.046-.04-.089-.084a.3.3,0,0,0-.112-.35.345.345,0,0,0-.022.193c-.025-.033-.048-.067-.07-.1a.3.3,0,0,0-.02-.371.329.329,0,0,0-.067.212c-.018-.038-.035-.078-.05-.118a.3.3,0,0,0,.069-.367.312.312,0,0,0-.118.216c-.01-.036-.018-.073-.025-.111a.289.289,0,0,0,.144-.154.336.336,0,0,0,0-.207.3.3,0,0,0-.151.251c0-.01-.007-.02-.011-.03a1.448,1.448,0,0,1-.007-.163.325.325,0,0,0,.16-.133.337.337,0,0,0,.031-.2.308.308,0,0,0-.183.2,1.546,1.546,0,0,1,.033-.2.323.323,0,0,0,.188-.089.338.338,0,0,0,.08-.191.3.3,0,0,0-.237.172,1.454,1.454,0,0,1,.087-.219.282.282,0,0,0,.209-.036.337.337,0,0,0,.123-.167.305.305,0,0,0-.271.111.291.291,0,0,0,.01-.036,1.588,1.588,0,0,1,.107-.153.268.268,0,0,0,.215.012.339.339,0,0,0,.153-.139.3.3,0,0,0-.288.055.311.311,0,0,0,.021-.042c.035-.036.072-.071.11-.1a.3.3,0,0,0,.207.035.338.338,0,0,0,.173-.113.3.3,0,0,0-.285,0,1.529,1.529,0,0,1,.184-.115.324.324,0,0,0,.192.08.338.338,0,0,0,.2-.068.3.3,0,0,0-.278-.065,1.568,1.568,0,0,1,.213-.075.3.3,0,0,0,.167.128.337.337,0,0,0,.206-.02.3.3,0,0,0-.263-.128l.02-.009a1.579,1.579,0,0,1,.174-.021.3.3,0,0,0,.331.161.334.334,0,0,0-.149-.162c.04,0,.081.006.12.011a.3.3,0,0,0,.3.213.339.339,0,0,0-.11-.175h0q.065.017.128.04a.3.3,0,0,0,.241.291.311.311,0,0,0-.1-.232,1.527,1.527,0,0,1,.152.083.3.3,0,0,0,.183.326.324.324,0,0,0-.036-.223,1.618,1.618,0,0,1,.129.114.3.3,0,0,0,.1.359.328.328,0,0,0,.017-.23,1.583,1.583,0,0,1,.094.13.292.292,0,0,0,.017.364.337.337,0,0,0,.072-.207c.016.033.031.066.045.1a.3.3,0,0,0-.042.373.324.324,0,0,0,.1-.2c.011.041.021.083.029.125a.3.3,0,0,0-.092.354.349.349,0,0,0,.117-.139C1288.081,970.582,1288.081,970.62,1288.08,970.659Z" transform="translate(-1273.689 -968.525)" fill="#ff8b00"/>
        <path id="Path_1365" data-name="Path 1365" d="M1260.145,1042.294a4.346,4.346,0,0,0,1.185,2.485,4.4,4.4,0,0,1-1.321-2.462,74.93,74.93,0,0,1-.231-8.481.277.277,0,1,1,.553.02A75.022,75.022,0,0,0,1260.145,1042.294Z" transform="translate(-1253.071 -1021.862)" fill="#f9c569" style="mix-blend-mode: screen;isolation: isolate"/>
        <path id="Path_1366" data-name="Path 1366" d="M1262.137,1009.367a1.79,1.79,0,0,1,1.412-.885c1.1-.1,4.883.048,5.995.092-1.091-.009-4.891-.037-5.973.1-.088.01-.169.034-.254.05s-.161.057-.241.084a2.066,2.066,0,0,0-1.03,1.669.138.138,0,1,1-.276-.024A2.752,2.752,0,0,1,1262.137,1009.367Z" transform="translate(-1254.724 -1001.161)" fill="#f9c569" style="mix-blend-mode: screen;isolation: isolate"/>
      </g>
      <g id="Group_961" data-name="Group 961" transform="translate(1241.025 616.566)">
        <path id="Path_1367" data-name="Path 1367" d="M1554.811,935.589l-3.744,7.788-4.566-8.2,1.987-24.616.107-1.189,1.434-.112.1,1.617Z" transform="translate(-1546.501 -904.372)" fill="#fff"/>
        <path id="Path_1368" data-name="Path 1368" d="M1559.319,917.746l-1.035.849-.9-1.124.107-1.188,1.582-.124Z" transform="translate(-1555.469 -910.06)" fill="#ededed"/>
        <path id="Path_1369" data-name="Path 1369" d="M1548.955,884.459l2.169,5.01,4.423-5.236-3.472-2.767Z" transform="translate(-1548.523 -881.467)" fill="#fff"/>
      </g>
      <path id="Path_1370" data-name="Path 1370" d="M1530,847.049l-1.011.715a8.158,8.158,0,0,0-.712.491,1.781,1.781,0,0,0-.833,1.938,2.336,2.336,0,0,0,.073.4h0l1.14,7.9,5.472-5.28S1530.6,850.616,1530,847.049Z" transform="translate(-289.747 -236.533)" fill="#7742ca"/>
      <path id="Path_1371" data-name="Path 1371" d="M1570.371,847.049s3.993,1.66,3.909,4.18l-1.213,6.536L1566.7,853.1S1570.623,850.275,1570.371,847.049Z" transform="translate(-322.128 -236.533)" fill="#7742ca"/>
    </g>
  </g>
</svg>
