<svg id="noun_Bank_2125059" xmlns="http://www.w3.org/2000/svg" width="31.658" height="29.663" viewBox="0 0 31.658 29.663">
  <path id="Path_1393" data-name="Path 1393" d="M36.159,16.5,21.324,7.965a1.014,1.014,0,0,0-.992,0L5.5,16.5a1,1,0,0,0-.5.862v1.131a1,1,0,0,0,.995.995H8.61V31.015H7.694a.778.778,0,0,0-.777.777v2.072H5.964a.777.777,0,0,0-.777.777v2.081a.778.778,0,0,0,.777.777h29.73a.777.777,0,0,0,.776-.777V34.64a.777.777,0,0,0-.776-.777h-.953V31.792a.777.777,0,0,0-.777-.777h-.916V19.486h2.616a1,1,0,0,0,.994-.995V17.36A1,1,0,0,0,36.159,16.5Zm-.71,18.387v1.592H6.208V34.885Zm-1.73-2.849v1.828H7.938V32.036H9.631V19.486h22.4v12.55Zm1.918-13.571H6.02l-.013-1.081L20.815,8.85l14.821,8.51v1.1Z" transform="translate(-5 -7.835)" fill="#6937c7"/>
  <path id="Path_1394" data-name="Path 1394" d="M42.016,20.811A2.808,2.808,0,1,0,44.824,18,2.812,2.812,0,0,0,42.016,20.811Zm2.808-1.787a1.787,1.787,0,1,1-1.787,1.787A1.789,1.789,0,0,1,44.824,19.024Z" transform="translate(-28.996 -14.426)" fill="#6937c7"/>
  <path id="Path_1395" data-name="Path 1395" d="M58.017,45.636a3.042,3.042,0,0,0-3.039,3.038V56.54h6.077V48.674A3.04,3.04,0,0,0,58.017,45.636Zm2.018,9.883H56V48.674a2.017,2.017,0,1,1,4.035,0v6.845Z" transform="translate(-37.398 -32.339)" fill="#6937c7"/>
  <path id="Path_1396" data-name="Path 1396" d="M30.782,45.636a3.042,3.042,0,0,0-3.039,3.038V56.54h6.078V48.674A3.042,3.042,0,0,0,30.782,45.636ZM32.8,55.519H28.764V48.674a2.017,2.017,0,0,1,4.035,0v6.845Z" transform="translate(-19.743 -32.339)" fill="#6937c7"/>
</svg>
