<svg xmlns="http://www.w3.org/2000/svg" width="25.623" height="27.709" viewBox="0 0 25.623 27.709">
  <g id="noun_profile_3465527" transform="translate(-22.027 -19.5)">
    <g id="Group_226" data-name="Group 226" transform="translate(22.027 19.5)">
      <path id="Path_407" data-name="Path 407" d="M22.943,64.839a.916.916,0,0,0,.916-.916c0-5.831,4.618-10.064,10.98-10.064,6.024,0,10.484,3.794,10.941,9.148H26.595a.916.916,0,1,0,0,1.832H46.734a.916.916,0,0,0,.916-.916c0-6.782-5.507-11.9-12.812-11.9s-12.812,5.114-12.812,11.9A.916.916,0,0,0,22.943,64.839Z" transform="translate(-22.027 -37.13)" fill="#6937c7"/>
      <path id="Path_408" data-name="Path 408" d="M41.958,31.259a4.924,4.924,0,0,1-3.985-2,.916.916,0,0,0-1.47,1.095A6.8,6.8,0,1,0,35.162,26.3a.916.916,0,1,0,1.832,0,4.964,4.964,0,1,1,4.964,4.964Z" transform="translate(-29.146 -19.5)" fill="#6937c7"/>
    </g>
  </g>
</svg>
