<svg xmlns="http://www.w3.org/2000/svg" width="22.4" height="22.4" viewBox="0 0 22.4 22.4">
  <g id="date" transform="translate(-2 -1.1)">
    <g id="Group_70" data-name="Group 70" transform="translate(2 1.1)">
      <g id="Group_69" data-name="Group 69">
        <path id="Path_319" data-name="Path 319" d="M19.775,1.75h-1.05V0h-1.75V1.75H5.425V0H3.675V1.75H2.625A2.628,2.628,0,0,0,0,4.375v15.4A2.628,2.628,0,0,0,2.625,22.4h17.15A2.628,2.628,0,0,0,22.4,19.775V4.375A2.628,2.628,0,0,0,19.775,1.75Zm.875,18.025a.876.876,0,0,1-.875.875H2.625a.876.876,0,0,1-.875-.875V8.225h18.9Zm0-13.3H1.75v-2.1A.876.876,0,0,1,2.625,3.5h1.05V5.25h1.75V3.5h11.55V5.25h1.75V3.5h1.05a.876.876,0,0,1,.875.875Z" fill="#522cc5"/>
      </g>
    </g>
    <g id="Group_72" data-name="Group 72" transform="translate(3.658 10.698)">
      <g id="Group_71" data-name="Group 71" transform="translate(0 0)">
        <rect id="Rectangle_149" data-name="Rectangle 149" width="1" height="2" transform="translate(0.342 -0.198)" fill="#522cc5"/>
      </g>
    </g>
    <g id="Group_74" data-name="Group 74" transform="translate(7.315 10.698)">
      <g id="Group_73" data-name="Group 73" transform="translate(0 0)">
        <rect id="Rectangle_150" data-name="Rectangle 150" width="2" height="2" transform="translate(-0.315 -0.198)" fill="#522cc5"/>
      </g>
    </g>
    <g id="Group_76" data-name="Group 76" transform="translate(10.058 10.698)">
      <g id="Group_75" data-name="Group 75" transform="translate(0 0)">
        <rect id="Rectangle_151" data-name="Rectangle 151" width="3" height="2" transform="translate(-0.058 -0.198)" fill="#522cc5"/>
      </g>
    </g>
    <g id="Group_78" data-name="Group 78" transform="translate(14.63 10.698)">
      <g id="Group_77" data-name="Group 77" transform="translate(0 0)">
        <rect id="Rectangle_152" data-name="Rectangle 152" width="1" height="2" transform="translate(0.37 -0.198)" fill="#522cc5"/>
      </g>
    </g>
    <g id="Group_80" data-name="Group 80" transform="translate(18.288 10.698)">
      <g id="Group_79" data-name="Group 79" transform="translate(0 0)">
        <rect id="Rectangle_153" data-name="Rectangle 153" width="2" height="2" transform="translate(-0.288 -0.198)" fill="#522cc5"/>
      </g>
    </g>
    <g id="Group_82" data-name="Group 82" transform="translate(3.658 14.356)">
      <g id="Group_81" data-name="Group 81" transform="translate(0 0)">
        <rect id="Rectangle_154" data-name="Rectangle 154" width="1" height="1" transform="translate(0.342 0.144)" fill="#522cc5"/>
      </g>
    </g>
    <g id="Group_84" data-name="Group 84" transform="translate(7.315 14.356)">
      <g id="Group_83" data-name="Group 83" transform="translate(0 0)">
        <rect id="Rectangle_155" data-name="Rectangle 155" width="2" height="1" transform="translate(-0.315 0.144)" fill="#522cc5"/>
      </g>
    </g>
    <g id="Group_86" data-name="Group 86" transform="translate(10.058 14.356)">
      <g id="Group_85" data-name="Group 85" transform="translate(0 0)">
        <rect id="Rectangle_156" data-name="Rectangle 156" width="3" height="1" transform="translate(-0.058 0.144)" fill="#522cc5"/>
      </g>
    </g>
    <g id="Group_88" data-name="Group 88" transform="translate(14.63 14.356)">
      <g id="Group_87" data-name="Group 87" transform="translate(0 0)">
        <rect id="Rectangle_157" data-name="Rectangle 157" width="1" height="1" transform="translate(0.37 0.144)" fill="#522cc5"/>
      </g>
    </g>
    <g id="Group_90" data-name="Group 90" transform="translate(3.658 17.099)">
      <g id="Group_89" data-name="Group 89" transform="translate(0 0)">
        <rect id="Rectangle_158" data-name="Rectangle 158" width="1" height="2" transform="translate(0.342 0.401)" fill="#522cc5"/>
      </g>
    </g>
    <g id="Group_92" data-name="Group 92" transform="translate(7.315 17.099)">
      <g id="Group_91" data-name="Group 91" transform="translate(0 0)">
        <rect id="Rectangle_159" data-name="Rectangle 159" width="2" height="2" transform="translate(-0.315 0.401)" fill="#522cc5"/>
      </g>
    </g>
    <g id="Group_94" data-name="Group 94" transform="translate(10.058 17.099)">
      <g id="Group_93" data-name="Group 93" transform="translate(0 0)">
        <rect id="Rectangle_160" data-name="Rectangle 160" width="3" height="2" transform="translate(-0.058 0.401)" fill="#522cc5"/>
      </g>
    </g>
    <g id="Group_96" data-name="Group 96" transform="translate(14.63 17.099)">
      <g id="Group_95" data-name="Group 95" transform="translate(0 0)">
        <rect id="Rectangle_161" data-name="Rectangle 161" width="1" height="2" transform="translate(0.37 0.401)" fill="#522cc5"/>
      </g>
    </g>
    <g id="Group_98" data-name="Group 98" transform="translate(18.288 14.356)">
      <g id="Group_97" data-name="Group 97" transform="translate(0 0)">
        <rect id="Rectangle_162" data-name="Rectangle 162" width="2" height="1" transform="translate(-0.288 0.144)" fill="#522cc5"/>
      </g>
    </g>
  </g>
</svg>
