<svg id="noun_equities_2447935" xmlns="http://www.w3.org/2000/svg" width="32.067" height="32.067" viewBox="0 0 32.067 32.067">
  <g id="Group_998" data-name="Group 998" transform="translate(0 0)">
    <path id="Path_1397" data-name="Path 1397" d="M2.534,34.066H14.826V33H3.069V7.879H4.138V29.256a.534.534,0,0,0,.534.534,1.6,1.6,0,0,1,1.6,1.6.534.534,0,0,0,.534.534h8.017V30.86H7.291a2.668,2.668,0,0,0-2.084-2.084V7.879H7.344a.534.534,0,0,0,.534-.534V5.207H20.224a2.668,2.668,0,0,0,2.084,2.084v5.4h1.069V6.81a.534.534,0,0,0-.534-.534,1.6,1.6,0,0,1-1.6-1.6.534.534,0,0,0-.534-.534H7.879V3.069H24.446v9.62h1.069V2.534A.534.534,0,0,0,24.981,2H7.612a1.122,1.122,0,0,0-.157.017.527.527,0,0,0-.488.139l-.192.192L2.349,6.774l-.192.192a.529.529,0,0,0-.139.487A1.136,1.136,0,0,0,2,7.612v25.92A.534.534,0,0,0,2.534,34.066ZM3.826,6.81,6.81,3.83V6.81Z" transform="translate(-2 -2)" fill="#6937c7"/>
    <rect id="Rectangle_560" data-name="Rectangle 560" width="1" transform="translate(21 1.924)" fill="#6937c7"/>
    <rect id="Rectangle_561" data-name="Rectangle 561" width="1" height="1" transform="translate(2 28.924)" fill="#6937c7"/>
    <rect id="Rectangle_562" data-name="Rectangle 562" width="2" height="1" transform="translate(5 15.924)" fill="#6937c7"/>
    <rect id="Rectangle_575" data-name="Rectangle 575" width="2" height="1" transform="translate(5 7.924)" fill="#6937c7"/>
    <rect id="Rectangle_563" data-name="Rectangle 563" width="2" height="1" transform="translate(9 15.924)" fill="#6937c7"/>
    <rect id="Rectangle_574" data-name="Rectangle 574" width="2" height="1" transform="translate(9 7.924)" fill="#6937c7"/>
    <rect id="Rectangle_564" data-name="Rectangle 564" width="6" height="1" transform="translate(5 17.924)" fill="#6937c7"/>
    <rect id="Rectangle_565" data-name="Rectangle 565" width="5" height="1" transform="translate(5 20.924)" fill="#6937c7"/>
    <rect id="Rectangle_566" data-name="Rectangle 566" width="1" height="1" transform="translate(10 20.924)" fill="#6937c7"/>
    <rect id="Rectangle_567" data-name="Rectangle 567" width="6" height="1" transform="translate(5 21.924)" fill="#6937c7"/>
    <rect id="Rectangle_568" data-name="Rectangle 568" width="2" height="1" transform="translate(12 21.924)" fill="#6937c7"/>
    <rect id="Rectangle_569" data-name="Rectangle 569" width="2" height="1" transform="translate(12 20.924)" fill="#6937c7"/>
    <rect id="Rectangle_570" data-name="Rectangle 570" width="2" height="1" transform="translate(12 17.924)" fill="#6937c7"/>
    <rect id="Rectangle_571" data-name="Rectangle 571" width="4" height="1" transform="translate(12 15.924)" fill="#6937c7"/>
    <rect id="Rectangle_573" data-name="Rectangle 573" width="4" height="1" transform="translate(12 7.924)" fill="#6937c7"/>
    <path id="Path_1399" data-name="Path 1399" d="M22.6,48a1.6,1.6,0,1,0,1.6,1.6A1.6,1.6,0,0,0,22.6,48Zm0,2.138a.534.534,0,1,1,.534-.534A.534.534,0,0,1,22.6,50.138Z" transform="translate(-10.846 -23.416)" fill="#6937c7"/>
    <rect id="Rectangle_572" data-name="Rectangle 572" width="4" height="1" transform="translate(6 24.924)" fill="#6937c7"/>
    <path id="Path_1400" data-name="Path 1400" d="M45.1,40.881v-7.8a5.888,5.888,0,0,0-5.044-5.819l1.25-2.493A.534.534,0,0,0,40.826,24H33.344a.534.534,0,0,0-.481.773l1.246,2.493a5.888,5.888,0,0,0-5.041,5.819v7.8l-.58.58a1.669,1.669,0,0,0,1.176,2.849H44.507a1.669,1.669,0,0,0,1.176-2.849Zm-.6,2.359H29.665a.6.6,0,0,1-.42-1.024l.736-.736a.534.534,0,0,0,.157-.377V33.085a4.816,4.816,0,0,1,4.81-4.81.534.534,0,0,0,.481-.773l-1.22-2.433h5.753L38.745,27.5a.534.534,0,0,0,.478.773,4.816,4.816,0,0,1,4.81,4.81V41.1a.534.534,0,0,0,.157.378l.737.737a.6.6,0,0,1-.42,1.023Z" transform="translate(-14.105 -12.242)" fill="#6937c7"/>
    <path id="Path_1401" data-name="Path 1401" d="M43.474,40.741h-1.6a.8.8,0,1,1,0-1.6H44.81V38.069h-1.6V37H42.138v1.069h-.267a1.871,1.871,0,1,0,0,3.741h1.6a.8.8,0,0,1,0,1.6H40.534v1.069h1.6v1.069h1.069V44.482h.267a1.871,1.871,0,1,0,0-3.741Z" transform="translate(-19.691 -18.295)" fill="#6937c7"/>
  </g>
</svg>
