<svg xmlns="http://www.w3.org/2000/svg" width="30.956" height="30.232" viewBox="0 0 30.956 30.232">
  <g id="_2618517" data-name="2618517" transform="translate(0 -5.985)">
    <path id="Path_433" data-name="Path 433" d="M277.277,262.367v0a.6.6,0,0,0-1.095,0l-3.693,7.921a.6.6,0,1,0,1.1.511l1.153-2.474h3.983l1.153,2.473a.6.6,0,0,0,1.1-.511Zm-1.976,4.749,1.428-3.063,1.427,3.063Z" transform="translate(-255.96 -240.553)" fill="#6937c7"/>
    <path id="Path_434" data-name="Path 434" d="M30.927,35.426l-1.662-5.15a9.575,9.575,0,0,0,.906-5.574,9.5,9.5,0,0,0-10.558-8.095,9.444,9.444,0,0,0-.981-5.468.6.6,0,0,0-1.075.553A8.289,8.289,0,0,1,6.28,22.791a.605.605,0,0,0-.471-.042L1.543,24.124l1.376-4.267a.6.6,0,0,0-.042-.471,8.343,8.343,0,0,1,1.45-9.764,8.258,8.258,0,0,1,9.652-1.51.6.6,0,0,0,.554-1.075A9.5,9.5,0,0,0,.784,14.152a9.583,9.583,0,0,0,.906,5.574L.03,24.876a.6.6,0,0,0,.761.761l5.15-1.661a9.585,9.585,0,0,0,5.4.928,9.5,9.5,0,0,0,8.1,10.528,9.584,9.584,0,0,0,5.574-.906l5.151,1.661a.6.6,0,0,0,.761-.761ZM25.147,33.3a.6.6,0,0,0-.471.042A8.287,8.287,0,0,1,12.6,24.665a9.506,9.506,0,0,0,6.779-6.8,8.286,8.286,0,0,1,8.7,12.073.6.6,0,0,0-.042.471l1.377,4.267Z" transform="translate(0 0)" fill="#6937c7"/>
    <path id="Path_435" data-name="Path 435" d="M93.359,83.183a4.71,4.71,0,1,0-1.836,3.725l1.537,1.537a.6.6,0,0,0,.855-.855l-1.537-1.537A4.678,4.678,0,0,0,93.359,83.183Zm-1.845,2.006-1.421-1.421a.6.6,0,0,0-.855.855l1.421,1.421a3.5,3.5,0,1,1,.856-.855Z" transform="translate(-78.875 -68.11)" fill="#6937c7"/>
    <path id="Path_436" data-name="Path 436" d="M263.188,48.688a.6.6,0,0,0,.431-1.029l0,0a.6.6,0,1,0-.429,1.03Z" transform="translate(-246.706 -38.984)" fill="#6937c7"/>
  </g>
</svg>
