<svg id="noun_education_3410347" xmlns="http://www.w3.org/2000/svg" width="37.574" height="38.756" viewBox="0 0 37.574 38.756">
  <path id="Path_284" data-name="Path 284" d="M84.221,65.887,65.152,41.913a.63.63,0,0,0-.247-.182,4.48,4.48,0,0,0-3.88-1.173,8.309,8.309,0,0,0-.837.27.645.645,0,0,0-.4.451.637.637,0,0,0,.148.581l4,4.433c-.1.207-.216.413-.34.617l-1.845-2.523c-.005-.007-.013-.01-.019-.017s-.005-.012-.009-.017c-1-1.2-3.023-1.085-4.91.272a5.957,5.957,0,0,0-2.527,3.789,2.771,2.771,0,0,0,.51,2.157l.011.011,0,0L57.8,54.161l-10.01-1.737a.652.652,0,0,0-.666.311.645.645,0,0,0,.058.731l4.482,5.461-3.65,6.332a.6.6,0,0,0-.029.087c-1.108,2.109,1.215,5.591,5.368,7.985a14.6,14.6,0,0,0,5.709,1.976c.254.024.5.035.735.035a3.542,3.542,0,0,0,3.1-1.3c.026-.03.062-.046.082-.081l3.751-6.508,3.048.444-2.561,4.443a3.058,3.058,0,0,0-2.974,1.734c-.774,1.344-.308,4.281-.253,4.612a.64.64,0,0,0,.348.469.653.653,0,0,0,.286.068.644.644,0,0,0,.3-.074c.27-.141,2.648-1.417,3.4-2.725a3.055,3.055,0,0,0,.009-3.441l2.121-3.68,3.817,4.568a2.185,2.185,0,0,0,1.775.716,9.043,9.043,0,0,0,5.15-2.273C84.024,70.044,85.324,67.283,84.221,65.887ZM61.582,41.759c.989-.088,2.477.589,2.734,1.345a3.624,3.624,0,0,1,.088,1.783Zm-1.564,8.292L59.2,49.2a4.1,4.1,0,0,0,1.549-.781,4.2,4.2,0,0,0,1.188-1.6L62.8,48a8.846,8.846,0,0,1-1.049,1.042A6.7,6.7,0,0,1,60.018,50.052Zm-4.456-1.458a4.728,4.728,0,0,1,2-2.924c1.27-.915,2.635-1.122,3.171-.492l.009.012a.876.876,0,0,1,.159.628,2.762,2.762,0,0,1-2.636,2.231c-.1-.009-.163-.025-.2-.028l-.033-.034a3.133,3.133,0,0,1,1.053-1.409.642.642,0,0,0-.819-.989c-.745.617-1.9,1.976-1.384,2.964a.635.635,0,0,0,.052.1,1.051,1.051,0,0,0,.052.1c.006.007.016.01.022.017s.009.018.016.025l1.607,1.673a4.655,4.655,0,0,1-1.236.054,2.293,2.293,0,0,1-1.584-.744A1.549,1.549,0,0,1,55.562,48.594ZM63.2,56.4l8.426,10.462L58.246,64.919l-5.288-6.444h0l-3.682-4.487Zm-1.3,16.862c-.355.608-1.34.891-2.714.761A13.284,13.284,0,0,1,54,72.216c-3.761-2.168-5.581-5.065-4.867-6.313h0l3.408-5.913,4.872,5.936a.639.639,0,0,0,.405.228l7.545,1.1Zm5.315,2.516v0a6.824,6.824,0,0,1-2.067,1.753,6.041,6.041,0,0,1,.217-2.821,2.01,2.01,0,0,1,1.523-1.129.622.622,0,0,1,.315.077C67.635,73.916,67.748,74.847,67.209,75.781Zm13.184-4.472c-2.417,1.942-4.651,2.334-5.13,1.742l-4.072-4.872a.6.6,0,0,0-.062-.05l.02-.034,1.911.278a.635.635,0,0,0,.093.008.643.643,0,0,0,.5-1.047L64.047,55.408a.646.646,0,0,0-.391-.231l-3.9-.676-2.249-2.692c.108.006.215.017.326.017a6.909,6.909,0,0,0,2.138-.382.619.619,0,0,0,.161-.046,8.015,8.015,0,0,0,2.438-1.37,9.291,9.291,0,0,0,2.659-3.519.626.626,0,0,0,.088-.224,6.469,6.469,0,0,0,.38-1.614L83.213,66.686C83.679,67.275,82.812,69.369,80.394,71.309Z" transform="translate(-47.038 -40.466)" fill="#522bc5"/>
</svg>
