<svg id="noun_industry_investment_2572817" data-name="noun_industry investment_2572817" xmlns="http://www.w3.org/2000/svg" width="30.928" height="34.862" viewBox="0 0 30.928 34.862">
  <g id="Group_113" data-name="Group 113" transform="translate(0 0)">
    <g id="Group_112" data-name="Group 112">
      <path id="Path_285" data-name="Path 285" d="M154.615,247.452h-2.944a.508.508,0,0,1-.508-.508v-1.02l-.1-.043-.723.722a.508.508,0,0,1-.717,0l-2.081-2.082a.508.508,0,0,1,0-.717l.722-.722c-.015-.035-.029-.069-.043-.1H147.2a.508.508,0,0,1-.508-.508v-2.941a.508.508,0,0,1,.508-.508h1.021l.043-.1-.722-.723a.508.508,0,0,1,0-.717l2.081-2.081a.508.508,0,0,1,.717,0l.723.722.1-.043v-1.017a.508.508,0,0,1,.508-.508h2.944a.508.508,0,0,1,.508.508v1.017l.1.043.723-.722a.508.508,0,0,1,.717,0l2.08,2.083a.508.508,0,0,1,0,.717l-.722.723c.015.034.029.069.043.1h1.018a.508.508,0,0,1,.508.508v2.938a.508.508,0,0,1-.508.508h-1.017l-.043.1.722.722a.508.508,0,0,1,0,.717l-2.085,2.084a.508.508,0,0,1-.717,0l-.723-.722-.1.043v1.021A.508.508,0,0,1,154.615,247.452Zm-2.437-1.017h1.93v-.866a.508.508,0,0,1,.353-.483,4.278,4.278,0,0,0,.641-.268.509.509,0,0,1,.593.093l.616.616,1.36-1.365-.617-.615a.508.508,0,0,1-.092-.593,4.324,4.324,0,0,0,.268-.641.508.508,0,0,1,.482-.352h.868v-1.927h-.867a.508.508,0,0,1-.482-.352,4.326,4.326,0,0,0-.268-.641.508.508,0,0,1,.092-.593l.616-.616-1.365-1.364-.616.616a.508.508,0,0,1-.593.092,4.243,4.243,0,0,0-.64-.267.509.509,0,0,1-.353-.483v-.866h-1.926v.869a.508.508,0,0,1-.352.483,4.245,4.245,0,0,0-.64.267.508.508,0,0,1-.593-.092l-.616-.616-1.365,1.364.616.616a.508.508,0,0,1,.092.593,4.324,4.324,0,0,0-.268.641.508.508,0,0,1-.482.352h-.865v1.93h.868a.508.508,0,0,1,.482.352,4.322,4.322,0,0,0,.268.641.508.508,0,0,1-.092.593l-.616.609,1.365,1.365.616-.616a.508.508,0,0,1,.593-.093,4.33,4.33,0,0,0,.641.268.508.508,0,0,1,.352.483Z" transform="translate(-134.26 -214.736)" fill="#522bc5"/>
      <path id="Path_286" data-name="Path 286" d="M190.816,281.641a2.966,2.966,0,1,1,2.966-2.966A2.966,2.966,0,0,1,190.816,281.641Zm0-4.923a1.955,1.955,0,1,0,1.955,1.955A1.955,1.955,0,0,0,190.816,276.718Z" transform="translate(-171.933 -252.408)" fill="#522bc5"/>
      <path id="Path_287" data-name="Path 287" d="M101.866,161.1a.508.508,0,0,1-.508-.508V144.053L97.466,138.7a.508.508,0,1,1,.819-.593l3.988,5.484a.509.509,0,0,1,.1.3v16.7A.508.508,0,0,1,101.866,161.1Z" transform="translate(-89.089 -126.235)" fill="#522bc5"/>
      <path id="Path_288" data-name="Path 288" d="M200.328,147.713a.508.508,0,0,1-.508-.508v-3.4a.509.509,0,0,1,.1-.3l3.988-5.484a.508.508,0,1,1,.819.593l-3.889,5.359v3.235A.508.508,0,0,1,200.328,147.713Z" transform="translate(-182.889 -126.152)" fill="#522bc5"/>
      <path id="Path_289" data-name="Path 289" d="M105.261,401.017H91.508a.508.508,0,1,1,0-1.017h13.752a.508.508,0,1,1,0,1.017Z" transform="translate(-83.289 -366.167)" fill="#522bc5"/>
      <path id="Path_290" data-name="Path 290" d="M124.417,109.04a.508.508,0,0,1-.413-.214l-2.906-4.094a.508.508,0,1,1,.826-.587l1.987,2.8v-3.7a.508.508,0,1,1,1.017,0v5.295a.509.509,0,0,1-.352.483A.518.518,0,0,1,124.417,109.04Z" transform="translate(-110.727 -94.085)" fill="#522bc5"/>
      <path id="Path_291" data-name="Path 291" d="M189.2,109.04a.518.518,0,0,1-.154-.024.508.508,0,0,1-.352-.483v-5.295a.508.508,0,1,1,1.017,0v3.705l1.987-2.8a.508.508,0,1,1,.826.587l-2.906,4.094A.508.508,0,0,1,189.2,109.04Z" transform="translate(-172.702 -94.085)" fill="#522bc5"/>
      <path id="Path_292" data-name="Path 292" d="M126.06,10.37a4.83,4.83,0,1,1,3.415-1.415A4.83,4.83,0,0,1,126.06,10.37Zm0-8.643a3.813,3.813,0,1,0,3.813,3.813,3.813,3.813,0,0,0-3.813-3.813Z" transform="translate(-110.958 -0.71)" fill="#522bc5"/>
      <path id="Path_293" data-name="Path 293" d="M221.65,46.61a4.83,4.83,0,1,1,3.415-1.415A4.83,4.83,0,0,1,221.65,46.61Zm0-8.639a3.813,3.813,0,1,0,3.813,3.813A3.813,3.813,0,0,0,221.65,37.971Z" transform="translate(-198.448 -33.879)" fill="#522bc5"/>
      <path id="Path_294" data-name="Path 294" d="M4.83,168.76a4.83,4.83,0,1,1,3.415-1.415A4.83,4.83,0,0,1,4.83,168.76Zm0-8.639a3.813,3.813,0,1,0,3.813,3.813,3.813,3.813,0,0,0-3.813-3.813Z" transform="translate(0 -145.679)" fill="#522bc5"/>
      <path id="Path_295" data-name="Path 295" d="M255.83,156.97a4.83,4.83,0,1,1,3.415-1.415A4.83,4.83,0,0,1,255.83,156.97Zm0-8.643a3.813,3.813,0,1,0,3.813,3.813,3.813,3.813,0,0,0-3.813-3.813Z" transform="translate(-229.732 -134.888)" fill="#522bc5"/>
      <path id="Path_296" data-name="Path 296" d="M30.42,46.61a4.83,4.83,0,1,1,3.415-1.415A4.83,4.83,0,0,1,30.42,46.61Zm0-8.639a3.813,3.813,0,1,0,3.813,3.813A3.813,3.813,0,0,0,30.42,37.971Z" transform="translate(-23.422 -33.879)" fill="#522bc5"/>
      <path id="Path_297" data-name="Path 297" d="M200.328,364.626a.508.508,0,0,1-.508-.508v-3.369a.508.508,0,1,1,1.017,0v3.369A.508.508,0,0,1,200.328,364.626Z" transform="translate(-182.889 -329.776)" fill="#522bc5"/>
      <path id="Path_298" data-name="Path 298" d="M39.367,186.891v-.053a.333.333,0,0,0-.291-.329,3.16,3.16,0,0,1-.659-.158.334.334,0,0,1-.21-.4l.05-.194a.332.332,0,0,1,.441-.227,2.456,2.456,0,0,0,.858.164c.413,0,.695-.159.695-.449s-.231-.448-.767-.63c-.774-.261-1.3-.623-1.3-1.324a1.281,1.281,0,0,1,.991-1.229.331.331,0,0,0,.233-.315v-.1a.332.332,0,0,1,.332-.332h.045a.332.332,0,0,1,.332.332.339.339,0,0,0,.3.33,2.661,2.661,0,0,1,.465.1.33.33,0,0,1,.216.4l-.043.169a.339.339,0,0,1-.432.23,2.218,2.218,0,0,0-.7-.111c-.47,0-.623.2-.623.405,0,.239.254.391.869.622.861.3,1.208.7,1.208,1.356a1.334,1.334,0,0,1-1.052,1.284.33.33,0,0,0-.237.317v.144a.332.332,0,0,1-.332.332H39.7a.332.332,0,0,1-.332-.336Z" transform="translate(-34.945 -166.016)" fill="#522bc5"/>
      <path id="Path_299" data-name="Path 299" d="M64.986,64.714v-.053a.333.333,0,0,0-.291-.329,3.159,3.159,0,0,1-.659-.158.334.334,0,0,1-.21-.4l.05-.194a.332.332,0,0,1,.441-.227,2.457,2.457,0,0,0,.857.162c.413,0,.695-.159.695-.449s-.231-.448-.767-.63c-.775-.262-1.3-.623-1.3-1.324a1.281,1.281,0,0,1,.991-1.229.331.331,0,0,0,.233-.315v-.1a.332.332,0,0,1,.332-.332H65.4a.332.332,0,0,1,.332.332.339.339,0,0,0,.3.33,2.657,2.657,0,0,1,.465.1.33.33,0,0,1,.216.4l-.043.169a.339.339,0,0,1-.432.23,2.217,2.217,0,0,0-.7-.111c-.47,0-.623.2-.623.405,0,.239.254.391.869.622.861.3,1.208.7,1.208,1.356a1.334,1.334,0,0,1-1.052,1.284.33.33,0,0,0-.237.317v.144a.332.332,0,0,1-.332.332h-.045a.332.332,0,0,1-.333-.334Z" transform="translate(-58.394 -54.189)" fill="#522bc5"/>
      <path id="Path_300" data-name="Path 300" d="M160.636,28.474v-.053a.333.333,0,0,0-.291-.329,3.158,3.158,0,0,1-.659-.158.334.334,0,0,1-.21-.4l.05-.194a.332.332,0,0,1,.441-.227,2.457,2.457,0,0,0,.859.162c.413,0,.695-.159.695-.449s-.231-.448-.767-.63c-.774-.261-1.3-.623-1.3-1.324a1.281,1.281,0,0,1,.991-1.229.331.331,0,0,0,.233-.315v-.1a.332.332,0,0,1,.332-.332h.045a.332.332,0,0,1,.332.332.339.339,0,0,0,.3.33,2.656,2.656,0,0,1,.465.1.33.33,0,0,1,.216.4l-.043.169a.339.339,0,0,1-.432.23,2.217,2.217,0,0,0-.7-.111c-.47,0-.623.2-.623.405,0,.239.254.391.869.622.861.3,1.208.7,1.208,1.356a1.334,1.334,0,0,1-1.052,1.284.331.331,0,0,0-.237.317v.144a.332.332,0,0,1-.332.332h-.045a.332.332,0,0,1-.333-.334Z" transform="translate(-145.939 -21.02)" fill="#522bc5"/>
      <path id="Path_301" data-name="Path 301" d="M256.186,64.714v-.053a.333.333,0,0,0-.291-.329,3.158,3.158,0,0,1-.659-.158.334.334,0,0,1-.21-.4l.05-.194a.332.332,0,0,1,.441-.227,2.456,2.456,0,0,0,.859.162c.413,0,.695-.159.695-.449s-.231-.448-.767-.63c-.773-.262-1.3-.623-1.3-1.324a1.281,1.281,0,0,1,.991-1.229.331.331,0,0,0,.233-.315v-.1a.332.332,0,0,1,.332-.332h.045a.332.332,0,0,1,.332.332.339.339,0,0,0,.3.33,2.657,2.657,0,0,1,.465.1.33.33,0,0,1,.216.4l-.043.169a.339.339,0,0,1-.432.23,2.217,2.217,0,0,0-.7-.111c-.47,0-.623.2-.623.405,0,.239.254.391.869.622.861.3,1.208.7,1.208,1.356a1.334,1.334,0,0,1-1.052,1.284.331.331,0,0,0-.237.317v.144a.332.332,0,0,1-.332.332h-.039a.332.332,0,0,1-.339-.334Z" transform="translate(-233.393 -54.189)" fill="#522bc5"/>
      <path id="Path_302" data-name="Path 302" d="M290.356,175.074v-.053a.333.333,0,0,0-.292-.329,3.16,3.16,0,0,1-.659-.158.334.334,0,0,1-.21-.4l.05-.194a.332.332,0,0,1,.441-.227,2.456,2.456,0,0,0,.859.162c.413,0,.695-.159.695-.449s-.231-.448-.767-.63c-.774-.261-1.3-.623-1.3-1.324a1.281,1.281,0,0,1,.991-1.229.331.331,0,0,0,.233-.315v-.1a.332.332,0,0,1,.332-.332h.04a.332.332,0,0,1,.332.332.339.339,0,0,0,.3.33,2.659,2.659,0,0,1,.465.1.33.33,0,0,1,.216.4l-.043.169a.339.339,0,0,1-.432.23,2.218,2.218,0,0,0-.7-.111c-.47,0-.623.2-.623.405,0,.239.254.391.869.622.861.3,1.208.7,1.208,1.356a1.334,1.334,0,0,1-1.052,1.284.331.331,0,0,0-.237.317v.144a.332.332,0,0,1-.332.332h-.045A.332.332,0,0,1,290.356,175.074Z" transform="translate(-264.668 -155.198)" fill="#522bc5"/>
    </g>
  </g>
</svg>
