<svg xmlns="http://www.w3.org/2000/svg" width="26.258" height="28.133" viewBox="0 0 26.258 28.133">
  <g id="noun_financial_3308365" transform="translate(-32 -16)">
    <path id="Path_419" data-name="Path 419" d="M34.344,44.133H57.789a.469.469,0,0,0,.469-.469v-.549a3.644,3.644,0,0,0-.938-2.451V25.378a5.164,5.164,0,0,0-4.94-5.153,5.9,5.9,0,0,0,2.093-2.644l-.871-.348a4.966,4.966,0,0,1-1.967,2.362,5.25,5.25,0,0,0,.527-2.3v-.824A.469.469,0,0,0,51.693,16H46.067a.469.469,0,0,0-.469.469v.824a5.25,5.25,0,0,0,.527,2.3,4.966,4.966,0,0,1-1.967-2.362l-.871.348a5.9,5.9,0,0,0,2.093,2.644,5.164,5.164,0,0,0-4.94,5.153v2.344h-6.1A2.347,2.347,0,0,0,32,30.067V41.789A2.347,2.347,0,0,0,34.344,44.133Zm12.191-27.2h4.689v.355a4.3,4.3,0,0,1-1.139,2.927H47.674a4.3,4.3,0,0,1-1.139-2.927Zm-5.158,8.44a4.225,4.225,0,0,1,4.22-4.22h6.564a4.225,4.225,0,0,1,4.22,4.22v15H54.507v.938h2.14a2.712,2.712,0,0,1,.673,1.8v.08H43.252a2.332,2.332,0,0,0,.47-1.407V30.067a2.347,2.347,0,0,0-2.344-2.344Zm-8.44,4.689a1.408,1.408,0,0,1,1.407-1.407h7.033a1.408,1.408,0,0,1,1.407,1.407V41.789A1.408,1.408,0,0,1,41.378,43.2H34.344a1.408,1.408,0,0,1-1.407-1.407Z" fill="#6937c7"/>
    <path id="Path_420" data-name="Path 420" d="M64.469,251.282H71.5a.469.469,0,0,0,.469-.469v-2.344A.469.469,0,0,0,71.5,248H64.469a.469.469,0,0,0-.469.469v2.344A.469.469,0,0,0,64.469,251.282Zm.469-2.344h6.1v1.407h-6.1Z" transform="translate(-30.124 -218.402)" fill="#6937c7"/>
    <path id="Path_421" data-name="Path 421" d="M64.469,327.971H71.5a.469.469,0,0,0,.469-.469v-7.033A.469.469,0,0,0,71.5,320H64.469a.469.469,0,0,0-.469.469V327.5A.469.469,0,0,0,64.469,327.971Zm4.22-3.282H67.282v-1.407h1.407Zm-2.344,0H64.938v-1.407h1.407Zm-1.407.938h1.407v1.407H64.938Zm2.344,0h1.407v1.407H67.282Zm3.751,1.407H69.627v-3.751h1.407Zm0-4.689H69.627v-1.407h1.407Zm-2.344,0H67.282v-1.407h1.407Zm-3.751-1.407h1.407v1.407H64.938Z" transform="translate(-30.124 -286.182)" fill="#6937c7"/>
    <path id="Path_422" data-name="Path 422" d="M282.11,213.627h.469a1.172,1.172,0,0,1,0,2.344h-2.11v.938h1.407v1.407h.938V216.9a2.11,2.11,0,0,0-.234-4.207h-.469a1.172,1.172,0,0,1,0-2.344h2.11v-.938h-1.407V208h-.938v1.42a2.11,2.11,0,0,0,.234,4.207Z" transform="translate(-233.464 -180.747)" fill="#6937c7"/>
  </g>
</svg>
