<svg xmlns="http://www.w3.org/2000/svg" width="30.338" height="32.381" viewBox="0 0 30.338 32.381">
  <g id="Marriage" transform="translate(-14.622 -13.126)">
    <g id="Group_166" data-name="Group 166" transform="translate(14.622 13.126)">
      <g id="Group_165" data-name="Group 165" transform="translate(0)">
        <g id="Group_164" data-name="Group 164">
          <path id="Path_406" data-name="Path 406" d="M35.157-51.343v-4.972a.848.848,0,0,1,.014-.153H31.844a.853.853,0,0,1-.669-.325.853.853,0,0,1-.16-.726A30.109,30.109,0,0,1,35.689-67.9l.834-1.108-.092-.112q-.705-.843-1.484-1.662l-.23-.236-.434.433a10.66,10.66,0,0,0-2.137,3.319.848.848,0,0,1-.174.268.848.848,0,0,1-.345.287.852.852,0,0,1-1.129-.421,15.305,15.305,0,0,0-2.445-3.794l-.539-.574V-51.41a.853.853,0,0,1-.849.848h-6.59a.852.852,0,0,1-.6-.249.852.852,0,0,1-.249-.6l.008-20.026-.387.413a18.311,18.311,0,0,0-2.611,3.919.852.852,0,0,1-1.144.377.852.852,0,0,1-.377-1.144,18.85,18.85,0,0,1,4.827-6.195.853.853,0,0,1,.906-.114.853.853,0,0,1,.49.771l-.005,8.655h4.884v-8.653a.853.853,0,0,1,.48-.761.853.853,0,0,1,.895.093,16.432,16.432,0,0,1,4.078,4.723,12.734,12.734,0,0,1,2.941-3.5.852.852,0,0,1,1.149.05q.844.843,1.62,1.713l.632.731.77-.9q.721-.794,1.484-1.549A.852.852,0,0,1,41-72.866a13.524,13.524,0,0,1,3.881,4.92.852.852,0,0,1-.424,1.128.852.852,0,0,1-1.128-.424,11.314,11.314,0,0,0-2.362-3.364l-.46-.411-.861.9L38.7-69.011l.448.59A29.2,29.2,0,0,1,44.212-57.51a.853.853,0,0,1-.166.719.853.853,0,0,1-.665.32H39.753a.849.849,0,0,1,.014.153v4.972a.853.853,0,0,1-.852.852.852.852,0,0,1-.852-.852v-4.972a.849.849,0,0,1,.014-.153H36.847a.848.848,0,0,1,.014.153v4.972a.853.853,0,0,1-.852.852A.852.852,0,0,1,35.157-51.343Zm-12.542-.92v-8.324a.853.853,0,0,1,.852-.852.853.853,0,0,1,.852.852v8.324h1.494v-10.79H20.937l-.006,10.79Zm19.675-5.91-.273-.945a28.023,28.023,0,0,0-4.244-8.3l-.161-.212-.525.7a28.315,28.315,0,0,0-4.123,8.686l-.017.068ZM34.15-78.19a3.475,3.475,0,0,1,3.474-3.475A3.476,3.476,0,0,1,41.1-78.191a3.476,3.476,0,0,1-3.474,3.474,3.475,3.475,0,0,1-3.474-3.472ZM19.719-79.4a3.475,3.475,0,0,1,3.47-3.474A3.475,3.475,0,0,1,26.664-79.4a3.475,3.475,0,0,1-3.474,3.474A3.474,3.474,0,0,1,19.719-79.4Zm19.675,1.211a1.771,1.771,0,0,0-1.77-1.769,1.771,1.771,0,0,0-1.77,1.769,1.771,1.771,0,0,0,1.77,1.77,1.771,1.771,0,0,0,1.77-1.771ZM24.963-79.4a1.771,1.771,0,0,0-1.773-1.77,1.771,1.771,0,0,0-1.769,1.77A1.77,1.77,0,0,0,23.19-77.63a1.77,1.77,0,0,0,1.253-.517A1.77,1.77,0,0,0,24.963-79.4Z" transform="translate(-14.622 82.874)" fill="#6340c9" fill-rule="evenodd"/>
        </g>
      </g>
    </g>
  </g>
</svg>
