<svg id="noun_personal_loan_1147140" data-name="noun_personal loan_1147140" xmlns="http://www.w3.org/2000/svg" width="37.091" height="37.09" viewBox="0 0 37.091 37.09">
  <path id="Path_303" data-name="Path 303" d="M30.891,23.041l-.335-1.024a6.955,6.955,0,0,0,2.969-5.76,6.124,6.124,0,0,0-.034-4.024,6.572,6.572,0,0,0-5.46-4.116l-.067-.007V2.618A.618.618,0,0,0,27.345,2H14.981a.618.618,0,0,0-.618.618v5.22l-.38-.38L11.8,5.272a.617.617,0,0,0-.874,0L8.737,7.458,4.366,11.829,2.18,14.015a.617.617,0,0,0,0,.874l2.186,2.186,1.617,1.616H2.618A.618.618,0,0,0,2,19.309V31.672a.618.618,0,0,0,.618.618H15.6v6.182a.618.618,0,0,0,.618.618H38.472a.618.618,0,0,0,.618-.618V32.29C39.09,27.17,35.595,23.28,30.891,23.041Zm-1.074,1.882v1.51l-1.258-.5Zm-4.945-.029.753.613.515.419-1.268.507Zm4.576-2.285.266.812-2.367,1.893-2.372-1.931.078-.232.182-.544c.031.012.063.021.094.033q.162.062.328.114c.08.025.159.047.24.068.1.027.2.054.308.075s.185.033.277.047l0,0h0l.011,0,.077.012.015,0c.061.008.121.018.182.024.041,0,.082.006.124.009.155.014.3.023.444.023h0c.055,0,.108-.007.163-.009.135,0,.271-.009.406-.023l.127-.014h.007c.012,0,.023,0,.035-.007.038,0,.075-.013.113-.019.1-.015.192-.028.287-.048s.2-.047.3-.074c.082-.022.163-.044.244-.069q.165-.052.326-.114C29.386,22.63,29.418,22.621,29.448,22.609Zm.076-1.4-.006,0a4.623,4.623,0,0,1-1.061.426l-.012,0a4.312,4.312,0,0,1-.527.1l-.026,0a4.357,4.357,0,0,1-1.023,0c-.048-.006-.095-.011-.15-.019-.1-.015-.208-.038-.311-.06l-.107-.022c-.042-.009-.084-.02-.126-.032-.109-.03-.216-.068-.323-.106h0l-.14-.053c-.048-.019-.1-.039-.144-.06q-.134-.058-.265-.126h0l-.006,0c-.132-.068-.265-.136-.391-.216h0c-.032-.02-.062-.043-.093-.064a4.962,4.962,0,0,1-.42-.318c-.027-.023-.055-.045-.082-.069a5.416,5.416,0,0,1-.875-.991l-.007-.011a5.72,5.72,0,0,1-.332-.551l-.02-.037a5.932,5.932,0,0,1-.488-1.3c-.009-.035-.016-.072-.025-.107-.043-.184-.075-.369-.1-.556-.007-.051-.015-.1-.02-.151a6.2,6.2,0,0,1-.04-.678v0h0c0-.012,0-.061,0-.074h0c0-.089.009-.176.014-.264a3.5,3.5,0,0,0,.77.035h.024a5.62,5.62,0,0,0,.74-.1L24,15.8c.1-.02.2-.043.289-.066l.044-.011c.1-.025.194-.052.282-.078l.056-.017c.066-.02.126-.039.183-.058l.064-.021.169-.059c.249-.092.485-.2.715-.3h0l.012-.006.009,0,.062-.028.014-.007h0l.006,0q.361-.173.686-.362l.009,0h0q.289-.168.548-.341h0l.022-.015a11.4,11.4,0,0,0,1.043-.783,7.216,7.216,0,0,0,1,2.093c.017.023.031.046.048.069l0,0,0,.006.013.017q.083.11.174.217c.014.017.027.035.042.053s.007,0,.01.007a4.651,4.651,0,0,0,.519.523c.034.029.079.065.13.1l.047.035c.041.031.083.062.132.1l.072.048c.048.032.1.064.149.1l.091.053c.054.031.108.061.165.091.035.018.07.035.107.051.058.028.117.053.179.078.039.015.078.03.118.043.062.022.125.041.189.057.042.011.084.022.127.03a1.909,1.909,0,0,0,.2.029c.045,0,.088.01.134.011.022,0,.043.006.064.006.049,0,.1-.009.149-.014.028,0,.057,0,.086,0A5.522,5.522,0,0,1,29.524,21.207Zm2.8-8.558a4.76,4.76,0,0,1,.033,3.186c0,.006-.008.009-.011.014a.693.693,0,0,1-.292.347c-.257.1-.823-.181-1.222-.518a3.433,3.433,0,0,1-.389-.393c-.061-.071-.119-.144-.174-.218l-.006-.007h0l0,0q-.083-.111-.156-.226h0a6.6,6.6,0,0,1-.837-2.079l-.01-.045c-.009-.043-.018-.085-.025-.121l0-.008c-.006-.033-.011-.059-.015-.085l-.022-.134s0-.009,0-.014a.613.613,0,0,0-.065-.187.544.544,0,0,0-.038-.06.613.613,0,0,0-.1-.11.549.549,0,0,0-.049-.044.6.6,0,0,0-.176-.09l-.01,0c-.014,0-.028,0-.042-.007a.63.63,0,0,0-.125-.019h-.006c-.006,0-.012,0-.019,0s-.019,0-.029,0-.022,0-.034,0-.02.009-.032.011a.6.6,0,0,0-.105.03.584.584,0,0,0-.057.025l-.015.007c-.009,0-.018.006-.026.011a.632.632,0,0,0-.144.117,9.679,9.679,0,0,1-3.462,2.3c-.111.041-.227.08-.344.115-.088.027-.177.049-.266.072l-.088.023c-.1.024-.2.045-.3.063l-.047.009c-.108.019-.213.033-.315.045l-.022,0c-.108.011-.212.017-.31.018h0a2.18,2.18,0,0,1-.278-.014h0a1.135,1.135,0,0,1-.22-.048l-.012,0a.56.56,0,0,1-.143-.075.433.433,0,0,1-.063-.043h0a.391.391,0,0,1-.046-.074.373.373,0,0,1-.024-.041.866.866,0,0,1-.032-.106c0-.017-.011-.03-.014-.047a1.264,1.264,0,0,1-.017-.146c0-.015,0-.028,0-.043a2.03,2.03,0,0,1,0-.219,5.524,5.524,0,0,1,1.926-3.376,4.526,4.526,0,0,1,.524-.37c.062-.038.125-.071.189-.106.115-.064.23-.123.346-.176.072-.033.144-.064.216-.093.111-.044.221-.082.33-.116.065-.02.131-.045.195-.062.16-.044.317-.08.469-.108.057-.011.109-.016.164-.025.107-.016.212-.031.312-.041l.148-.012c.108-.007.211-.013.307-.015l.076,0a5.257,5.257,0,0,1,.592.028A5.387,5.387,0,0,1,32.326,12.649Zm-5.6-9.412V5.013A2.483,2.483,0,0,1,24.95,3.236Zm-11.127,0h1.777A2.483,2.483,0,0,1,15.6,5.013Zm0,3.035a3.713,3.713,0,0,0,3.035-3.035h5.057a3.713,3.713,0,0,0,3.035,3.035V8.109c-.164.014-.342.039-.527.07l-.156.027q-.094.018-.189.039c-.074.016-.148.034-.223.053l-.159.041q-.172.048-.346.108l-.057.019c-.14.049-.281.105-.422.167-.033.014-.066.031-.1.046-.109.05-.218.1-.328.162l-.059.029A1.852,1.852,0,0,0,22.4,7.564a.617.617,0,0,0-.437.181L19.71,10a.618.618,0,0,1,.217-1.2V7.564A1.852,1.852,0,0,0,18.186,8.8h-.732v1.236h.732a1.852,1.852,0,0,0,1.741,1.236.617.617,0,0,0,.437-.181l2.253-2.253a.618.618,0,0,1-.217,1.2v.3a6.373,6.373,0,0,0-1.528,3.393,2.9,2.9,0,0,0,.019.568c0,.021,0,.045,0,.066L15.6,9.074ZM12.616,7.839a2.481,2.481,0,0,1-2.512,0l1.256-1.256ZM4.748,13.2a2.481,2.481,0,0,1,0,2.512L3.492,14.451Zm.885,3.4a3.7,3.7,0,0,0,0-4.283L9.219,8.724a3.66,3.66,0,0,0,4.283,0l1.043,1.043,6.621,6.621c0,.112.014.224.021.335,0,.077.007.155.015.231.014.135.035.27.056.4.032.208.074.413.122.615.014.058.025.117.041.176.036.135.08.267.124.4.015.047.028.1.045.142H14.363V15.3a.759.759,0,0,1,.8.121.751.751,0,0,1,0,.98l.874.874a1.982,1.982,0,0,0,.353-2.207l.265-.265-.874-.874-.265.265a1.982,1.982,0,0,0-2.207.353.617.617,0,0,0-.181.437v3.43a.794.794,0,0,1-.8-.158.751.751,0,0,1,0-.98l-.874-.874a1.983,1.983,0,0,0-.31,2.292H7.731Zm-2.4,3.334H5.012A2.483,2.483,0,0,1,3.236,21.7Zm0,11.127V29.278a2.483,2.483,0,0,1,1.777,1.777Zm3.035,0a3.714,3.714,0,0,0-3.035-3.035V22.962a3.713,3.713,0,0,0,3.035-3.035h15.9l.007.011c.054.09.111.176.169.263.03.045.054.087.086.134.012.017.026.032.038.048a6.675,6.675,0,0,0,.454.577l.019.023a6.469,6.469,0,0,0,.543.538c.009.008.017.017.025.025l.061.051c.08.067.161.133.247.2.069.053.139.1.21.151.035.024.065.048.1.072l-.195.58-.129.386c-.088,0-.172.018-.26.025-.119.009-.237.02-.354.034-.167.02-.331.047-.494.077-.114.02-.227.04-.339.064-.164.036-.325.082-.485.128-.1.03-.211.056-.313.09-.174.057-.344.125-.512.194-.083.033-.168.061-.25.1-.237.105-.468.222-.693.349-.111.062-.217.134-.325.2s-.234.143-.346.222-.229.171-.341.258c-.1.074-.19.147-.283.224-.116.1-.227.2-.339.307-.079.075-.158.15-.235.229-.114.116-.223.236-.33.359-.064.074-.127.148-.188.224-.111.136-.219.274-.322.418-.046.064-.09.13-.134.2-.11.162-.218.326-.318.5-.022.038-.043.079-.065.117a9.826,9.826,0,0,0-1.2,3.758H6.271Zm31.582,6.8H34.763V31.672H33.526v6.182H21.163V31.672H19.927v6.182H16.836V32.29c0-.2.013-.388.025-.58h0a9.32,9.32,0,0,1,.224-1.553l.006-.025c.055-.234.12-.461.192-.685.007-.022.014-.045.021-.067.069-.208.147-.41.231-.609.015-.036.03-.072.045-.107.08-.183.168-.36.26-.535.025-.047.049-.095.075-.142.088-.159.182-.313.281-.464.036-.056.073-.113.111-.168.095-.137.193-.27.3-.4.049-.062.1-.122.148-.182.1-.118.2-.232.308-.344.06-.063.121-.125.184-.186.1-.1.21-.2.319-.294q.108-.093.218-.181.16-.129.328-.248c.082-.058.166-.114.251-.169.111-.072.223-.141.337-.206.092-.053.186-.1.28-.15.114-.058.229-.114.346-.167.1-.045.2-.086.309-.126s.232-.089.352-.128.224-.068.338-.1.235-.064.355-.09.243-.047.365-.067.237-.04.357-.053c.08-.009.161-.012.242-.019v3.1a.619.619,0,0,0,.271.512.611.611,0,0,0,.346.106.623.623,0,0,0,.23-.044l2.861-1.145,2.861,1.144a.611.611,0,0,0,.23.045.618.618,0,0,0,.618-.618V24.288c3.974.309,6.8,3.574,6.8,8Z" transform="translate(-1.999 -2)" fill="#522bc5"/>
  <rect id="Rectangle_98" data-name="Rectangle 98" width="0.712" height="1.424" transform="translate(24.918 26.412)" fill="#522bc5"/>
  <rect id="Rectangle_99" data-name="Rectangle 99" width="0.712" height="0.712" transform="translate(24.918 29.259)" fill="#522bc5"/>
  <rect id="Rectangle_100" data-name="Rectangle 100" width="0.712" height="1.424" transform="translate(24.918 31.395)" fill="#522bc5"/>
  <path id="Path_304" data-name="Path 304" d="M19.275,36.256a.618.618,0,0,1,1.2.217h1.236a1.852,1.852,0,0,0-1.236-1.741V34H19.236v.732A1.852,1.852,0,0,0,18,36.473a.617.617,0,0,0,.181.437l2.253,2.253a.618.618,0,0,1-1.2-.217H18a1.852,1.852,0,0,0,1.236,1.741v.732h1.236v-.732a1.852,1.852,0,0,0,1.236-1.741.617.617,0,0,0-.181-.437Z" transform="translate(-8.108 -14.218)" fill="#522bc5"/>
</svg>
