<svg xmlns="http://www.w3.org/2000/svg" width="35.092" height="35.887" viewBox="0 0 35.092 35.887">
  <g id="Retirement" transform="translate(-50 16.487)">
    <g id="Group_167" data-name="Group 167" transform="translate(50 -16.487)">
      <path id="Path_407" data-name="Path 407" d="M51.684,10.056a.563.563,0,0,1-.562-.562H50a1.683,1.683,0,0,0,1.123,1.582v.665h1.123v-.665a1.681,1.681,0,0,0-.562-3.267.562.562,0,1,1,.562-.562h1.123a1.683,1.683,0,0,0-1.123-1.582V5H51.122v.665a1.681,1.681,0,0,0,.562,3.267.562.562,0,1,1,0,1.123Z" transform="translate(-44.943 -2.754)" fill="#522bc5"/>
      <path id="Path_408" data-name="Path 408" d="M48.617,12.235A5.617,5.617,0,1,0,43,6.618,5.617,5.617,0,0,0,48.617,12.235Zm0-10.112a4.494,4.494,0,1,1-4.494,4.494A4.494,4.494,0,0,1,48.617,2.124Z" transform="translate(-41.877 -1.001)" fill="#522bc5"/>
      <path id="Path_409" data-name="Path 409" d="M52.235,21H51.112v6.741H49.989V22.123H48.864v5.617H47.741V23.809H46.617v3.933H45.494V25.494H44.371v2.247H43.247V26.617H42.123v1.123H41v1.123H53.358V27.741H52.235Z" transform="translate(-41 -9.766)" fill="#522bc5"/>
      <path id="Path_410" data-name="Path 410" d="M2.179,29.736l1.8-.367,4.361-6.89A2.2,2.2,0,0,1,10.2,21.446h1.306V20.324H9.851v-.562a2.79,2.79,0,0,1,2.766-2.809h2.4l.591-1.4a12.89,12.89,0,0,1,2.539-3.884v-.636a3.382,3.382,0,0,1-1.106-2.507V7.4a3.319,3.319,0,1,1,6.638,0V8.527a3.384,3.384,0,0,1-1.106,2.507V12.3l.987,1.671,1.815-4.525a2.29,2.29,0,0,1-.036-.362,2.212,2.212,0,1,1,3.246,1.976l-6.521,16,1.721,4.37c.4-.118.805-.231,1.205-.357h0A1.789,1.789,0,0,1,25.53,31h.211a1.842,1.842,0,0,1,.484,3.608L25,34.949A59.172,59.172,0,0,1,8.931,37.176H3.767a1.685,1.685,0,1,1,0-3.371H7.409c1.371,0,2.738-.054,4.1-.15V27.626H9.352l-2.74,4.521a1.094,1.094,0,0,1-.942.534h-3.2a1.49,1.49,0,0,1-.287-2.946ZM11.052,19.2H18.89L20.3,15.852a.748.748,0,0,0,.061-.294v-.111a.734.734,0,0,0-1.428-.235l-.939,2.862H12.617A1.664,1.664,0,0,0,11.052,19.2Zm8.974,13.208-1.712-4.783H14.829v5.694Q17.446,32.983,20.026,32.406ZM21.1,26.5l6.19-15.19a2.178,2.178,0,0,1-1.233-.575L20.179,25.379H14.829V26.5ZM22.573,7.4a2.212,2.212,0,0,0-4.425,0V8.527a2.212,2.212,0,0,0,4.425,0Zm-1.106,5.211V11.7a3.21,3.21,0,0,1-2.212,0v.428l-.162.164a11.777,11.777,0,0,0-2.466,3.7l-.4.959H17.2l.687-2.094a1.834,1.834,0,0,1,3.583.59v.111a1.874,1.874,0,0,1-.149.734l-1.7,4.027H14.829v3.933h4.606l3.6-8.981Zm6.084-4.647A1.124,1.124,0,1,0,28.657,9.09a1.124,1.124,0,0,0-1.106-1.123ZM21.092,27.626h-1.6l1.623,4.532c.536-.13,1.07-.264,1.6-.409Zm-17.324,7.3a.562.562,0,0,0,0,1.123H8.931A58.082,58.082,0,0,0,24.7,33.869l1.228-.346a.716.716,0,0,0-.188-1.4h-.211a.7.7,0,0,0-.21.032A59.153,59.153,0,0,1,7.41,34.928Zm9.953-1.473V20.324h-1.1V33.562C12.987,33.529,13.354,33.5,13.721,33.455ZM11.508,26.5V25.379h-.795L10.033,26.5ZM2.469,31.559h3.2l4.425-7.3h1.416V22.57H10.2a1.1,1.1,0,0,0-.93.516L4.659,30.378,2.4,30.837a.367.367,0,0,0,.07.722Z" transform="translate(5.329 -1.289)" fill="#522bc5"/>
    </g>
  </g>
</svg>
