<svg id="noun_PDF_2392898" xmlns="http://www.w3.org/2000/svg" width="29.445" height="36.806" viewBox="0 0 29.445 36.806">
  <g id="Group_155" data-name="Group 155">
    <path id="Path_352" data-name="Path 352" d="M40.592,11.837,32.108,3.352A2.881,2.881,0,0,0,30.093,2.5H14.867a2.814,2.814,0,0,0-2.015.852A2.814,2.814,0,0,0,12,5.367V36.439a2.861,2.861,0,0,0,2.867,2.867H38.578a2.861,2.861,0,0,0,2.867-2.867V13.852A2.882,2.882,0,0,0,40.592,11.837Zm-1.627.7H32.689a1.29,1.29,0,0,1-1.279-1.279V5.018ZM38.578,37.64H14.867a1.207,1.207,0,0,1-1.2-1.2V5.367a1.191,1.191,0,0,1,1.2-1.2H29.744v7.09A2.943,2.943,0,0,0,32.689,14.2h7.09V36.439A1.207,1.207,0,0,1,38.578,37.64Z" transform="translate(-12 -2.5)" fill="#522cc5"/>
    <text id="XLS" transform="translate(5.944 24.451)" fill="#522cc5" font-size="10" font-family="Roboto-Bold, Roboto" font-weight="700"><tspan x="0" y="0">XLS</tspan></text>
  </g>
</svg>
