<svg xmlns="http://www.w3.org/2000/svg" width="33.25" height="33.25" viewBox="0 0 33.25 33.25">
  <g id="Add_a_Goal" data-name="Add a Goal" transform="translate(-0.736 -0.736)">
    <path id="Path_1413" data-name="Path 1413" d="M30.362.736,25.807,5.289l.118.34.617,1.748L15.717,18.192a2.693,2.693,0,0,0-1.462-.437,2.716,2.716,0,1,0,2.716,2.714,2.686,2.686,0,0,0-.445-1.477L27.349,8.181l2.084.738,4.553-4.553-2.68-.948Zm-.475,2.08.529,1.49,1.49.529L29.136,7.6l-1.492-.527-.525-1.49ZM14.254,6.953a13.516,13.516,0,1,0,11.6,6.589l-.295-.49-.974.583.29.488A12.371,12.371,0,1,1,20.6,9.842l.486.295.583-.979-.486-.292A13.511,13.511,0,0,0,14.254,6.953Zm0,5.293a8.224,8.224,0,1,0,7.7,5.333l-.2-.533-1.062.4.2.533a7.092,7.092,0,1,1-4.142-4.142l.533.2.4-1.067-.533-.2A8.23,8.23,0,0,0,14.254,12.246Zm0,6.65a1.577,1.577,0,1,1-1.576,1.574A1.568,1.568,0,0,1,14.254,18.9Z" transform="translate(0 0)" fill="#6937c7"/>
  </g>
</svg>
