<svg xmlns="http://www.w3.org/2000/svg" width="28.269" height="28.276" viewBox="0 0 28.269 28.276">
  <g id="noun_call_2442970" transform="translate(0 0.026)">
    <path id="Path_381" data-name="Path 381" d="M23.135,28.25l-1.247-.017-.359-.068c-.283-.054-.582-.107-.868-.178a17.173,17.173,0,0,1-5.145-2.36A42.393,42.393,0,0,1,8.39,19.69a43.186,43.186,0,0,1-5.43-6.445A17.913,17.913,0,0,1,.325,7.829c-.1-.351-.161-.7-.223-1.035C.073,6.65.048,6.511.02,6.364L0,6.186V5.18l.068-.164A8.052,8.052,0,0,1,2.245,2.195c.6-.565,1.244-1.08,1.843-1.558A2.929,2.929,0,0,1,6.694.072a2.312,2.312,0,0,1,1.413,1l.775,1.168c.808,1.233,1.642,2.5,2.49,3.734a2.985,2.985,0,0,1,.24,3.11c-.15.331-.322.636-.489.933l-.212.382c-.158.283-.314.565-.478.848l.531.636c.478.565.975,1.173,1.484,1.722a38.1,38.1,0,0,0,4.543,4.24c.6-.348,1.227-.7,1.914-1.071a3.186,3.186,0,0,1,2.3-.4,2.428,2.428,0,0,1,.786.334q2.626,1.727,5.238,3.469a2.618,2.618,0,0,1,.893,3.016h0a2.776,2.776,0,0,1-.384.783A16.908,16.908,0,0,1,24.521,27.4a5.911,5.911,0,0,1-.848.531c-.107.059-.212.116-.317.175Zm-.987-1.812h.5l.153-.082a4.382,4.382,0,0,0,.6-.367,15.186,15.186,0,0,0,2.864-3.081,1.063,1.063,0,0,0,.124-.283.862.862,0,0,0-.175-.941q-2.609-1.739-5.227-3.46a.63.63,0,0,0-.2-.082,1.439,1.439,0,0,0-1.032.215c-.76.41-1.442.794-2.083,1.173a1.323,1.323,0,0,1-1.566-.09,39.217,39.217,0,0,1-4.987-4.608c-.546-.585-1.057-1.2-1.552-1.8-.263-.308-.529-.613-.777-.919a1.213,1.213,0,0,1-.11-1.49c.223-.367.43-.741.636-1.111l.22-.393c.155-.283.3-.531.416-.789a1.19,1.19,0,0,0-.082-1.326c-.848-1.247-1.7-2.53-2.513-3.768L6.609,2.079a.514.514,0,0,0-.342-.237,1.131,1.131,0,0,0-1.046.209c-.565.461-1.184.955-1.747,1.476A6.747,6.747,0,0,0,1.812,5.545v.548c.025.122.048.243.071.365.059.317.116.613.192.9A16.278,16.278,0,0,0,4.464,12.23a41.462,41.462,0,0,0,5.21,6.18A40.764,40.764,0,0,0,16.5,24.1a15.368,15.368,0,0,0,4.6,2.129c.249.062.5.107.758.153Z" transform="translate(0 0)" fill="#6937c7"/>
  </g>
</svg>
