<svg xmlns="http://www.w3.org/2000/svg" width="33.597" height="38.812" viewBox="0 0 33.597 38.812"><defs><style>.a{fill:#6937c7;}</style></defs><g transform="translate(-8.603 -0.018)"><path class="a" d="M52.983,42.349V37.342a2.547,2.547,0,0,0-2.426-2.547V32.065a6.065,6.065,0,1,0-12.13,0v2.729A2.547,2.547,0,0,0,36,37.336v5.013a4.879,4.879,0,0,0,4.873,4.879h7.236A4.879,4.879,0,0,0,52.983,42.349ZM44.491,27.213a4.852,4.852,0,0,1,4.852,4.852v2.729h-9.7V32.065A4.852,4.852,0,0,1,44.491,27.213ZM37.213,42.349V37.342a1.334,1.334,0,0,1,1.334-1.334H50.435a1.334,1.334,0,0,1,1.334,1.334v5.007a3.666,3.666,0,0,1-3.66,3.666H40.873A3.666,3.666,0,0,1,37.213,42.349Z" transform="translate(-19.089 -18.103)"/><path class="a" d="M59.282,63.48a2.062,2.062,0,0,0-.607,4.03v1.82a.607.607,0,1,0,1.213,0V67.51a2.062,2.062,0,0,0-.607-4.03Zm0,2.908a.849.849,0,1,1,.846-.846A.849.849,0,0,1,59.282,66.388Z" transform="translate(-33.88 -44.216)"/><path class="a" d="M79.377,27.281A16.77,16.77,0,0,0,67.853,11.33a.607.607,0,1,0-.379,1.152A15.588,15.588,0,0,1,64.117,42.79l1.5-1.5a.607.607,0,1,0-.855-.858l-2.605,2.617a.43.43,0,0,0-.076.091.167.167,0,0,0-.024.045.387.387,0,0,0-.033.061L62,43.309a.255.255,0,0,0-.027.045.606.606,0,0,0,0,.237.367.367,0,0,0,.015.055l.018.061.033.058a.167.167,0,0,0,.024.045.543.543,0,0,0,.076.094l2.611,2.608a.607.607,0,0,0,.861-.855l-1.638-1.641A16.813,16.813,0,0,0,79.377,27.281Z" transform="translate(-37.177 -7.86)"/><path class="a" d="M20.484,34.214a15.588,15.588,0,0,1,3.378-30.3l-1.492,1.5a.607.607,0,1,0,.855.858L25.83,3.652a.43.43,0,0,0,.076-.091.167.167,0,0,0,.024-.045.388.388,0,0,0,.033-.061l.018-.061a.255.255,0,0,0,.027-.045.607.607,0,0,0,0-.237.368.368,0,0,0,0-.055L25.991,3l-.033-.058a.167.167,0,0,0-.024-.045.543.543,0,0,0-.076-.094L23.219.192a.6.6,0,0,0-.849.855l1.638,1.641A16.8,16.8,0,0,0,20.1,35.367a.607.607,0,1,0,.382-1.152Z" transform="translate(0 0)"/></g></svg>