<svg xmlns="http://www.w3.org/2000/svg" width="31.022" height="23.804" viewBox="0 0 31.022 23.804">
  <g id="Group_999" data-name="Group 999" transform="translate(-187.855 -681.2)">
    <g id="noun_chat_2518709" transform="translate(187.855 681.2)">
      <path id="Path_382" data-name="Path 382" d="M17.244,3.5c-6.9,0-12.389,4.407-12.389,10.1,0,3.362,2.308,5.75,4.334,7.213v4.628a.707.707,0,0,0,.32.592l0,0a.706.706,0,0,0,.669.052l0,0a16.2,16.2,0,0,0,4.659-3.427,15.937,15.937,0,0,0,2.766.317A13.567,13.567,0,0,0,26.1,20.4a8.472,8.472,0,0,0,3.282-6.812c0-5.768-5.27-10.1-12.135-10.1Zm0,1.411c6.168,0,10.724,3.75,10.724,8.684a7.04,7.04,0,0,1-2.819,5.747,12.223,12.223,0,0,1-7.543,2.22,16.328,16.328,0,0,1-2.884-.352h-.005a.71.71,0,0,0-.657.223v0A14.069,14.069,0,0,1,10.6,24.221V20.455a.707.707,0,0,0-.3-.581c-1.862-1.282-4.029-3.4-4.029-6.28,0-4.838,4.773-8.686,10.979-8.686ZM31.05,13.642a.706.706,0,0,0-.424,1.346h0a6.815,6.815,0,0,1,2.952,1.629,3.285,3.285,0,0,1,.889,2.394c0,1.668-1.6,3.073-2.584,3.752a.706.706,0,0,0-.307.581v2.207a5.049,5.049,0,0,1-1.656-1.23v0a.71.71,0,0,0-.661-.223h0c-.221.043-.437.1-.651.158h0a4.253,4.253,0,0,1-1.019.191,6.521,6.521,0,0,1-4.277-1.308v0a.707.707,0,0,0-.839,1.138h0a7.993,7.993,0,0,0,5.112,1.582,5.192,5.192,0,0,0,1.386-.238h0l.207-.054a6.987,6.987,0,0,0,1.892,1.346,4.789,4.789,0,0,0,1.065.377h0a.713.713,0,0,0,.139.015.707.707,0,0,0,.706-.707v-2.9c1.825-1.35,2.889-2.99,2.889-4.681a4.732,4.732,0,0,0-1.209-3.293,8.068,8.068,0,0,0-3.615-2.075l0,0Z" transform="translate(-4.855 -3.497)" fill="#6937c7"/>
    </g>
    <line id="Line_50" data-name="Line 50" x2="10.159" transform="translate(191.553 689.763)" fill="none" stroke="#6937c7" stroke-linecap="round" stroke-width="1"/>
    <line id="Line_51" data-name="Line 51" x2="3.386" transform="translate(204.132 689.763)" fill="none" stroke="#6937c7" stroke-linecap="round" stroke-width="1"/>
    <line id="Line_52" data-name="Line 52" x1="8.708" transform="translate(198.81 693.149)" fill="none" stroke="#6937c7" stroke-linecap="round" stroke-width="1"/>
    <line id="Line_53" data-name="Line 53" x2="4.838" transform="translate(192.037 693.149)" fill="none" stroke="#6937c7" stroke-linecap="round" stroke-width="1"/>
  </g>
</svg>
