<svg xmlns="http://www.w3.org/2000/svg" width="20.468" height="20.467" viewBox="0 0 20.468 20.467"><g transform="translate(0 1.003)"><path class="a" d="M18.95,39.2l-2.545-2.544a1.8,1.8,0,0,0-2.545,0L12.7,37.81a1.362,1.362,0,0,1-1.928,0h0L6.754,33.8a1.362,1.362,0,0,1,0-1.928L7.91,30.716a1.8,1.8,0,0,0,0-2.545L5.366,25.627a1.8,1.8,0,0,0-2.545,0l-.848.848A6.5,6.5,0,0,0,1.9,35.728l6.953,6.939a6.5,6.5,0,0,0,9.253-.077h0l.848-.848A1.8,1.8,0,0,0,18.95,39.2ZM3.67,26.475a.6.6,0,0,1,.848,0L7.062,29.02a.6.6,0,0,1,0,.848l-.424.424L3.245,26.9ZM9.7,41.819,2.744,34.88a5.3,5.3,0,0,1-.331-7.116l3.381,3.381a2.56,2.56,0,0,0,.112,3.505l4.022,4.009a2.56,2.56,0,0,0,3.5.112l3.381,3.381A5.285,5.285,0,0,1,9.7,41.819Zm8.405-.925-.424.424-3.393-3.393.424-.424a.6.6,0,0,1,.848,0L18.1,40.046A.6.6,0,0,1,18.1,40.894Z" transform="translate(0 -25.099)"/></g><g transform="translate(9.672 0)"><path class="a" d="M250.942.007h-7.2a1.8,1.8,0,0,0-1.8,1.8V6.6a1.8,1.8,0,0,0,1.8,1.8h.6v1.8a.6.6,0,0,0,1.024.424L247.592,8.4h3.35a1.8,1.8,0,0,0,1.8-1.8v-4.8A1.8,1.8,0,0,0,250.942.007Zm.6,6.6a.6.6,0,0,1-.6.6h-3.6a.6.6,0,0,0-.424.176l-1.375,1.375V7.8a.6.6,0,0,0-.6-.6h-1.2a.6.6,0,0,1-.6-.6v-4.8a.6.6,0,0,1,.6-.6h7.2a.6.6,0,0,1,.6.6V6.6Z" transform="translate(-241.946 -0.007)"/></g><g transform="translate(12.071 2.399)"><path class="a" d="M307.357,60.02h-4.8a.6.6,0,0,0,0,1.2h4.8a.6.6,0,1,0,0-1.2Z" transform="translate(-301.959 -60.02)"/></g><g transform="translate(12.071 4.798)"><path class="a" d="M304.958,120.032h-2.4a.6.6,0,0,0,0,1.2h2.4a.6.6,0,1,0,0-1.2Z" transform="translate(-301.959 -120.032)"/></g></svg>