<svg xmlns="http://www.w3.org/2000/svg" width="21.819" height="19.177" viewBox="0 0 21.819 19.177"><path class="a" d="M21.184,2.557h-5.8V1.918A1.92,1.92,0,0,0,13.466,0H8.353A1.92,1.92,0,0,0,6.435,1.918v.639H.639A.641.641,0,0,0,0,3.2V17.259a1.92,1.92,0,0,0,1.918,1.918H19.9a1.92,1.92,0,0,0,1.918-1.918V3.207a.621.621,0,0,0-.635-.65ZM7.713,1.918a.64.64,0,0,1,.639-.639h5.114a.64.64,0,0,1,.639.639v.639H7.713ZM20.293,3.835,18.308,9.79a.638.638,0,0,1-.606.437h-3.6V9.588a.639.639,0,0,0-.639-.639H8.353a.639.639,0,0,0-.639.639v.639h-3.6a.638.638,0,0,1-.606-.437L1.526,3.835Zm-7.466,6.392v1.278H8.992V10.227Zm7.713,7.031a.64.64,0,0,1-.639.639H1.918a.64.64,0,0,1-.639-.639V7.135l1.02,3.06a1.915,1.915,0,0,0,1.819,1.311h3.6v.639a.639.639,0,0,0,.639.639h5.114a.639.639,0,0,0,.639-.639v-.639h3.6a1.915,1.915,0,0,0,1.819-1.311l1.02-3.06Zm0,0" transform="translate(0)" fill="#6937c7"/></svg>