<svg xmlns="http://www.w3.org/2000/svg" width="31.268" height="23.335" viewBox="0 0 31.268 23.335">
  <g id="noun_Email_1234717" transform="translate(-6.45 -17.51)">
    <path id="Path_380" data-name="Path 380" d="M37.718,20.382a2.872,2.872,0,0,0-2.872-2.872H9.322A2.872,2.872,0,0,0,6.45,20.382V37.973a2.872,2.872,0,0,0,2.872,2.872H34.846a2.872,2.872,0,0,0,2.872-2.872Zm-28.4-1.436H34.846a1.436,1.436,0,0,1,.226.022L23.122,31.457a1.436,1.436,0,0,1-2.071,0L9.1,18.968a1.436,1.436,0,0,1,.226-.022ZM7.886,20.382a1.436,1.436,0,0,1,.1-.5l7.539,7.88L7.886,37.143Zm26.96,19.027H9.322a1.436,1.436,0,0,1-1.048-.46l8.25-10.134,3.489,3.647a2.872,2.872,0,0,0,4.146,0l3.26-3.407,8.472,9.9a1.436,1.436,0,0,1-1.045.442Zm1.436-2.2L28.413,28l7.772-8.124a1.436,1.436,0,0,1,.1.5Z" fill="#6937c7"/>
  </g>
</svg>
