<svg xmlns="http://www.w3.org/2000/svg" width="27.5" height="22" viewBox="0 0 27.5 22">
  <g id="Full_Dashboard" data-name="Full Dashboard" transform="translate(-4 -8)">
    <g id="icons" transform="translate(4 8)">
      <path id="Path_1408" data-name="Path 1408" d="M30.125,8H5.375A1.375,1.375,0,0,0,4,9.375v19.25A1.375,1.375,0,0,0,5.375,30h24.75A1.375,1.375,0,0,0,31.5,28.625V9.375A1.375,1.375,0,0,0,30.125,8Zm0,1.375v2.75H5.375V9.375ZM5.375,28.625V13.5h24.75V28.625ZM6.75,10.75a.688.688,0,1,1,.688.688A.687.687,0,0,1,6.75,10.75Zm6.187,5.5a4.812,4.812,0,1,0,4.813,4.812A4.812,4.812,0,0,0,12.937,16.25Zm3.369,4.125H13.625V17.694A3.448,3.448,0,0,1,16.306,20.375ZM12.937,24.5a3.437,3.437,0,0,1-.687-6.806V21.75h4.056a3.444,3.444,0,0,1-3.369,2.75ZM20.5,21.75h1.375v4.125H20.5ZM23.25,19h1.375v6.875H23.25ZM26,16.25h1.375v9.625H26Z" transform="translate(-4 -8)" fill="#6937c7"/>
    </g>
  </g>
</svg>
