<svg xmlns="http://www.w3.org/2000/svg" width="20.018" height="20.018" viewBox="0 0 20.018 20.018"><path class="a" d="M19.664,5.066a.626.626,0,0,0-.271-.056V5H18.141V.626A.625.625,0,0,0,17.515,0H2.5a.625.625,0,0,0-.626.626V5H.626V5.01a.622.622,0,0,0-.271.056A.628.628,0,0,0,0,5.63V19.392a.625.625,0,0,0,.626.626H19.392a.625.625,0,0,0,.626-.626V5.63A.626.626,0,0,0,19.664,5.066ZM3.128,1.251H16.89V6.83l-6.881,5.5L3.128,6.83ZM18.766,18.766H1.251V6.932l8.367,6.693a.626.626,0,0,0,.782,0l8.367-6.693Z"/><g transform="translate(6.663 3.606)"><g transform="translate(0.165 -0.918)"><rect class="a" width="7" height="1.5"/></g></g><g transform="translate(6.663 6.059)"><g transform="translate(0.165 -0.371)"><rect class="a" width="4.663" height="1.5"/></g></g></svg>