<svg id="Investment_Profile" data-name="Investment Profile" xmlns="http://www.w3.org/2000/svg" width="30.769" height="30.878" viewBox="0 0 30.769 30.878">
  <g id="Group_987" data-name="Group 987" transform="translate(0 0)">
    <g id="Group_973" data-name="Group 973" transform="translate(4.902)">
      <g id="Group_972" data-name="Group 972">
        <path id="Path_1379" data-name="Path 1379" d="M17,8.433H11.886a.643.643,0,0,1-.584-.374L9.888,4.983a2.1,2.1,0,0,1,.8-2.63,2.225,2.225,0,0,1,2.4,0l.677.435a.932.932,0,0,0,.505.147h.345a.93.93,0,0,0,.507-.148l.667-.432a2.229,2.229,0,0,1,2.4-.006A2.1,2.1,0,0,1,19,4.978L17.585,8.058A.643.643,0,0,1,17,8.433ZM12.3,7.146h4.291l1.241-2.7A.815.815,0,0,0,17.5,3.436a.935.935,0,0,0-1.015,0l-.667.432a2.217,2.217,0,0,1-1.207.354h-.345a2.217,2.217,0,0,1-1.2-.352l-.677-.435a.937.937,0,0,0-1.011,0,.817.817,0,0,0-.32,1.018Z" transform="translate(-9.704 -2)" fill="#6937c7"/>
      </g>
    </g>
    <g id="Group_975" data-name="Group 975" transform="translate(11.57 4.367)">
      <g id="Group_974" data-name="Group 974">
        <path id="Path_1380" data-name="Path 1380" d="M26.568,10.854a.642.642,0,0,1-.285-.067,5.245,5.245,0,0,0-5.284,0,.643.643,0,0,1-.57-1.153,6.52,6.52,0,0,1,6.425,0,.643.643,0,0,1-.286,1.22Z" transform="translate(-20.071 -8.788)" fill="#6937c7"/>
      </g>
    </g>
    <g id="Group_977" data-name="Group 977" transform="translate(5.138 11.676)">
      <g id="Group_976" data-name="Group 976">
        <path id="Path_1381" data-name="Path 1381" d="M14.574,29.313a4.582,4.582,0,1,1,4.5-4.581A4.548,4.548,0,0,1,14.574,29.313Zm0-7.876a3.3,3.3,0,1,0,3.216,3.295A3.26,3.26,0,0,0,14.574,21.437Z" transform="translate(-10.071 -20.15)" fill="#6937c7"/>
      </g>
    </g>
    <g id="Group_980" data-name="Group 980" transform="translate(7.872 13.466)">
      <g id="Group_979" data-name="Group 979">
        <g id="Group_978" data-name="Group 978">
          <path id="Path_1382" data-name="Path 1382" d="M15.945,28.516v-.492a2.838,2.838,0,0,1-1.624-.734L14.8,26.7a2.268,2.268,0,0,0,1.142.586V25.983a2.664,2.664,0,0,1-1.093-.478,1.092,1.092,0,0,1-.347-.879,1.24,1.24,0,0,1,.4-.953,1.6,1.6,0,0,1,1.04-.4v-.337h.422v.344a2.724,2.724,0,0,1,1.373.5l-.429.62a2.1,2.1,0,0,0-.944-.391v1.266h.02a2.652,2.652,0,0,1,1.115.492,1.126,1.126,0,0,1,.357.9,1.235,1.235,0,0,1-.409.96,1.684,1.684,0,0,1-1.082.4v.485h-.422Zm-.466-4.347a.486.486,0,0,0-.168.377.48.48,0,0,0,.132.357,1.32,1.32,0,0,0,.5.253V23.99A.784.784,0,0,0,15.479,24.168Zm1.39,2.953a.528.528,0,0,0,.04-.765,1.445,1.445,0,0,0-.542-.259V27.31A.912.912,0,0,0,16.869,27.121Z" transform="translate(-14.321 -22.932)" fill="#6937c7"/>
        </g>
      </g>
    </g>
    <g id="Group_982" data-name="Group 982" transform="translate(10.384 19.942)">
      <g id="Group_981" data-name="Group 981">
        <path id="Path_1383" data-name="Path 1383" d="M36.68,43.936H20.16a1.927,1.927,0,0,1-1.465-.675,1.95,1.95,0,0,1-.444-1.572,10.294,10.294,0,0,1,20.337,0,1.949,1.949,0,0,1-.445,1.571A1.922,1.922,0,0,1,36.68,43.936Zm-8.26-9.649a8.954,8.954,0,0,0-8.9,7.6.662.662,0,0,0,.15.536.632.632,0,0,0,.487.224H36.68a.631.631,0,0,0,.486-.224.666.666,0,0,0,.151-.536A8.955,8.955,0,0,0,28.42,34.287Z" transform="translate(-18.227 -33)" fill="#6937c7"/>
      </g>
    </g>
    <g id="Group_984" data-name="Group 984" transform="translate(16.073 12.223)">
      <g id="Group_983" data-name="Group 983">
        <path id="Path_1384" data-name="Path 1384" d="M31.574,30.006a4.5,4.5,0,1,1,4.5-4.5A4.508,4.508,0,0,1,31.574,30.006Zm0-7.719A3.216,3.216,0,1,0,34.791,25.5,3.22,3.22,0,0,0,31.574,22.287Z" transform="translate(-27.071 -21)" fill="#6937c7"/>
      </g>
    </g>
    <g id="Group_986" data-name="Group 986" transform="translate(0 5.146)">
      <g id="Group_985" data-name="Group 985">
        <path id="Path_1385" data-name="Path 1385" d="M11.751,31.077c-3.622,0-7.412-.817-8.845-2.642C-.492,24.1,7.69,11.685,8.635,10.284L8.826,10h5.8l.191.284a60.453,60.453,0,0,1,5.025,9.252l.116.279-.141.268a3.207,3.207,0,0,0,1.2,4.257l.281.168.03.326c.025.276.042.548.041.807v.524l-.514.1a9.008,9.008,0,0,0-6.007,4.343l-.161.281-.322.037A22.9,22.9,0,0,1,11.751,31.077ZM9.512,11.287C7,15.1,1.586,24.667,3.919,27.641c1.24,1.581,5.676,2.481,9.984,2.046a10.3,10.3,0,0,1,6.042-4.522,4.492,4.492,0,0,1-1.4-5.4,60.4,60.4,0,0,0-4.605-8.478Z" transform="translate(-2.085 -10)" fill="#6937c7"/>
      </g>
    </g>
  </g>
</svg>
