<svg xmlns="http://www.w3.org/2000/svg" width="18" height="24" viewBox="0 0 18 24">
    <defs>
        <style>
            .cls-1{fill:#a0a0a3}
        </style>
    </defs>
    <g id="Enter_new_password" data-name="Enter new password" transform="translate(-3)">
        <path id="Path_373" d="M18.75 24H5.25A2.253 2.253 0 0 1 3 21.75v-10.5A2.253 2.253 0 0 1 5.25 9h13.5A2.253 2.253 0 0 1 21 11.25v10.5A2.253 2.253 0 0 1 18.75 24zM5.25 10.5a.751.751 0 0 0-.75.75v10.5a.751.751 0 0 0 .75.75h13.5a.751.751 0 0 0 .75-.75v-10.5a.751.751 0 0 0-.75-.75z" class="cls-1" data-name="Path 373"/>
        <path id="Path_374" d="M17.25 10.5a.75.75 0 0 1-.75-.75V6a4.5 4.5 0 0 0-9 0v3.75a.75.75 0 0 1-1.5 0V6a6 6 0 0 1 12 0v3.75a.75.75 0 0 1-.75.75z" class="cls-1" data-name="Path 374"/>
        <path id="Path_375" d="M12 17a2 2 0 1 1 2-2 2 2 0 0 1-2 2zm0-2.5a.5.5 0 1 0 .5.5.5.5 0 0 0-.5-.5z" class="cls-1" data-name="Path 375"/>
        <path id="Path_376" d="M12 20a.75.75 0 0 1-.75-.75V16.5a.75.75 0 0 1 1.5 0v2.75A.75.75 0 0 1 12 20z" class="cls-1" data-name="Path 376"/>
    </g>
</svg>
