<svg xmlns="http://www.w3.org/2000/svg" width="29.995" height="31.1" viewBox="0 0 29.995 31.1">
  <g id="New_investment_" data-name="New investment " transform="translate(0 0.5)">
    <g id="Group_199" data-name="Group 199" transform="translate(0 12.82)">
      <g id="Layer_1_1_">
        <g id="Group_198" data-name="Group 198">
          <g id="Group_196" data-name="Group 196">
            <path id="Path_383" data-name="Path 383" d="M4.733,19.2H1.343A1.351,1.351,0,0,0,0,20.543v15.03A1.408,1.408,0,0,0,1.343,36.98H4.669a1.351,1.351,0,0,0,1.343-1.343V20.607A1.277,1.277,0,0,0,4.733,19.2Zm.128,15.349c0,.831-.384,1.535-.831,1.535H2.047c-.448,0-.831-.7-.831-1.535V22.142c0-.831.384-1.535.831-1.535H4.093c.448,0,.831.7.831,1.535V34.549Z" transform="translate(0 -19.2)" fill="#6937c7"/>
            <path id="Path_384" data-name="Path 384" d="M17.269,25.6H13.943A1.351,1.351,0,0,0,12.6,26.943V37.88a1.351,1.351,0,0,0,1.343,1.343h3.326a1.351,1.351,0,0,0,1.343-1.343V27.007A1.408,1.408,0,0,0,17.269,25.6Zm.256,11.512c0,.64-.384,1.151-.831,1.151H14.583c-.448,0-.831-.512-.831-1.151V27.838c0-.64.384-1.151.831-1.151h2.111c.448,0,.831.512.831,1.151Z" transform="translate(-4.542 -21.507)" fill="#6937c7"/>
          </g>
          <g id="Group_197" data-name="Group 197" transform="translate(15.989 0.06)">
            <path id="Path_385" data-name="Path 385" d="M37.5,20.641V35.67a1.351,1.351,0,0,0,1.343,1.343h3.326a1.351,1.351,0,0,0,1.343-1.343V20.641A1.351,1.351,0,0,0,42.169,19.3H38.843A1.275,1.275,0,0,0,37.5,20.641Zm1.215,1.535c0-.831.384-1.535.831-1.535h2.047c.448,0,.831.7.831,1.535V34.583c0,.831-.384,1.535-.831,1.535H39.547c-.448,0-.831-.7-.831-1.535Z" transform="translate(-29.505 -19.293)" fill="#6937c7"/>
            <path id="Path_386" data-name="Path 386" d="M25,27.041V37.977a1.351,1.351,0,0,0,1.343,1.343h3.326a1.351,1.351,0,0,0,1.343-1.343V27.041A1.351,1.351,0,0,0,29.669,25.7H26.343A1.311,1.311,0,0,0,25,27.041Zm1.151.831c0-.64.384-1.151.831-1.151h2.111c.448,0,.831.512.831,1.151v9.274c0,.64-.384,1.151-.831,1.151H26.983c-.448,0-.831-.512-.831-1.151Z" transform="translate(-25 -21.6)" fill="#6937c7"/>
          </g>
        </g>
      </g>
    </g>
    <g id="Group_200" data-name="Group 200" transform="translate(11.064 1.355)">
      <path id="Path_387" data-name="Path 387" d="M21.2,9.133V6.766c1.407,0,1.343,1.343,2.175,1.343a.706.706,0,0,0,.767-.767c0-1.215-1.983-1.855-2.942-1.855v-.64c0-.192-.192-.448-.384-.448a.428.428,0,0,0-.384.448v.64c-1.535.064-2.942.9-2.942,2.622,0,1.407,1.087,2.175,2.942,2.494v2.622c-2.047-.064-.959-1.791-2.366-1.791a.706.706,0,0,0-.767.767c0,.959,1.023,2.238,3.134,2.3v.767c0,.192.192.448.384.448a.428.428,0,0,0,.384-.448v-.767c1.855-.128,3.07-.959,3.07-2.622C24.271,9.964,22.8,9.453,21.2,9.133ZM20.5,9c-.959-.192-1.407-.576-1.407-1.151,0-.512.576-1.023,1.407-1.087Zm.767,4.285V10.86c.64.128,1.535.384,1.535,1.215C22.8,12.842,21.969,13.226,21.265,13.29Z" transform="translate(-17.3 -4.4)" fill="#6937c7"/>
    </g>
    <g id="Group_201" data-name="Group 201" transform="translate(7.035 -0.5)">
      <path id="Path_388" data-name="Path 388" d="M18.547,1.5a7.515,7.515,0,1,0,7.547,7.547A7.6,7.6,0,0,0,18.547,1.5Zm0,13.687a6.2,6.2,0,1,1,6.2-6.2A6.21,6.21,0,0,1,18.547,15.187Z" transform="translate(-11 -1.5)" fill="#6937c7"/>
    </g>
  </g>
</svg>
