<svg id="Personal_Profile" data-name="Personal Profile" xmlns="http://www.w3.org/2000/svg" width="32.891" height="28.624" viewBox="0 0 32.891 28.624">
  <path id="Path_1374" data-name="Path 1374" d="M35.161,18.116H30.545V17.75a2.233,2.233,0,0,0-2.233-2.233H26.379a4.941,4.941,0,0,0-9.867,0H14.575a2.233,2.233,0,0,0-2.233,2.233v.365H7.73A2.734,2.734,0,0,0,5,20.846V36.739a2.734,2.734,0,0,0,2.73,2.73H35.161a2.734,2.734,0,0,0,2.73-2.73V20.846A2.734,2.734,0,0,0,35.161,18.116ZM21.445,13.325a2.463,2.463,0,1,1-2.463,2.463A2.463,2.463,0,0,1,21.445,13.325ZM36.977,36.783a1.747,1.747,0,0,1-1.743,1.743H7.657a1.747,1.747,0,0,1-1.743-1.743V20.806a1.747,1.747,0,0,1,1.743-1.743h4.652v.61a2.244,2.244,0,0,0,2.244,2.244h13.8a2.244,2.244,0,0,0,2.229-2.244v-.61h4.652a1.747,1.747,0,0,1,1.743,1.743Z" transform="translate(-5 -10.845)" fill="#6937c7"/>
  <path id="Path_1375" data-name="Path 1375" d="M22.008,54.3a5.92,5.92,0,0,0,1.1-3.136,2.88,2.88,0,1,0-5.76,0,5.924,5.924,0,0,0,1.1,3.136,3.687,3.687,0,0,0-2.671,3.527v.632h8.917v-.632A3.687,3.687,0,0,0,22.008,54.3Zm-1.787-4.751a1.619,1.619,0,0,1,1.615,1.615c0,1.1-.917,2.971-1.615,2.971s-1.615-1.867-1.615-2.971a1.619,1.619,0,0,1,1.615-1.63ZM17.1,57.219a2.427,2.427,0,0,1,2.339-1.791H21a2.427,2.427,0,0,1,2.335,1.791Z" transform="translate(-11.834 -34.599)" fill="#6937c7"/>
  <path id="Path_1376" data-name="Path 1376" d="M55.851,68.9H45.374a.5.5,0,1,0,0,1H55.851a.5.5,0,1,0,0-1Z" transform="translate(-30.303 -47.684)" fill="#6937c7"/>
  <path id="Path_1377" data-name="Path 1377" d="M58.717,60.84H45.374a.5.5,0,1,0,0,1H58.717a.5.5,0,1,0,0-1Z" transform="translate(-30.303 -42.569)" fill="#6937c7"/>
  <path id="Path_1378" data-name="Path 1378" d="M58.717,52.78H45.374a.5.5,0,1,0,0,1H58.717a.5.5,0,1,0,0-1Z" transform="translate(-30.303 -37.455)" fill="#6937c7"/>
</svg>
