<svg xmlns="http://www.w3.org/2000/svg" width="18.554" height="21.813" viewBox="0 0 18.554 21.813"><g transform="translate(0)"><path class="a" d="M141.717,11.753h.145a4.168,4.168,0,0,0,3.184-1.378c1.739-1.96,1.45-5.321,1.418-5.642a4.608,4.608,0,0,0-2.191-4.1A5.022,5.022,0,0,0,141.843,0h-.077a5.03,5.03,0,0,0-2.43.619,4.611,4.611,0,0,0-2.218,4.115c-.032.321-.321,3.681,1.418,5.642A4.151,4.151,0,0,0,141.717,11.753Zm-3.392-6.907c0-.014,0-.027,0-.036.149-3.239,2.448-3.587,3.433-3.587h.054c1.22.027,3.293.524,3.433,3.587a.088.088,0,0,0,0,.036c0,.032.321,3.1-1.116,4.72a2.961,2.961,0,0,1-2.326.967h-.045a2.951,2.951,0,0,1-2.322-.967C138.013,7.959,138.32,4.874,138.325,4.847Z" transform="translate(-132.519)"/><path class="a" d="M54.625,264.861v-.014c0-.036,0-.072,0-.113-.027-.894-.086-2.986-2.046-3.654l-.045-.014a13.036,13.036,0,0,1-3.749-1.707.61.61,0,1,0-.7,1,14.068,14.068,0,0,0,4.124,1.884c1.052.375,1.17,1.5,1.2,2.53a.907.907,0,0,0,0,.113,8.2,8.2,0,0,1-.095,1.4,16.624,16.624,0,0,1-7.963,1.852,16.719,16.719,0,0,1-7.968-1.856,7.761,7.761,0,0,1-.095-1.4c0-.036,0-.072,0-.113.032-1.03.149-2.155,1.2-2.53a14.2,14.2,0,0,0,4.124-1.884.61.61,0,1,0-.7-1,12.891,12.891,0,0,1-3.749,1.707l-.045.014c-1.96.673-2.019,2.764-2.046,3.654a.908.908,0,0,1,0,.113v.014a6.927,6.927,0,0,0,.23,2.046.579.579,0,0,0,.235.285,17.085,17.085,0,0,0,8.817,2.159,17.137,17.137,0,0,0,8.817-2.159.6.6,0,0,0,.235-.285A7.267,7.267,0,0,0,54.625,264.861Z" transform="translate(-36.073 -247.534)"/></g></svg>