<svg id="Review_Existing" data-name="Review Existing" xmlns="http://www.w3.org/2000/svg" width="29.817" height="31.075" viewBox="0 0 29.817 31.075">
  <path id="Path_379" data-name="Path 379" d="M64.657,70.8H69.54a.821.821,0,1,1,0,1.643H64.657a.821.821,0,1,1,0-1.643Zm0,3.272H69.54a.821.821,0,0,1,0,1.643H64.657a.821.821,0,0,1,0-1.643ZM61.9,85.59H57.021a.818.818,0,0,1,0-1.636H61.9a.818.818,0,0,1,0,1.636Zm0-3.33H57.021a.818.818,0,0,1,0-1.636H61.9a.818.818,0,0,1,0,1.636Zm0-3.272H57.021a.818.818,0,0,1,0-1.636H61.9a.818.818,0,0,1,0,1.636Zm0-3.272H57.021a.821.821,0,0,1,0-1.643H61.9a.821.821,0,0,1,0,1.643Zm0-3.272H57.021a.818.818,0,1,1,0-1.636H61.9a.823.823,0,0,1,.821.821.813.813,0,0,1-.821.815Zm1.931,5.73a.817.817,0,0,1,.815-.821h2.361a.818.818,0,1,1,.045,1.636h-2.4a.822.822,0,0,1-.821-.815Z" transform="translate(-52.594 -66.257)" fill="#6937c7"/>
  <path id="Path_380" data-name="Path 380" d="M239.59,248.184a7.6,7.6,0,0,0-5.313-2.284h-.135a7.645,7.645,0,1,0,5.448,2.284ZM234.136,259.7a6.153,6.153,0,1,1,6.153-6.153h0a6.15,6.15,0,0,1-6.153,6.153Z" transform="translate(-211.967 -230.122)" fill="#6937c7"/>
  <path id="Path_381" data-name="Path 381" d="M297.992,322.519a.919.919,0,0,0-1.3.141h0l-2.374,2.958-1.469-1.065a.919.919,0,0,0-1.078,1.489l2.175,1.578a.923.923,0,0,0,1.258-.167l2.919-3.638A.919.919,0,0,0,297.992,322.519Z" transform="translate(-272.698 -301.633)" fill="#6937c7"/>
  <path id="Path_382" data-name="Path 382" d="M19.788,0H3.709A3.711,3.711,0,0,0,0,3.709V25.024a3.715,3.715,0,0,0,3.709,3.709H14.444a9.314,9.314,0,0,1-1.412-4.966,9.437,9.437,0,0,1,9.426-9.426h.167c.3.006.584.026.873.058V3.709A3.711,3.711,0,0,0,19.788,0Zm1.963,12.9C9.978,14.739,11.242,25.313,12,27.187H3.869A2.6,2.6,0,0,1,1.4,24.575s.006-17.5.148-20.424A2.639,2.639,0,0,1,3.9,1.784s13.346-.141,15.451-.148a2.557,2.557,0,0,1,2.246,2.6" fill="#6937c7"/>
</svg>
