<svg xmlns="http://www.w3.org/2000/svg" width="32.779" height="33.6" viewBox="0 0 32.779 33.6">
  <g id="Group_223" data-name="Group 223" transform="translate(-1406 -2223)">
    <g id="noun_verification_2479376" transform="translate(1406 2223)">
      <path id="Path_403" data-name="Path 403" d="M4.8,31.12v3.92a.56.56,0,0,0,.56.56H32.24a.56.56,0,0,0,.56-.56V31.91a2.53,2.53,0,0,0,1.236-4.266L32.8,26.408V19.36a.56.56,0,0,0-.56-.56H31.12V9.84a2.8,2.8,0,0,0-2.8-2.8H22.16V4.8A2.8,2.8,0,0,0,19.36,2H5.92a2.8,2.8,0,0,0-2.8,2.8V26.64H2.56A.56.56,0,0,0,2,27.2v1.12A2.8,2.8,0,0,0,4.8,31.12Zm1.12,3.36V31.12h9.52a2.242,2.242,0,0,0,2.24-2.24V19.92h.8a6.144,6.144,0,0,0,8.089,7.439l3.877,3.877a2.517,2.517,0,0,0,1.236.674v2.57ZM24.4,26.64a5.04,5.04,0,1,1,5.04-5.04A5.046,5.046,0,0,1,24.4,26.64Zm8.844,3.8a1.422,1.422,0,0,1-2.008,0l-3.608-3.608a6.194,6.194,0,0,0,2.008-2.008l3.608,3.608A1.422,1.422,0,0,1,33.244,30.444ZM31.68,25.288l-1.521-1.521a6.048,6.048,0,0,0,.162-3.847H31.68ZM30,9.84V18.8h-.12a6.149,6.149,0,0,0-10.96,0H17.68V14.32h6.16a2.8,2.8,0,0,0,2.8-2.8V9.84a1.68,1.68,0,0,1,3.36,0ZM26.095,8.16a2.771,2.771,0,0,0-.575,1.68v1.68a1.68,1.68,0,1,1-3.36,0V8.16ZM21.04,4.8v6.72a2.771,2.771,0,0,0,.575,1.68H17.68V4.8a1.68,1.68,0,0,1,3.36,0Zm-16.8,0A1.682,1.682,0,0,1,5.92,3.12H17.135A2.771,2.771,0,0,0,16.56,4.8V28.88a1.12,1.12,0,1,1-2.24,0V27.2a.56.56,0,0,0-.56-.56H4.24ZM3.12,27.76H13.2v1.12A2.223,2.223,0,0,0,13.5,30H4.8a1.682,1.682,0,0,1-1.68-1.68Z" transform="translate(-2 -2)" fill="#522bc5"/>
      <rect id="Rectangle_197" data-name="Rectangle 197" width="2" height="1" transform="translate(11 14.6)" fill="#522bc5"/>
      <rect id="Rectangle_198" data-name="Rectangle 198" width="7" height="1" transform="translate(3 14.6)" fill="#522bc5"/>
      <rect id="Rectangle_199" data-name="Rectangle 199" width="1" height="1" transform="translate(3 4.6)" fill="#522bc5"/>
      <rect id="Rectangle_200" data-name="Rectangle 200" width="10" height="1" transform="translate(3 16.6)" fill="#522bc5"/>
      <rect id="Rectangle_201" data-name="Rectangle 201" width="10" height="1" transform="translate(3 19.6)" fill="#522bc5"/>
      <rect id="Rectangle_202" data-name="Rectangle 202" width="10" height="1" transform="translate(3 21.6)" fill="#522bc5"/>
      <rect id="Rectangle_203" data-name="Rectangle 203" width="2" height="1" transform="translate(11 6.6)" fill="#522bc5"/>
      <rect id="Rectangle_204" data-name="Rectangle 204" width="7" height="1" transform="translate(3 6.6)" fill="#522bc5"/>
      <rect id="Rectangle_205" data-name="Rectangle 205" width="2" height="2" transform="translate(11 8.6)" fill="#522bc5"/>
      <rect id="Rectangle_206" data-name="Rectangle 206" width="7" height="2" transform="translate(3 8.6)" fill="#522bc5"/>
      <rect id="Rectangle_207" data-name="Rectangle 207" width="1" height="1" transform="translate(3 12.6)" fill="#522bc5"/>
      <path id="Path_404" data-name="Path 404" d="M38.369,35.817l-1.284-1.284-.792.792L37.973,37a.56.56,0,0,0,.792,0l3.92-3.92-.792-.792Z" transform="translate(-17.089 -15.329)" fill="#522bc5"/>
    </g>
  </g>
</svg>
