<svg xmlns="http://www.w3.org/2000/svg" width="32.391" height="30.642" viewBox="0 0 32.391 30.642"><defs><style>.a{fill:#6937c7;}</style></defs><g transform="translate(-11.5 -44.379)"><g transform="translate(11.5 44.379)"><path class="a" d="M38.627,26.945H16.76a5.262,5.262,0,0,0,0,10.525h6.168v7.085l-3.884-3.884a2.532,2.532,0,0,0-3.581,0,2.542,2.542,0,0,0,0,3.585l7.589,7.584a.421.421,0,0,0,.3.123h16.9a.421.421,0,0,0,.421-.421V40.815a2.532,2.532,0,0,0-4.644-1.4,2.536,2.536,0,0,0-3.9-.4,2.59,2.59,0,0,0-.324.4,2.535,2.535,0,0,0-3.8-.49V37.47H38.627a5.268,5.268,0,0,0,5.264-5.26v0A5.269,5.269,0,0,0,38.627,26.945ZM28.485,39.619a1.694,1.694,0,0,1,2.89,1.2.421.421,0,1,0,.841,0,1.693,1.693,0,0,1,3.386,0,.421.421,0,0,0,.841,0,1.691,1.691,0,1,1,3.382,0V51.123H38.343V48.67a.421.421,0,0,0-.841,0v2.453H23.524l-7.464-7.461a1.7,1.7,0,0,1,0-2.4,1.731,1.731,0,0,1,2.391,0l4.6,4.6a.421.421,0,0,0,.718-.3V31.248a1.691,1.691,0,1,1,3.382,0v9.567a.421.421,0,0,0,.841,0A1.694,1.694,0,0,1,28.485,39.619ZM43.05,32.21a4.426,4.426,0,0,1-4.423,4.419H27.993V31.248a2.532,2.532,0,0,0-5.065,0v5.381H16.76a4.421,4.421,0,0,1,0-8.842H38.627a4.426,4.426,0,0,1,4.423,4.419Z" transform="translate(-11.5 -21.323)"/><path class="a" d="M20.181,38.155h-.524a2.317,2.317,0,0,1-1.369-4.186.421.421,0,0,0-.5-.677A3.159,3.159,0,0,0,19.657,39h.524a.421.421,0,1,0,0-.841Z" transform="translate(-14.397 -24.952)"/><path class="a" d="M30.394,44.965h-.473a.421.421,0,1,0,0,.841h.473a.421.421,0,0,0,0-.841Z" transform="translate(-21.928 -31.762)"/><path class="a" d="M43.782,15.566a.421.421,0,0,0,.421-.421V14a.421.421,0,1,0-.841,0v1.145A.421.421,0,0,0,43.782,15.566Z" transform="translate(-29.958 -13.579)"/><path class="a" d="M54.379,20.147a.419.419,0,0,0,.3-.123l.81-.81a.421.421,0,1,0-.595-.595l-.81.81a.421.421,0,0,0,.3.718Z" transform="translate(-36.098 -16.428)"/><path class="a" d="M31.963,20.485a.421.421,0,0,0,.595-.595l-.81-.81a.421.421,0,1,0-.595.595Z" transform="translate(-22.814 -16.695)"/><path class="a" d="M73.733,72.223a.421.421,0,0,0,.421-.421v-.625a.421.421,0,1,0-.841,0V71.8A.421.421,0,0,0,73.733,72.223Z" transform="translate(-47.31 -46.705)"/></g></g></svg>