<svg xmlns="http://www.w3.org/2000/svg" width="28.049" height="28.045" viewBox="0 0 28.049 28.045">
  <g id="Group_247" data-name="Group 247" transform="translate(0)">
    <g id="Group_228" data-name="Group 228" transform="translate(0 0)">
      <g id="Group_227" data-name="Group 227">
        <path id="Path_409" data-name="Path 409" d="M73.63,74.71H49.887a.79.79,0,0,1-.085,0s-.082,0-.085-.006.157.03.039,0c-.054-.012-.106-.024-.157-.039-.027-.009-.16-.063-.079-.024s-.051-.027-.073-.039c-.045-.024-.091-.054-.136-.085-.015-.009-.069-.051,0,0s-.015-.015-.03-.027c-.033-.03-.066-.063-.1-.1-.018-.018-.033-.042-.051-.06-.048-.048.039.042.033.045A1.041,1.041,0,0,1,49,74.1s.042.124.015.033c-.009-.027-.018-.051-.024-.076-.015-.045-.024-.091-.036-.139-.027-.139,0,.088-.006-.024,0-.042-.006-.085-.006-.127V50.761c0-.245,0-.493,0-.737,0-.042,0-.085.006-.127.006-.124,0,.039-.006.036a.563.563,0,0,1,.015-.082c.012-.051.027-.106.042-.157a.519.519,0,0,1,.027-.076c.006,0-.057.112-.021.051.024-.039.042-.085.063-.124a.724.724,0,0,1,.088-.133s-.1.115-.021.03c.018-.018.033-.039.051-.057.036-.039.076-.073.115-.109.076-.069-.106.063.018-.012.039-.024.079-.051.118-.073.024-.012.048-.024.069-.036.085-.045-.033.009-.033.012.006-.036.257-.073.293-.082.066-.015-.057.006-.057.006.021,0,.06-.006.085-.006a.792.792,0,0,1,.085,0H73.627a1.06,1.06,0,0,0,.169.009c-.1.015-.1-.018-.039,0l.079.018a1.51,1.51,0,0,1,.154.048c.112.036-.036-.012-.033-.015a.406.406,0,0,1,.073.036c.042.021.082.045.121.069.018.012.033.021.048.033.1.063-.03-.021-.027-.024s.1.091.118.106.112.106.106.118-.069-.1-.033-.042c.012.024.03.042.045.066.024.039.048.079.069.121a.807.807,0,0,1,.036.073s-.045-.127-.015-.033c.018.051.033.1.048.154.006.024.033.181.018.082s0,.057,0,.088v23.8c0,.042,0,.085-.006.127,0,.112.024-.115-.006.024a1.18,1.18,0,0,1-.036.139c-.009.027-.018.051-.024.076-.027.091.012-.036.015-.033a.685.685,0,0,1-.063.124l-.073.118c-.054.088.076-.082-.015.018-.03.033-.063.066-.1.1-.018.018-.039.036-.057.051-.066.063.03-.024.03-.021,0,.033-.208.127-.239.142-.091.051.109-.036-.021.009a1.154,1.154,0,0,1-.136.039l-.079.018c-.057.015-.06-.018.039,0a.455.455,0,0,0-.169,0,.6.6,0,0,0,0,1.209,2.17,2.17,0,0,0,2.13-1.937,2.912,2.912,0,0,0,.015-.363V50.063a2.178,2.178,0,0,0-2.182-2.188H50.047c-.085,0-.169,0-.254,0a2.173,2.173,0,0,0-2.055,2.015c-.021.263-.006.535-.006.8v23.04a2.157,2.157,0,0,0,2.191,2.188h23.71a.61.61,0,0,0,.6-.6A.621.621,0,0,0,73.63,74.71Z" transform="translate(-47.727 -47.875)" fill="#6937c7"/>
      </g>
    </g>
    <g id="Group_230" data-name="Group 230" transform="translate(13.421 0.003)">
      <g id="Group_229" data-name="Group 229">
        <path id="Path_410" data-name="Path 410" d="M493.122,75.419V49.681c0-.351.006-.7,0-1.048v-.045a.6.6,0,1,0-1.209,0V74.325c0,.351-.006.7,0,1.048v.045a.6.6,0,1,0,1.209,0Z" transform="translate(-491.911 -47.982)" fill="#6937c7"/>
      </g>
    </g>
    <g id="Group_232" data-name="Group 232" transform="translate(0.008 13.417)">
      <g id="Group_231" data-name="Group 231">
        <path id="Path_411" data-name="Path 411" d="M48.587,493.122H74.325c.351,0,.7.006,1.048,0h.045a.6.6,0,1,0,0-1.209H49.681c-.351,0-.7-.006-1.048,0h-.045a.6.6,0,1,0,0,1.209Z" transform="translate(-47.982 -491.911)" fill="#6937c7"/>
      </g>
    </g>
    <g id="Group_234" data-name="Group 234" transform="translate(6.701 3.668)">
      <g id="Group_233" data-name="Group 233">
        <path id="Path_412" data-name="Path 412" d="M270.709,175.809v-5.922a.6.6,0,1,0-1.209,0v5.922a.6.6,0,1,0,1.209,0Z" transform="translate(-269.5 -169.282)" fill="#6937c7"/>
      </g>
    </g>
    <g id="Group_236" data-name="Group 236" transform="translate(3.739 6.63)">
      <g id="Group_235" data-name="Group 235">
        <path id="Path_413" data-name="Path 413" d="M172.087,268.509h5.922a.6.6,0,1,0,0-1.209h-5.922a.6.6,0,1,0,0,1.209Z" transform="translate(-171.482 -267.3)" fill="#6937c7"/>
      </g>
    </g>
    <g id="Group_238" data-name="Group 238" transform="translate(4.61 17.995)">
      <g id="Group_237" data-name="Group 237">
        <path id="Path_414" data-name="Path 414" d="M205.513,647.785l-1.411-1.411-2.26-2.26-.517-.517a.6.6,0,0,0-.855.855l1.411,1.411,2.26,2.26.517.517a.6.6,0,0,0,.855-.855Z" transform="translate(-200.298 -643.423)" fill="#6937c7"/>
      </g>
    </g>
    <g id="Group_240" data-name="Group 240" transform="translate(4.608 17.997)">
      <g id="Group_239" data-name="Group 239">
        <path id="Path_415" data-name="Path 415" d="M201.252,648.713l1.411-1.411,2.26-2.26.517-.517a.6.6,0,0,0-.855-.855l-1.411,1.411-2.26,2.26-.517.517a.6.6,0,0,0,.855.855Z" transform="translate(-200.223 -643.498)" fill="#6937c7"/>
      </g>
    </g>
    <g id="Group_242" data-name="Group 242" transform="translate(17.14 6.63)">
      <g id="Group_241" data-name="Group 241">
        <path id="Path_416" data-name="Path 416" d="M615.587,268.509h5.922a.6.6,0,0,0,0-1.209h-5.922a.6.6,0,1,0,0,1.209Z" transform="translate(-614.982 -267.3)" fill="#6937c7"/>
      </g>
    </g>
    <g id="Group_244" data-name="Group 244" transform="translate(17.14 18.729)">
      <g id="Group_243" data-name="Group 243">
        <path id="Path_417" data-name="Path 417" d="M615.587,668.909h5.922a.6.6,0,0,0,0-1.209h-5.922a.6.6,0,1,0,0,1.209Z" transform="translate(-614.982 -667.7)" fill="#6937c7"/>
      </g>
    </g>
    <g id="Group_246" data-name="Group 246" transform="translate(17.14 21.448)">
      <g id="Group_245" data-name="Group 245">
        <path id="Path_418" data-name="Path 418" d="M615.587,758.909h5.922a.6.6,0,0,0,0-1.209h-5.922a.6.6,0,1,0,0,1.209Z" transform="translate(-614.982 -757.7)" fill="#6937c7"/>
      </g>
    </g>
  </g>
</svg>
