<svg xmlns="http://www.w3.org/2000/svg" width="32.117" height="32.466" viewBox="0 0 32.117 32.466">
  <g id="noun_invest_2419764" transform="translate(-32.114 -85.891)">
    <g id="Group_219" data-name="Group 219" transform="translate(7.114 68.224)">
      <path id="Path_402" data-name="Path 402" d="M91.757,82.192a3.975,3.975,0,1,1-3.975,3.975A3.975,3.975,0,0,1,91.757,82.192ZM72.678,89.707a.642.642,0,0,1,0-1.284h6.713a.642.642,0,0,1,.642.642v.729c.976,0,2.069-.052,3.031.011a9.352,9.352,0,0,1-.2-3.691,10.094,10.094,0,0,1,2.729-5.031,15.646,15.646,0,0,0,3.142-4.827.64.64,0,0,1,1.169.522,16.781,16.781,0,0,1-3.368,5.168,8.885,8.885,0,0,0-2.408,4.389c-.27,1.53.142,2.388.3,3.716a11.326,11.326,0,0,1,3.4,1.587h4.584a2.332,2.332,0,0,1,2.4,1.69c1.161-.537,3.014-1.391,4.526-2.078a8.013,8.013,0,0,0,.145-3.895,9.269,9.269,0,0,0-1.642-4.08c-.344-.451-.677-.811-1.019-1.18a16.634,16.634,0,0,1-3.44-5.318.64.64,0,0,1,1.169-.522,15.5,15.5,0,0,0,3.21,4.972c.374.405.738.8,1.1,1.27a10.561,10.561,0,0,1,1.888,4.652,11.382,11.382,0,0,1,.063,3.437c3.184-1.413,4.613,2.122,1.984,3.639-3.706,2.139-7.631,3.98-11.339,6.105-2.08,1.192-7.047-.892-9.136-1.805H80.033v.7a.643.643,0,0,1-.642.642H73.908a.642.642,0,0,1,0-1.284h4.842v-8.88H72.678ZM90.061,72.726a.64.64,0,0,1-1.153.557,8.76,8.76,0,0,0-1.967-2.978c-.765-.8-.23-1.652.656-1.952a2.14,2.14,0,0,1,1.9.19c.552.5.761,1.354,1.171.521a1.162,1.162,0,0,1,2.147-.027c.511.921.518.1,1.178-.494a2.139,2.139,0,0,1,1.9-.19c.887.3,1.421,1.151.656,1.952a8.758,8.758,0,0,0-1.966,2.978.641.641,0,0,1-1.154-.557c1.059-2.186,1.316-2.438,1.869-2.98.376-.369-.323-.476-.759.125-.772,1.066-2.246,1.4-2.778-.07-.493,1.491-2.01,1.021-2.792.052-.534-.662-1.083-.416-.768-.107.554.542.81.794,1.869,2.98ZM88.2,75.318a.642.642,0,0,1,0-1.284h7.091a.642.642,0,0,1,0,1.284ZM82.747,91.079H80.033v6.163l2.416,0a.638.638,0,0,1,.261.056c1.67.748,6.458,2.867,8.1,1.927,3.713-2.129,7.641-3.97,11.347-6.109,1.31-.756.51-1.925-.795-1.349-1.936.855-6.775,3.077-7.11,3.232a2.838,2.838,0,0,1-1.933.616H87.284c-.729,0-.729.4-.729.4a.642.642,0,0,1-1.284,0,1.768,1.768,0,0,1,2.013-1.683h5.035c1.87,0,1.427-1.409.095-1.409l-4.774,0a.642.642,0,0,1-.364-.113A9.217,9.217,0,0,0,82.747,91.079Zm-7.254,3.567h1.678a.642.642,0,0,1,.643.642v1.442a.642.642,0,0,1-.643.642H75.493a.642.642,0,0,1-.642-.642V95.287A.642.642,0,0,1,75.493,94.646Zm14.423-7.669.892-.089a.912.912,0,0,0,.986.867c.385,0,.886-.156.886-.624,0-.486-.783-.576-1.15-.668-.723-.181-1.444-.5-1.444-1.365,0-.773.61-1.147,1.285-1.242v-.509h.771v.51a1.357,1.357,0,0,1,1.323,1.359l-.918.032c-.081-.49-.342-.658-.824-.658-.28,0-.764.084-.764.447,0,.392.691.513.974.58.88.207,1.664.468,1.664,1.509,0,.9-.691,1.291-1.456,1.38v.478h-.771V88.5A1.565,1.565,0,0,1,89.916,86.977Z" transform="translate(-47.045 -50.557)" fill="#6937c7" fill-rule="evenodd"/>
    </g>
  </g>
</svg>
