<svg xmlns="http://www.w3.org/2000/svg" width="20.685" height="20.67" viewBox="0 0 20.685 20.67"><g transform="translate(-6.725 -6.812)"><path class="a" d="M77.006,73.445l-.275-.275-.266-.257.009-.01-1.235-1.235a3.85,3.85,0,0,0,.19-1.2,3.767,3.767,0,0,0-4.759-3.638H70.66a.841.841,0,0,0-.551.551.794.794,0,0,0,.228.807c.086.086,1.035,1.045,1.472,1.482-.029.3-.066.608-.1.807a8.3,8.3,0,0,1-.826.114c-.446-.446-1.472-1.463-1.472-1.463a.833.833,0,0,0-.579-.257.81.81,0,0,0-.769.6,3.793,3.793,0,0,0,.969,3.657,3.734,3.734,0,0,0,2.669,1.1,3.851,3.851,0,0,0,1.2-.19l1.786,1.786.684.655c.095-.048.19-.1.285-.161l.465-.295L73.1,73.017l-.276.114a3,3,0,0,1-1.13.228,2.866,2.866,0,0,1-2.042-.845,2.9,2.9,0,0,1-.769-2.688c.266.266,1.121,1.111,1.463,1.453a.684.684,0,0,0,.494.2h.124L71,71.459a7.405,7.405,0,0,0,1.187-.19l.1-.029.066-.057c.019-.019.048-.038.067-.057l.076-.076.029-.1a8.122,8.122,0,0,0,.19-1.235v-.066a.677.677,0,0,0-.161-.484c-.332-.332-1.216-1.225-1.491-1.5a2.895,2.895,0,0,1,3.534,2.821,2.828,2.828,0,0,1-.228,1.13l-.114.275,2.983,2.983.294-.484a2.652,2.652,0,0,0,.171-.323Z" transform="translate(-55.388 -54.199)"/><path class="a" d="M163.5,137.66c.01,0,.01-.01,0,0Z" transform="translate(-141.882 -118.414)"/><path class="a" d="M158.266,132.447l-.257-.247H158Z" transform="translate(-136.904 -113.476)"/><path class="a" d="M27.356,16.007a1.091,1.091,0,0,0-1.092-.893,1.742,1.742,0,0,1-1.624-1.073,1.765,1.765,0,0,1,.437-1.938,1,1,0,0,0,.114-1.358,9.338,9.338,0,0,0-1.643-1.653.987.987,0,0,0-1.377.114,1.828,1.828,0,0,1-1.947.437,1.749,1.749,0,0,1-1.064-1.691,1.032,1.032,0,0,0-.883-1.073h-.009a11.224,11.224,0,0,0-2.327-.009,1,1,0,0,0-.893,1.045A1.739,1.739,0,0,1,13.99,9.585a1.849,1.849,0,0,1-1.938-.437,1,1,0,0,0-1.358-.114,9.148,9.148,0,0,0-1.681,1.634.987.987,0,0,0,.114,1.377,1.722,1.722,0,0,1,.427,1.947,1.814,1.814,0,0,1-1.729,1.064,1,1,0,0,0-1.035.883,10.852,10.852,0,0,0,0,2.356,1.112,1.112,0,0,0,1.111.893H7.92a1.694,1.694,0,0,1,1.6,1.073A1.765,1.765,0,0,1,9.079,22.2a1,1,0,0,0-.114,1.358A10.352,10.352,0,0,0,10.6,25.212a.987.987,0,0,0,1.377-.114,1.828,1.828,0,0,1,1.947-.437,1.732,1.732,0,0,1,1.054,1.691,1.032,1.032,0,0,0,.883,1.073h.01c.4.038.788.057,1.2.057a10.983,10.983,0,0,0,1.13-.057,1,1,0,0,0,.893-1.045,1.764,1.764,0,0,1,1.073-1.672,1.783,1.783,0,0,1,1.928.446,1,1,0,0,0,1.358.114,10.567,10.567,0,0,0,1.672-1.653.987.987,0,0,0-.114-1.377,1.721,1.721,0,0,1,1.149-3h.114a1.029,1.029,0,0,0,1.054-.883v-.01A10.1,10.1,0,0,0,27.356,16.007Zm-3.914,3.847a2.545,2.545,0,0,0,.636,2.85.087.087,0,0,1,.01.114,8.756,8.756,0,0,1-1.463,1.444.078.078,0,0,1-.114-.01,2.579,2.579,0,0,0-2.821-.646,2.539,2.539,0,0,0-1.567,2.432.093.093,0,0,1-.076.095,8.449,8.449,0,0,1-.978.057,9.327,9.327,0,0,1-1.035-.057.1.1,0,0,1-.085-.095,2.538,2.538,0,0,0-1.539-2.479,2.625,2.625,0,0,0-2.85.636.087.087,0,0,1-.114.01,9.563,9.563,0,0,1-1.415-1.425.078.078,0,0,1,.009-.114,2.523,2.523,0,0,0-1.672-4.389H8.319a.294.294,0,0,1-.18-.085,9.177,9.177,0,0,1,0-2.042c.009-.057.038-.076.095-.076h.01a2.592,2.592,0,0,0,2.46-1.548,2.545,2.545,0,0,0-.636-2.85.087.087,0,0,1-.01-.114,9.952,9.952,0,0,1,1.453-1.444.078.078,0,0,1,.114.009,2.6,2.6,0,0,0,2.821.646A2.539,2.539,0,0,0,16.013,8.34a.093.093,0,0,1,.076-.095,9.527,9.527,0,0,1,2.014.009.1.1,0,0,1,.085.095,2.546,2.546,0,0,0,1.539,2.479,2.625,2.625,0,0,0,2.85-.636.1.1,0,0,1,.123-.009,8.739,8.739,0,0,1,1.415,1.425.078.078,0,0,1-.01.114,2.523,2.523,0,0,0,1.729,4.389A.265.265,0,0,1,26,16.2a8.486,8.486,0,0,1,.01,2.023.1.1,0,0,1-.085.085h-.142A2.544,2.544,0,0,0,23.442,19.854Z" transform="translate(0 0)"/></g></svg>