<svg xmlns="http://www.w3.org/2000/svg" width="31.044" height="25.4" viewBox="0 0 31.044 25.4">
  <g id="Transaction_Log" data-name="Transaction Log" transform="translate(-2 -6)">
    <path id="Path_1409" data-name="Path 1409" d="M32.339,6H2.706A.706.706,0,0,0,2,6.706v4.939a.706.706,0,0,0,.706.706h.706V30.694a.706.706,0,0,0,.706.706H30.928a.706.706,0,0,0,.706-.706V12.35h.706a.706.706,0,0,0,.706-.706V6.706A.706.706,0,0,0,32.339,6ZM30.222,29.989H4.822V12.35h25.4Zm1.411-19.05H3.411V7.411H31.633Z" transform="translate(0 0)" fill="#6937c7"/>
    <path id="Path_1410" data-name="Path 1410" d="M13.707,22.956H28.523a.706.706,0,0,0,0-1.411H15.407l2.321-2.321a.706.706,0,0,0-.995-.995l-3.528,3.528a.706.706,0,0,0,.5,1.2Z" transform="translate(-3.24 -3.551)" fill="#6937c7"/>
    <path id="Path_1411" data-name="Path 1411" d="M13.706,29.411H26.822L24.5,31.732a.706.706,0,1,0,.995.995L29.023,29.2a.706.706,0,0,0-.5-1.2H13.706a.706.706,0,0,0,0,1.411Z" transform="translate(-3.239 -6.478)" fill="#6937c7"/>
  </g>
</svg>
