<svg xmlns="http://www.w3.org/2000/svg" width="28.937" height="25.433" viewBox="0 0 28.937 25.433">
  <path id="View_Portfolio_" data-name="View Portfolio " d="M28.1,3.391H20.4V2.543A2.546,2.546,0,0,0,17.86,0H11.078A2.546,2.546,0,0,0,8.535,2.543v.848H.848A.85.85,0,0,0,0,4.239V22.89a2.546,2.546,0,0,0,2.543,2.543H26.394a2.546,2.546,0,0,0,2.543-2.543V4.253a.823.823,0,0,0-.842-.862ZM10.23,2.543a.849.849,0,0,1,.848-.848H17.86a.849.849,0,0,1,.848.848v.848H10.23ZM26.914,5.087l-2.633,7.9a.846.846,0,0,1-.8.58H18.708v-.848a.848.848,0,0,0-.848-.848H11.078a.848.848,0,0,0-.848.848v.848H5.461a.846.846,0,0,1-.8-.58l-2.633-7.9Zm-9.9,8.478v1.7H11.926v-1.7Zm10.23,9.326a.849.849,0,0,1-.848.848H2.544A.849.849,0,0,1,1.7,22.89V9.463l1.353,4.058A2.54,2.54,0,0,0,5.461,15.26H10.23v.848a.848.848,0,0,0,.848.848H17.86a.848.848,0,0,0,.848-.848V15.26h4.769a2.54,2.54,0,0,0,2.413-1.739l1.353-4.058Zm0,0" transform="translate(0)" fill="#6937c7"/>
</svg>
