<svg xmlns="http://www.w3.org/2000/svg" width="32.25" height="32.25" viewBox="0 0 32.25 32.25">
  <g id="noun_watchlist_3424188" transform="translate(0)">
    <path id="Path_371" data-name="Path 371" d="M36.792,43a1.792,1.792,0,1,0,1.792,1.792A1.792,1.792,0,0,0,36.792,43Zm0,2.389a.6.6,0,1,1,.6-.6A.6.6,0,0,1,36.792,45.389Z" transform="translate(-14.097 -17.319)" fill="#522bc5"/>
    <path id="Path_372" data-name="Path 372" d="M22.694,22.694c-5.143,0-9.219,4.186-9.39,4.365a.6.6,0,0,0,0,.827,16.918,16.918,0,0,0,4.5,3.17H6.569a.6.6,0,0,1-.6-.6V2.986a2.942,2.942,0,0,0-.06-.57c-.01-.051-.025-.1-.038-.151a2.974,2.974,0,0,0-.129-.4c-.022-.054-.044-.106-.069-.158a2.917,2.917,0,0,0-.216-.378c-.024-.037-.045-.076-.07-.112a.191.191,0,0,1-.016-.025H23.292a1.792,1.792,0,0,1,1.792,1.792V21.27a.6.6,0,0,0,1.194,0V2.986A2.99,2.99,0,0,0,23.292,0H2.986a.576.576,0,0,0-.078.016,1.7,1.7,0,0,0-.214,0A3.066,3.066,0,0,0,0,3.089V20.9a1.792,1.792,0,0,0,1.792,1.792H2.986a.6.6,0,1,0,0-1.194H1.792a.6.6,0,0,1-.6-.6V3.089A1.863,1.863,0,0,1,2.807,1.2a1.911,1.911,0,0,1,.281,0,1.778,1.778,0,0,1,.179.019,2.124,2.124,0,0,1,.353.093,1.672,1.672,0,0,1,.156.071,1.758,1.758,0,0,1,.165.09,1.741,1.741,0,0,1,.151.111,1.612,1.612,0,0,1,.131.108,1.9,1.9,0,0,1,.135.151c.033.04.069.077.1.119a1.835,1.835,0,0,1,.119.2c.018.035.041.068.057.1a1.779,1.779,0,0,1,.091.283c.005.021.014.04.019.06a1.808,1.808,0,0,1,.035.37V30.458A1.792,1.792,0,0,0,6.569,32.25H22.694c5.143,0,9.219-4.186,9.39-4.365a.6.6,0,0,0,0-.827C31.913,26.88,27.837,22.694,22.694,22.694Zm-3.939,7.477a16.075,16.075,0,0,1-4.151-2.7,15.989,15.989,0,0,1,4.154-2.7,4.759,4.759,0,0,0,0,5.4Zm3.939.884a3.583,3.583,0,1,1,3.583-3.583,3.583,3.583,0,0,1-3.583,3.583Zm3.936-.88a4.759,4.759,0,0,0,0-5.4,16.075,16.075,0,0,1,4.154,2.7,15.989,15.989,0,0,1-4.154,2.7Z" fill="#522bc5"/>
    <ellipse id="Ellipse_18" data-name="Ellipse 18" cx="0.5" cy="1" rx="0.5" ry="1" transform="translate(8 5.25)" fill="#522bc5"/>
    <path id="Path_373" data-name="Path 373" d="M19.6,11.194h9.556a.6.6,0,1,0,0-1.194H19.6a.6.6,0,1,0,0,1.194Z" transform="translate(-7.653 -4.028)" fill="#522bc5"/>
    <ellipse id="Ellipse_19" data-name="Ellipse 19" cx="0.5" cy="1" rx="0.5" ry="1" transform="translate(8 9.25)" fill="#522bc5"/>
    <path id="Path_374" data-name="Path 374" d="M19.6,17.194h4.778a.6.6,0,1,0,0-1.194H19.6a.6.6,0,1,0,0,1.194Z" transform="translate(-7.653 -6.444)" fill="#522bc5"/>
    <circle id="Ellipse_20" data-name="Ellipse 20" cx="0.5" cy="0.5" r="0.5" transform="translate(8 13.25)" fill="#522bc5"/>
    <path id="Path_375" data-name="Path 375" d="M19.6,23.194h7.167a.6.6,0,0,0,0-1.194H19.6a.6.6,0,1,0,0,1.194Z" transform="translate(-7.653 -8.861)" fill="#522bc5"/>
    <circle id="Ellipse_21" data-name="Ellipse 21" cx="0.5" cy="0.5" r="0.5" transform="translate(8 16.25)" fill="#522bc5"/>
    <path id="Path_376" data-name="Path 376" d="M30.347,28.6a.6.6,0,0,0-.6-.6H19.6a.6.6,0,1,0,0,1.194H29.75A.6.6,0,0,0,30.347,28.6Z" transform="translate(-7.653 -11.278)" fill="#522bc5"/>
    <circle id="Ellipse_22" data-name="Ellipse 22" cx="0.5" cy="0.5" r="0.5" transform="translate(8 20.25)" fill="#522bc5"/>
    <path id="Path_377" data-name="Path 377" d="M19.6,34a.6.6,0,1,0,0,1.194h1.792a.6.6,0,0,0,0-1.194Z" transform="translate(-7.653 -13.694)" fill="#522bc5"/>
  </g>
</svg>
