<svg xmlns="http://www.w3.org/2000/svg" width="232.148" height="118.244" viewBox="0 0 232.148 118.244">
  <g id="Group_993" data-name="Group 993" transform="translate(-95 -280.2)">
    <g id="Group_526" data-name="Group 526" transform="translate(-280.755 7.938)">
      <ellipse id="Ellipse_80" data-name="Ellipse 80" cx="107.517" cy="7.515" rx="107.517" ry="7.515" transform="translate(392.869 375.477)" fill="#d8d2f2" opacity="0.6"/>
    </g>
    <g id="Group_588" data-name="Group 588" transform="translate(-332.268 -179.094)">
      <g id="Group_570" data-name="Group 570" transform="translate(567.101 469.189)">
        <path id="Path_751" data-name="Path 751" d="M2409.333,773.436s7.576,7.456,7.923,10.268-3.437,7.21-3.437,7.21Z" transform="translate(-2393.176 -758.609)" fill="#5c17b2"/>
        <path id="Path_752" data-name="Path 752" d="M2260.594,1742.577s-.246,3.964-1.013,4.021c-.1.007-3.89.007-3.89.007l-4.835-.028a1.569,1.569,0,0,1,1.445-1.411c1.414-.246,3.779-1.24,4.635-3.108C2257.837,1740.093,2260.594,1742.577,2260.594,1742.577Z" transform="translate(-2247.171 -1650.302)" fill="#163560"/>
        <path id="Path_753" data-name="Path 753" d="M2397.437,1742.577s-.246,3.964-1.012,4.021c-.1.007-3.89.007-3.89.007l-4.835-.028a1.569,1.569,0,0,1,1.445-1.411c1.413-.246,3.779-1.24,4.635-3.108C2394.68,1740.093,2397.437,1742.577,2397.437,1742.577Z" transform="translate(-2373.245 -1650.302)" fill="#163560"/>
        <path id="Path_754" data-name="Path 754" d="M2306.544,1145.23s1.265,8.088,5.982,22.446,5.36,20.575,5.36,20.575l5.061-.142s.043-15.691-2.131-22.911-.469-26.028-.469-26.028Z" transform="translate(-2298.477 -1095.558)" fill="#163560"/>
        <path id="Path_755" data-name="Path 755" d="M2275.208,1144.8a196.306,196.306,0,0,0,1.93,27.153c2.108,14.965,1.394,21.317,1.394,21.317l5.05.168s3.018-14.971,2.153-22.461,4.133-25.7,4.133-25.7Z" transform="translate(-2269.603 -1100.745)" fill="#1c468a"/>
        <path id="Path_756" data-name="Path 756" d="M2331.3,711.851l-2.382,1.764-3.443-.725c.048-.314.275-1.615.482-2.794l.037-.207c.177-1,.33-1.864.33-1.864l3.215-1.6,1.2-.6c0,.021-.093,1.113-.105,1.272A10.293,10.293,0,0,0,2331.3,711.851Z" transform="translate(-2315.916 -696.319)" fill="#ffb27d"/>
        <path id="Path_757" data-name="Path 757" d="M2310.318,756.559c.075-.032,4.683-1.392,5.184-1.226s.8,1.134.8,1.134l-7.537,1.7A3.743,3.743,0,0,1,2310.318,756.559Z" transform="translate(-2300.52 -741.917)" fill="#5c17b2"/>
        <path id="Path_758" data-name="Path 758" d="M2281.691,800.445c-.781,3.563-13.78,3.986-17.13.751-.381-.369-.4-2.084-.256-4.4.281-4.518,1.184-11.315,1.219-14.787a27.492,27.492,0,0,1,.554-4.949,40.187,40.187,0,0,1,1.649-5.924s6.349-2.053,7.537-1.7C2280.987,771.118,2282.472,796.882,2281.691,800.445Z" transform="translate(-2259.485 -754.887)" fill="#906add"/>
        <path id="Path_759" data-name="Path 759" d="M2265.273,878.668c.281-4.518,1.184-11.315,1.219-14.787a27.513,27.513,0,0,1,.554-4.949l3.819-.674S2274.6,873.51,2265.273,878.668Z" transform="translate(-2260.454 -836.755)" fill="#5c17b2"/>
        <path id="Path_760" data-name="Path 760" d="M2278.821,1030.629a.9.9,0,0,1-.286,1.04,1.742,1.742,0,0,0-.776,1.589c.125.495,1.324,1.3,1.74,1.171s1.262-.782,1.171-1.043.569-2.29-.444-3.071A.818.818,0,0,0,2278.821,1030.629Z" transform="translate(-2271.933 -995.013)" fill="#ffb27d"/>
        <path id="Path_761" data-name="Path 761" d="M2215.188,781.5s-3.717.574-6.685,4.947-4.92,7.625-4.374,9.2,5.53,7.043,6.389,7.043a2.3,2.3,0,0,0,2.323-2.031s-3.508-5.259-2.817-6.046c.3-.337,4.555-3.795,5.163-2.233C2216.194,794.968,2215.188,781.5,2215.188,781.5Z" transform="translate(-2204.037 -766.038)" fill="#906add"/>
        <path id="Path_762" data-name="Path 762" d="M2336.031,714.136c-.706,1.351-3.337,2.52-4.435,2.949.012-.069.025-.139.037-.207.177-1,.33-1.864.33-1.864l3.216-1.6C2335.889,713.4,2336.322,713.58,2336.031,714.136Z" transform="translate(-2321.557 -703.308)" fill="#fca56b"/>
        <path id="Path_763" data-name="Path 763" d="M2307.916,619.618s5.8,1.81,6.872-1.82,2.542-5.841-1.117-7.15-4.79-.137-5.442.988S2306.434,619.054,2307.916,619.618Z" transform="translate(-2299.073 -608.1)" fill="#ffb27d"/>
        <path id="Path_764" data-name="Path 764" d="M2325.687,588.358s.335,4.358,1.212,4.161,1.672-.344,1.533.972-1.365,2.844,1.331,3.054,6.634-6.991,5.9-8.342C2333.56,584.3,2322.635,583.607,2325.687,588.358Z" transform="translate(-2315.62 -585.034)" fill="#163560"/>
      </g>
      <g id="Group_573" data-name="Group 573" transform="translate(602.832 475.155)">
        <g id="Group_571" data-name="Group 571" transform="translate(7.177 15.38)">
          <path id="Path_765" data-name="Path 765" d="M2757.332,1133.365a8.522,8.522,0,0,1-3.639.146,5.671,5.671,0,0,0-4.241.789c-.392.516-.248.721.451.9s3.178,1.235,4.807.623a12.98,12.98,0,0,1,3.753-.634Z" transform="translate(-2749.238 -1111.557)" fill="#e49963"/>
          <path id="Path_766" data-name="Path 766" d="M2851.817,858.74s-2.5,17.765-6.638,19.356a91.251,91.251,0,0,1-13.738,2.744s-.654-.531-.495-2.69c0,0,9.456-3.472,10.8-5.36,2-2.81-1.241-11.479,1.268-14.118S2849.747,854.9,2851.817,858.74Z" transform="translate(-2824.493 -856.26)" fill="#6926d3"/>
        </g>
        <path id="Path_767" data-name="Path 767" d="M2947.269,1426.666v-3.907h6.1a.3.3,0,0,0,.3-.3v-.621a.3.3,0,0,0-.3-.3h-6.1v-22.049a1.128,1.128,0,0,0-1.125-1.125h-1.207a1.128,1.128,0,0,0-1.125,1.125v22.049h-6.1a.3.3,0,0,0-.3.3v.621a.3.3,0,0,0,.3.3h6.1v3.907c-4.413.334-7.947,1.923-8.939,3.975h21.334C2955.216,1428.589,2951.682,1427,2947.269,1426.666Z" transform="translate(-2913.088 -1340.322)" fill="#2b478b"/>
        <path id="Path_768" data-name="Path 768" d="M2791.382,1241.232a31.154,31.154,0,0,1-2.442,3.493c-2.687,3.391-5.611,6.188-6.12,8.831a11.952,11.952,0,0,1-.472,1.692c-.213.605-.476,1.242-.779,1.9a58.51,58.51,0,0,1-4.547,7.773c-2.942,4.36-5.709,8-5.709,8l-5.074-.216c.2-.509,2.416-6.529,5.377-13.886l3.714-9.227.491-1.22c.377-.937.748-1.861,1.11-2.759,2.78-6.908,4.994-12.409,4.994-12.409s11.111-4.209,12.265-1.481C2795.141,1233.969,2794.366,1236.172,2791.382,1241.232Z" transform="translate(-2757.724 -1185.944)" fill="#163560"/>
        <path id="Path_769" data-name="Path 769" d="M2707.825,1738.485s-.248,4.207-1.058,4.267c-.108.008-9.267,0-9.267,0a1.748,1.748,0,0,1,1.566-1.532c1.493-.26,3.992-1.309,4.9-3.283C2704.913,1735.862,2707.825,1738.485,2707.825,1738.485Z" transform="translate(-2694.395 -1652.432)" fill="#163560"/>
        <path id="Path_770" data-name="Path 770" d="M2946.894,1602.261s3.53,2.268,3.187,3c-.046.1-2,3.591-2,3.591l-2.516,4.445a1.657,1.657,0,0,1-.558-2.059c.5-1.43.8-4.124-.479-5.875C2943.184,1603.525,2946.894,1602.261,2946.894,1602.261Z" transform="translate(-2921.714 -1528.17)" fill="#163560"/>
        <path id="Path_771" data-name="Path 771" d="M2734.917,1235.313s-14.034,8.735-15.591,14.573,18.552,18.292,18.552,18.292,2.206-1.946,2.594-3.373c0,0-9.089-10.89-11.061-13.331-1.211-1.5,17.9-5.19,20.239-8.822a8.884,8.884,0,0,0,1.5-6.689Z" transform="translate(-2714.424 -1190.101)" fill="#1c468a"/>
        <path id="Rectangle_258" data-name="Rectangle 258" d="M3.892,0H26.726a3.892,3.892,0,0,1,3.892,3.892v0a3.892,3.892,0,0,1-3.892,3.892H3.892A3.892,3.892,0,0,1,0,3.892v0A3.892,3.892,0,0,1,3.892,0Z" transform="translate(17.144 56.415)" fill="#ffac00"/>
        <path id="Path_772" data-name="Path 772" d="M2981.14,781.076s-5.538,3.1-8.88,2.232a7.881,7.881,0,0,1,2.125-1.925c-.073-.325-.137-.631-.192-.916a21.788,21.788,0,0,1-.377-2.581l2.551-2.286,1.716.364c.033.168.069.332.11.493A8.2,8.2,0,0,0,2981.14,781.076Z" transform="translate(-2947.531 -766.568)" fill="#e49963"/>
        <path id="Path_773" data-name="Path 773" d="M2928.905,845.788c-.478,6.437.151,16.226-.392,17.921-.469,1.463-5.807.593-7.938.105-.789-.181-1.744-.439-2.73-.744-2.752-.852-5.751-2.069-6.073-2.973a.776.776,0,0,1-.029-.1v0c-.006-.023-.01-.046-.013-.068a.844.844,0,0,1,.018-.309,6.464,6.464,0,0,0,.569-2.1c.054-1.273.046-2.772.094-4.384,0-.182,0-.38.024-.56v-.066c0-.035,0-.068,0-.1.046-1.8.141-3.688.25-5.562.069-1.177.149-2.344.241-3.46a46.277,46.277,0,0,1,.991-7.068,11.346,11.346,0,0,1,3.647-5.629l1.015-.871a5.868,5.868,0,0,0,3.685-.491c1.311-.623,1.765-1.069,1.993-.9C2927.291,830.758,2929.47,837.92,2928.905,845.788Z" transform="translate(-2891.759 -815.198)" fill="#906add"/>
        <path id="Path_774" data-name="Path 774" d="M2917.845,1089.042c-2.752-.852-5.751-2.069-6.073-2.973a.776.776,0,0,1-.029-.1h0a.205.205,0,0,0-.013-.068.844.844,0,0,1,.018-.309,6.46,6.46,0,0,0,.569-2.1c.054-1.273.046-2.772.094-4.384,0-.182,0-.38.024-.56v-.066c0-.035,0-.069,0-.1l10.4-4.715A24.242,24.242,0,0,1,2917.845,1089.042Z" transform="translate(-2891.759 -1041.17)" fill="#6926d3"/>
        <path id="Path_775" data-name="Path 775" d="M2996.407,776.456a6.771,6.771,0,0,1-4,4.011,21.788,21.788,0,0,1-.377-2.581l2.552-2.286,1.716.364C2996.33,776.132,2996.366,776.3,2996.407,776.456Z" transform="translate(-2965.745 -766.568)" fill="#d68d5d"/>
        <path id="Path_776" data-name="Path 776" d="M2964.061,697.773s5.475.618,5.807-2.8,1.262-5.636-2.219-6.175-4.289.7-4.677,1.812S2962.646,697.524,2964.061,697.773Z" transform="translate(-2938.786 -686.479)" fill="#e49963"/>
        <path id="Path_777" data-name="Path 777" d="M2966.837,669.563a5.626,5.626,0,0,0-5.331-5c-3.414-.322-1.51-3.26-1.147-3.728,0,0,2.616.359,5.3.8C2971.283,662.562,2967.39,668.857,2966.837,669.563Z" transform="translate(-2935.778 -660.831)" fill="#2b478b"/>
        <path id="Path_778" data-name="Path 778" d="M2675.952,1042.06l-13.567.29-3.857-11.871-.479.156,4.077,12.549,13.844-.3Z" transform="translate(-2658.049 -1001.387)" fill="#4a75cb"/>
        <g id="Group_572" data-name="Group 572" transform="translate(8.522 16.521)">
          <path id="Path_779" data-name="Path 779" d="M2774.228,1168.068a8.521,8.521,0,0,1-3.6.546,5.672,5.672,0,0,0-4.128,1.252c-.333.556-.167.744.548.843s3.295.877,4.846.09a12.982,12.982,0,0,1,3.66-1.044Z" transform="translate(-2766.334 -1144.669)" fill="#e49963"/>
          <path id="Path_780" data-name="Path 780" d="M2864.633,872.821s-.526,17.932-4.464,19.97a91.206,91.206,0,0,1-13.351,4.241s-.708-.455-.788-2.619c0,0,9.016-4.493,10.143-6.518,1.677-3.013-2.5-11.272-.3-14.172S2862.152,869.231,2864.633,872.821Z" transform="translate(-2839.757 -870.752)" fill="#5c17b2"/>
        </g>
      </g>
      <g id="Group_587" data-name="Group 587" transform="translate(427.268 459.293)">
        <g id="Group_574" data-name="Group 574" transform="translate(0 0)">
          <path id="Path_781" data-name="Path 781" d="M1129.234,909.363l-5.564,66.152s-.583,4.01,2.4,4.017c4.9.012,24.41,0,24.41,0s-3.691-.835-3.646-2.713c.053-2.214,6.5-68.082,6.5-68.082Z" transform="translate(-1068.82 -873.365)" fill="#d86713"/>
          <path id="Path_782" data-name="Path 782" d="M1170.831,964.281c-.964,0-19.6.061-24.371,0-2.082-.026-2.446-1.851-2.464-3.032a5.9,5.9,0,0,1,.063-.985l.145-1.719.369-4.382.326-3.872.419-4.975.352-4.2,3.953-47.006,24.1-.625s-2.716,27.566-4.638,47.631c-.214,2.236-.419,4.379-.607,6.38q-.092.958-.177,1.872c-.178,1.9-.341,3.642-.483,5.181-.075.811-.144,1.565-.206,2.256-.245,2.706-.389,4.434-.391,4.763a2.786,2.786,0,0,0,.047.535C1167.667,964.212,1170.469,964.281,1170.831,964.281Z" transform="translate(-1087.589 -859.315)" fill="#ee9849"/>
          <path id="Path_783" data-name="Path 783" d="M451.134,459.294l13.552,54.435,1.855,7.455,6.312,25.354H590.117l-23.264-87.244Z" transform="translate(-449.256 -459.294)" fill="#ffac00"/>
          <path id="Path_784" data-name="Path 784" d="M429.146,459.293l-1.878.626,21.1,88.512,2.5-1.894Z" transform="translate(-427.268 -459.293)" fill="#ee9849"/>
          <path id="Path_785" data-name="Path 785" d="M695.379,1569.751H811.921l3.218-1.893H697.876Z" transform="translate(-674.279 -1480.613)" fill="#d86713"/>
          <rect id="Rectangle_259" data-name="Rectangle 259" width="25.233" height="1.199" transform="translate(62.026 104.993)" fill="#ffca6c"/>
          <path id="Path_786" data-name="Path 786" d="M582.239,530.462l-19.027-70.015H448.75v-1.153H564.656l18.964,71.013Z" transform="translate(-447.06 -459.293)" fill="#f1a34f"/>
          <path id="Path_787" data-name="Path 787" d="M1175.192,1591.911l-.13.917-23.73,4.794.326-3.872.155-1.839Z" transform="translate(-1094.347 -1502.773)" fill="#ffac00"/>
          <path id="Path_788" data-name="Path 788" d="M1170.84,1705.53c-.964,0-19.6.061-24.371,0-2.081-.026-2.446-1.851-2.464-3.032l23.618-4.444c-.245,2.706-.389,4.434-.391,4.762a2.786,2.786,0,0,0,.047.536C1167.675,1705.461,1170.478,1705.53,1170.84,1705.53Z" transform="translate(-1087.597 -1600.564)" fill="#ffac00"/>
          <path id="Path_789" data-name="Path 789" d="M704.73,1253.385l-51.512,17.662-6.312-25.355Z" transform="translate(-629.62 -1183.802)" fill="#ffca6c"/>
          <path id="Path_790" data-name="Path 790" d="M451.132,459.293H566.85l18.775,70.117H467.991Z" transform="translate(-449.254 -459.293)" fill="#5c17b2"/>
        </g>
        <ellipse id="Ellipse_87" data-name="Ellipse 87" cx="2.826" cy="3.431" rx="2.826" ry="3.431" transform="translate(77.785 78.768) rotate(-47.775)" fill="#d86713"/>
        <path id="Path_791" data-name="Path 791" d="M636.281,570.339H527.934l-12.27-48.88-.94-3.748-.8-3.2-1.882-7.5H618.825l2.067,7.5.881,3.2,1.033,3.748Z" transform="translate(-505.368 -503.261)" fill="#e9f3fe"/>
        <path id="Path_792" data-name="Path 792" d="M620.891,514.514H513.921l-1.882-7.5H618.825Z" transform="translate(-505.368 -503.261)" fill="#906add"/>
        <g id="Group_575" data-name="Group 575" transform="translate(11.06 6.207)">
          <path id="Path_793" data-name="Path 793" d="M568.536,538.159a.708.708,0,0,0-.7.937,1.28,1.28,0,0,0,1.171.937.708.708,0,0,0,.7-.937A1.28,1.28,0,0,0,568.536,538.159Z" transform="translate(-567.803 -538.159)" fill="#e9f3fe"/>
          <path id="Path_794" data-name="Path 794" d="M608.1,538.159a.708.708,0,0,0-.7.937,1.28,1.28,0,0,0,1.171.937.708.708,0,0,0,.7-.937A1.28,1.28,0,0,0,608.1,538.159Z" transform="translate(-604.256 -538.159)" fill="#e9f3fe"/>
          <path id="Path_795" data-name="Path 795" d="M651.879,539.1a1.28,1.28,0,0,0-1.171-.937.708.708,0,0,0-.7.937,1.28,1.28,0,0,0,1.171.937A.708.708,0,0,0,651.879,539.1Z" transform="translate(-643.509 -538.159)" fill="#e9f3fe"/>
        </g>
        <g id="Group_586" data-name="Group 586" transform="translate(15.131 15.181)">
          <g id="Group_576" data-name="Group 576" transform="translate(70.178 12.281)">
            <path id="Path_796" data-name="Path 796" d="M1522.895,813.925a7.786,7.786,0,0,0-7.114-5.69,4.474,4.474,0,0,0-3.633,1.645,4.741,4.741,0,0,0-.73,4.156,7.786,7.786,0,0,0,7.114,5.69,4.475,4.475,0,0,0,3.634-1.645A4.742,4.742,0,0,0,1522.895,813.925ZM1521.8,817.8a4.026,4.026,0,0,1-3.271,1.468,7.3,7.3,0,0,1-6.667-5.341,4.292,4.292,0,0,1,.646-3.762,4.024,4.024,0,0,1,3.271-1.468,7.3,7.3,0,0,1,6.668,5.341A4.293,4.293,0,0,1,1521.8,817.8Z" transform="translate(-1511.239 -808.235)" fill="#906add"/>
            <path id="Path_797" data-name="Path 797" d="M1569.522,848.625l-.572-4-.045-.181h-1.611l.045.181,1.422,4Z" transform="translate(-1562.883 -841.595)" fill="#906add"/>
            <path id="Path_798" data-name="Path 798" d="M1583.693,906.528l.361,1.448h1.466l-.361-1.448Z" transform="translate(-1577.991 -898.793)" fill="#906add"/>
          </g>
          <g id="Group_577" data-name="Group 577" transform="translate(73.676 25.868)">
            <path id="Path_799" data-name="Path 799" d="M1567.337,986.567a7.786,7.786,0,0,0-7.114-5.69,4.475,4.475,0,0,0-3.633,1.645,4.741,4.741,0,0,0-.73,4.156,7.785,7.785,0,0,0,7.114,5.69,4.475,4.475,0,0,0,3.634-1.645A4.741,4.741,0,0,0,1567.337,986.567Zm-1.092,3.873a4.026,4.026,0,0,1-3.271,1.468,7.3,7.3,0,0,1-6.668-5.341,4.293,4.293,0,0,1,.646-3.762,4.025,4.025,0,0,1,3.271-1.468,7.3,7.3,0,0,1,6.668,5.341A4.293,4.293,0,0,1,1566.245,990.44Z" transform="translate(-1555.681 -980.877)" fill="#906add"/>
            <path id="Path_800" data-name="Path 800" d="M1613.964,1021.267l-.572-4-.045-.181h-1.611l.045.181,1.422,4Z" transform="translate(-1607.325 -1014.237)" fill="#906add"/>
            <path id="Path_801" data-name="Path 801" d="M1628.135,1079.17l.361,1.448h1.466l-.361-1.448Z" transform="translate(-1622.433 -1071.434)" fill="#906add"/>
          </g>
          <g id="Group_578" data-name="Group 578" transform="translate(83.049 6.378)">
            <path id="Path_802" data-name="Path 802" d="M1711.452,843.177a.49.49,0,0,0,.486-.647.887.887,0,0,0-.809-.647H1699.6a.49.49,0,0,0-.486.647.887.887,0,0,0,.809.647Z" transform="translate(-1697.18 -833.332)" fill="#906add"/>
            <path id="Path_803" data-name="Path 803" d="M1687.627,733.886a.887.887,0,0,0-.809-.647h-11.531a.49.49,0,0,0-.486.647.887.887,0,0,0,.809.647h11.531A.49.49,0,0,0,1687.627,733.886Z" transform="translate(-1674.782 -733.239)" fill="#906add"/>
            <path id="Path_804" data-name="Path 804" d="M1719.266,874.516a.49.49,0,0,0,.486-.647.887.887,0,0,0-.809-.647h-11.531a.49.49,0,0,0-.486.647.888.888,0,0,0,.809.647Z" transform="translate(-1704.379 -862.204)" fill="#906add"/>
            <path id="Path_805" data-name="Path 805" d="M1727.566,905.207a.888.888,0,0,0-.809-.647h-11.531a.49.49,0,0,0-.486.647.887.887,0,0,0,.809.647h11.531A.49.49,0,0,0,1727.566,905.207Z" transform="translate(-1711.578 -891.077)" fill="#906add"/>
            <path id="Path_806" data-name="Path 806" d="M1755.895,1015.818a.49.49,0,0,0,.486-.647.887.887,0,0,0-.809-.647h-11.531a.49.49,0,0,0-.486.647.887.887,0,0,0,.809.647Z" transform="translate(-1738.125 -992.386)" fill="#906add"/>
            <path id="Path_807" data-name="Path 807" d="M1763.708,1047.157a.49.49,0,0,0,.486-.647.888.888,0,0,0-.809-.647h-11.53a.49.49,0,0,0-.486.647.888.888,0,0,0,.809.647Z" transform="translate(-1745.323 -1021.258)" fill="#906add"/>
            <path id="Path_808" data-name="Path 808" d="M1772.008,1077.849a.887.887,0,0,0-.809-.647h-11.53a.49.49,0,0,0-.486.647.887.887,0,0,0,.809.647h11.531A.49.49,0,0,0,1772.008,1077.849Z" transform="translate(-1752.522 -1050.131)" fill="#906add"/>
          </g>
          <path id="Path_809" data-name="Path 809" d="M714.94,656.5l-.8-3.228a1.475,1.475,0,0,0-1.345-1.076H620.372a.815.815,0,0,0-.808,1.076l.8,3.228a1.475,1.475,0,0,0,1.345,1.076h92.418A.815.815,0,0,0,714.94,656.5Z" transform="translate(-619.531 -652.192)" fill="#5c17b2"/>
          <path id="Path_810" data-name="Path 810" d="M685.886,652.192l1.342,5.38H621.714a1.475,1.475,0,0,1-1.345-1.076l-.8-3.228a.815.815,0,0,1,.808-1.076Z" transform="translate(-619.531 -652.192)" fill="#906add"/>
          <path id="Path_811" data-name="Path 811" d="M1612.2,673.8l.1.413h1.022l-.533,1.762h.541l.523-1.815-.09-.36Z" transform="translate(-1534.074 -672.102)" fill="#906add"/>
          <path id="Path_812" data-name="Path 812" d="M1639.068,673.329c-.578,0-.847.494-.689,1.125a1.38,1.38,0,0,0,1.244,1.125c.581,0,.846-.494.689-1.125A1.385,1.385,0,0,0,1639.068,673.329Zm.453,1.818c-.289,0-.552-.3-.651-.693s.014-.693.3-.693.553.3.651.693S1639.81,675.147,1639.521,675.147Z" transform="translate(-1558.154 -671.665)" fill="#906add"/>
          <path id="Path_813" data-name="Path 813" d="M1687.094,688.18a.714.714,0,0,0-.664-.556.4.4,0,0,0-.393.556.714.714,0,0,0,.664.556A.4.4,0,0,0,1687.094,688.18Zm-.457.274c-.124,0-.237-.128-.273-.274s0-.273.131-.273.237.127.273.273S1686.768,688.454,1686.637,688.454Z" transform="translate(-1602.085 -684.836)" fill="#906add"/>
          <path id="Path_814" data-name="Path 814" d="M1674.779,673.8l-1.046,2.176h.37l1.046-2.176Z" transform="translate(-1590.767 -672.102)" fill="#906add"/>
          <path id="Path_815" data-name="Path 815" d="M1666.588,674.043a.714.714,0,0,0-.664-.556.4.4,0,0,0-.393.556.714.714,0,0,0,.664.556A.4.4,0,0,0,1666.588,674.043Zm-.73,0c-.037-.149,0-.273.131-.273s.237.127.273.273,0,.273-.131.273S1665.895,674.189,1665.858,674.043Z" transform="translate(-1583.193 -671.811)" fill="#906add"/>
          <g id="Group_579" data-name="Group 579" transform="translate(6.58 8.959)">
            <path id="Path_816" data-name="Path 816" d="M758.58,988.4a.918.918,0,0,0,.913-1.216h0a1.661,1.661,0,0,0-1.519-1.216H704.084a.918.918,0,0,0-.913,1.216h0a1.661,1.661,0,0,0,1.519,1.216Z" transform="translate(-703.134 -968.66)" fill="#906add"/>
            <path id="Path_817" data-name="Path 817" d="M771.366,1039.683a.918.918,0,0,0,.912-1.216,1.66,1.66,0,0,0-1.519-1.216H716.87a.918.918,0,0,0-.913,1.216,1.66,1.66,0,0,0,1.519,1.216Z" transform="translate(-714.914 -1015.906)" fill="#906add"/>
            <path id="Path_818" data-name="Path 818" d="M785.632,1092.03a1.66,1.66,0,0,0-1.519-1.216H730.225a.918.918,0,0,0-.913,1.216,1.661,1.661,0,0,0,1.519,1.216H784.72A.918.918,0,0,0,785.632,1092.03Z" transform="translate(-727.217 -1065.253)" fill="#906add"/>
            <path id="Path_819" data-name="Path 819" d="M998.378,779.208a2.087,2.087,0,0,0,1.909,1.528h6.011a1.154,1.154,0,0,0,1.147-1.528l-2.905-11.653a2.087,2.087,0,0,0-1.909-1.528h-6.011a1.154,1.154,0,0,0-1.147,1.528Z" transform="translate(-972.422 -766.027)" fill="#906add"/>
            <path id="Path_820" data-name="Path 820" d="M1130.564,779.208a2.087,2.087,0,0,0,1.909,1.528h6.011a1.154,1.154,0,0,0,1.147-1.528l-2.905-11.653a2.087,2.087,0,0,0-1.909-1.528h-6.011a1.154,1.154,0,0,0-1.147,1.528Z" transform="translate(-1094.204 -766.027)" fill="#906add"/>
            <path id="Path_821" data-name="Path 821" d="M1260.282,779.208a2.087,2.087,0,0,0,1.909,1.528h6.011a1.155,1.155,0,0,0,1.147-1.528l-2.906-11.653a2.087,2.087,0,0,0-1.909-1.528h-6.011a1.154,1.154,0,0,0-1.147,1.528Z" transform="translate(-1213.714 -766.027)" fill="#906add"/>
          </g>
          <g id="Group_581" data-name="Group 581" transform="translate(2.558 8.959)">
            <path id="Path_822" data-name="Path 822" d="M679.971,778.175l-2.39-9.587a3.5,3.5,0,0,0-3.2-2.561H654.032a1.935,1.935,0,0,0-1.922,2.561l2.39,9.587a3.5,3.5,0,0,0,3.2,2.561h20.349A1.935,1.935,0,0,0,679.971,778.175Z" transform="translate(-652.031 -766.027)" fill="#906add"/>
            <g id="Group_580" data-name="Group 580" transform="translate(2.334 2.511)">
              <path id="Path_823" data-name="Path 823" d="M701.449,799.1a.441.441,0,0,0,.438-.583h0a.8.8,0,0,0-.728-.583H682.144a.441.441,0,0,0-.438.583h0a.8.8,0,0,0,.728.583Z" transform="translate(-681.689 -797.935)" fill="#906add"/>
              <path id="Path_824" data-name="Path 824" d="M708.552,827.592a.442.442,0,0,0,.438-.583h0a.8.8,0,0,0-.728-.583H689.248a.441.441,0,0,0-.438.583h0a.8.8,0,0,0,.728.583Z" transform="translate(-688.233 -824.184)" fill="#906add"/>
              <path id="Path_825" data-name="Path 825" d="M716.093,855.5a.8.8,0,0,0-.728-.583H696.351a.441.441,0,0,0-.438.583.8.8,0,0,0,.728.583h19.014A.441.441,0,0,0,716.093,855.5Z" transform="translate(-694.778 -850.432)" fill="#906add"/>
              <path id="Path_826" data-name="Path 826" d="M708.793,886.825h-4.486a.441.441,0,0,0-.438.583.8.8,0,0,0,.728.583h4.486a.441.441,0,0,0,.438-.583A.8.8,0,0,0,708.793,886.825Z" transform="translate(-702.107 -879.829)" fill="#906add"/>
            </g>
          </g>
          <path id="Path_827" data-name="Path 827" d="M1842.878,1171.021l-1.254-5.028a1.835,1.835,0,0,0-1.678-1.343h-10.674a1.015,1.015,0,0,0-1.009,1.343l1.254,5.028a1.835,1.835,0,0,0,1.678,1.344h10.674A1.015,1.015,0,0,0,1842.878,1171.021Z" transform="translate(-1733.097 -1124.318)" fill="#906add"/>
          <g id="Group_582" data-name="Group 582" transform="translate(96.349 41.648)">
            <path id="Path_828" data-name="Path 828" d="M1854.143,1182a.231.231,0,0,0,.229-.306.419.419,0,0,0-.382-.306h-9.973a.232.232,0,0,0-.23.306.419.419,0,0,0,.382.306Z" transform="translate(-1843.778 -1181.387)" fill="#906add"/>
            <path id="Path_829" data-name="Path 829" d="M1857.869,1196.942a.232.232,0,0,0,.23-.306.419.419,0,0,0-.382-.306h-9.974a.232.232,0,0,0-.23.306.419.419,0,0,0,.382.306Z" transform="translate(-1847.211 -1195.154)" fill="#906add"/>
            <path id="Path_830" data-name="Path 830" d="M1861.825,1211.58a.419.419,0,0,0-.382-.306h-9.973a.231.231,0,0,0-.229.306.419.419,0,0,0,.382.306h9.974A.232.232,0,0,0,1861.825,1211.58Z" transform="translate(-1850.644 -1208.922)" fill="#906add"/>
            <path id="Path_831" data-name="Path 831" d="M1858,1228.012h-2.353a.232.232,0,0,0-.23.306h0a.419.419,0,0,0,.382.306h2.353a.231.231,0,0,0,.229-.306A.419.419,0,0,0,1858,1228.012Z" transform="translate(-1854.488 -1224.343)" fill="#906add"/>
          </g>
          <g id="Group_585" data-name="Group 585" transform="translate(10.917 39.851)">
            <g id="Group_583" data-name="Group 583" transform="translate(3.935 2.255)">
              <path id="Path_832" data-name="Path 832" d="M829.166,1188.122a.346.346,0,0,0,.344-.458h0a.626.626,0,0,0-.573-.459H808.61a.346.346,0,0,0-.344.459h0a.626.626,0,0,0,.573.458Z" transform="translate(-808.252 -1187.205)" fill="#906add"/>
              <path id="Path_833" data-name="Path 833" d="M833.988,1207.466a.346.346,0,0,0,.344-.458h0a.626.626,0,0,0-.573-.458H813.433a.346.346,0,0,0-.344.458h0a.626.626,0,0,0,.573.458Z" transform="translate(-812.695 -1205.026)" fill="#906add"/>
              <path id="Path_834" data-name="Path 834" d="M838.8,1226.752H818.47a.346.346,0,0,0-.344.458.626.626,0,0,0,.573.459h20.327a.346.346,0,0,0,.344-.459A.626.626,0,0,0,838.8,1226.752Z" transform="translate(-817.336 -1223.64)" fill="#906add"/>
              <path id="Path_835" data-name="Path 835" d="M1162.482,1188.122a.346.346,0,0,0,.344-.458h0a.626.626,0,0,0-.573-.459h-20.327a.346.346,0,0,0-.344.459h0a.626.626,0,0,0,.573.458Z" transform="translate(-1115.336 -1187.205)" fill="#906add"/>
              <path id="Path_836" data-name="Path 836" d="M1167.3,1207.466a.346.346,0,0,0,.344-.458h0a.626.626,0,0,0-.573-.458H1146.75a.346.346,0,0,0-.344.458h0a.626.626,0,0,0,.573.458Z" transform="translate(-1119.78 -1205.026)" fill="#906add"/>
              <path id="Path_837" data-name="Path 837" d="M1172.113,1226.752h-20.327a.346.346,0,0,0-.344.458.626.626,0,0,0,.573.459h20.327a.346.346,0,0,0,.344-.459A.627.627,0,0,0,1172.113,1226.752Z" transform="translate(-1124.42 -1223.64)" fill="#906add"/>
              <path id="Path_838" data-name="Path 838" d="M1485.543,1188.122a.346.346,0,0,0,.344-.458h0a.627.627,0,0,0-.573-.459h-20.327a.347.347,0,0,0-.344.459h0a.626.626,0,0,0,.573.458Z" transform="translate(-1412.972 -1187.205)" fill="#906add"/>
              <path id="Path_839" data-name="Path 839" d="M1490.366,1207.466a.346.346,0,0,0,.344-.458h0a.626.626,0,0,0-.573-.458h-20.327a.346.346,0,0,0-.344.458h0a.626.626,0,0,0,.573.458Z" transform="translate(-1417.415 -1205.026)" fill="#906add"/>
              <path id="Path_840" data-name="Path 840" d="M1495.747,1227.21a.626.626,0,0,0-.573-.458h-20.327a.346.346,0,0,0-.344.458.626.626,0,0,0,.573.459H1495.4A.346.346,0,0,0,1495.747,1227.21Z" transform="translate(-1422.056 -1223.64)" fill="#906add"/>
            </g>
            <g id="Group_584" data-name="Group 584">
              <path id="Path_841" data-name="Path 841" d="M839.809,1167.439H761.422a1.714,1.714,0,0,1-1.568-1.25l-1.565-6.278a1.119,1.119,0,0,1,.177-.969,1.053,1.053,0,0,1,.854-.393h78.387a1.714,1.714,0,0,1,1.568,1.25l1.565,6.278a1.119,1.119,0,0,1-.177.969A1.053,1.053,0,0,1,839.809,1167.439Zm-80.489-8.43a.6.6,0,0,0-.491.216.656.656,0,0,0-.094.575l1.565,6.278a1.248,1.248,0,0,0,1.122.9h78.387a.6.6,0,0,0,.491-.216.656.656,0,0,0,.094-.574l-1.565-6.278a1.248,1.248,0,0,0-1.122-.9Z" transform="translate(-758.25 -1158.549)" fill="#906add"/>
            </g>
          </g>
        </g>
      </g>
    </g>
  </g>
</svg>
