<svg xmlns="http://www.w3.org/2000/svg" xmlns:xlink="http://www.w3.org/1999/xlink" width="215.033" height="173.378" viewBox="0 0 215.033 173.378">
  <defs>
    <linearGradient id="linear-gradient" x1="0.369" y1="0.08" x2="0.634" y2="0.715" gradientUnits="objectBoundingBox">
      <stop offset="0" stop-color="#fff"/>
      <stop offset="1" stop-color="#fff" stop-opacity="0"/>
    </linearGradient>
  </defs>
  <g id="Group_991" data-name="Group 991" transform="translate(-112.115 -235.067)">
    <g id="Group_526" data-name="Group 526" transform="translate(-280.755 17.938)">
      <ellipse id="Ellipse_80" data-name="Ellipse 80" cx="107.517" cy="7.515" rx="107.517" ry="7.515" transform="translate(392.869 375.477)" fill="#d8d2f2" opacity="0.6"/>
    </g>
    <g id="Group_555" data-name="Group 555" transform="translate(98.094 175.668)">
      <g id="Group_554" data-name="Group 554" transform="translate(54.906 59.398)">
        <g id="Group_540" data-name="Group 540" transform="translate(13.319 21.335)">
          <g id="Group_536" data-name="Group 536" transform="translate(0 31.864)">
            <path id="Path_690" data-name="Path 690" d="M99.242,244.239c-6.353,0-10-1.227-10.842-3.648-1.6-4.614,7.684-11.206,15.758-15.925,11.2-6.548,26.736-13.407,43.733-19.315,22.893-7.955,45-12.9,57.682-12.9,6.353,0,10,1.227,10.842,3.648,1.6,4.613-7.684,11.206-15.758,15.925-11.2,6.548-26.736,13.408-43.734,19.314C134.031,239.3,111.929,244.239,99.242,244.239Zm106.331-50.752c-12.579,0-34.551,4.92-57.342,12.841-16.936,5.886-32.4,12.715-43.551,19.23-10.781,6.3-16.359,11.655-15.3,14.693.661,1.9,4.165,2.954,9.865,2.954,12.579,0,34.551-4.921,57.342-12.841,16.936-5.886,32.4-12.716,43.55-19.231,10.781-6.3,16.359-11.656,15.3-14.693C214.777,194.536,211.273,193.487,205.574,193.487Z" transform="translate(-88.218 -192.453)" fill="#fff"/>
          </g>
          <g id="Group_537" data-name="Group 537" transform="translate(25.78)">
            <path id="Path_691" data-name="Path 691" d="M168.245,228.273a13.684,13.684,0,0,1-6.379-1.491c-6.706-3.485-9.911-12.647-9.025-25.8.877-13,5.644-28.408,13.423-43.377,6.64-12.777,15.068-24.277,23.732-32.381,8.593-8.039,17.106-12.466,23.97-12.466a13.683,13.683,0,0,1,6.38,1.491c6.706,3.485,9.911,12.647,9.024,25.8-.877,13-5.644,28.408-13.422,43.377-6.64,12.777-15.068,24.277-23.732,32.382C183.623,223.846,175.11,228.273,168.245,228.273Zm45.721-114.48c-6.6,0-14.863,4.328-23.264,12.187-8.58,8.027-16.933,19.428-23.52,32.1-7.715,14.845-12.441,30.105-13.309,42.97-.857,12.717,2.15,21.528,8.47,24.812a12.665,12.665,0,0,0,5.9,1.375c6.6,0,14.863-4.328,23.264-12.187,8.58-8.027,16.933-19.428,23.521-32.1,15.86-30.519,18.031-60.926,4.84-67.781A12.666,12.666,0,0,0,213.966,113.793Z" transform="translate(-152.697 -112.759)" fill="#fff"/>
          </g>
          <g id="Group_538" data-name="Group 538" transform="translate(0.094 33.296)">
            <path id="Path_692" data-name="Path 692" d="M187.182,244.416c-11.707,0-26.012-1.879-40.28-5.292-16.686-3.991-31.921-9.666-42.9-15.979-11.151-6.413-16.612-12.785-15.379-17.94,1.394-5.829,11.25-9.172,27.039-9.172,11.707,0,26.012,1.879,40.28,5.293,16.686,3.991,31.921,9.666,42.9,15.978,11.151,6.413,16.613,12.785,15.379,17.942C212.826,241.074,202.971,244.416,187.182,244.416Zm-71.518-47.349c-15.046,0-24.778,3.132-26.033,8.378-1.1,4.6,4.326,10.729,14.889,16.8,10.893,6.265,26.03,11.9,42.623,15.869,14.191,3.395,28.41,5.264,40.039,5.264,15.046,0,24.778-3.132,26.033-8.377,1.1-4.6-4.326-10.729-14.889-16.8-10.893-6.265-26.03-11.9-42.622-15.869C141.511,198.936,127.292,197.067,115.664,197.067Z" transform="translate(-88.454 -196.033)" fill="#fff"/>
          </g>
          <g id="Group_539" data-name="Group 539" transform="translate(14.547 3.692)">
            <path id="Path_693" data-name="Path 693" d="M209.181,230.122c-14.623,0-37.085-14.268-55.894-35.5-11.953-13.494-21.047-28.091-25.6-41.1-4.61-13.16-4.032-23.169,1.63-28.184,2.5-2.217,5.865-3.341,9.994-3.341,14.622,0,37.084,14.268,55.894,35.5,11.953,13.495,21.047,28.091,25.6,41.1,4.61,13.16,4.031,23.169-1.63,28.185C216.672,229,213.31,230.122,209.181,230.122Zm-69.875-107.1c-3.869,0-7,1.037-9.308,3.081-5.327,4.718-5.8,14.331-1.34,27.068,4.515,12.887,13.537,27.362,25.4,40.759,18.625,21.027,40.776,35.155,55.12,35.155,3.868,0,7-1.036,9.308-3.081,11.129-9.858.334-40.285-24.063-67.828C175.8,137.154,153.65,123.026,139.307,123.026Z" transform="translate(-124.601 -121.992)" fill="#fff"/>
          </g>
        </g>
        <g id="Group_542" data-name="Group 542" transform="translate(0)">
          <g id="Group_541" data-name="Group 541" transform="translate(0)">
            <circle id="Ellipse_85" data-name="Ellipse 85" cx="55.119" cy="55.119" r="55.119" transform="translate(0 77.95) rotate(-45)" fill="#7742ca"/>
          </g>
          <path id="Path_694" data-name="Path 694" d="M178.882,119.653c-.017.058-.034.118-.05.176-.415,1.483-.711,3-1.094,4.488a18.552,18.552,0,0,1-1.758,4.748,5.606,5.606,0,0,1-3.081,2.685,8.926,8.926,0,0,1-4.325-.044,24.425,24.425,0,0,0-4.535-.717,4.322,4.322,0,0,0-3.39,1.4,8.619,8.619,0,0,0-1.177,7.41.923.923,0,0,0,1.478.5,12.173,12.173,0,0,0,2.121-2.145,4.511,4.511,0,0,1,2.239-1.622,1.354,1.354,0,0,1,1.471,1.133,3.4,3.4,0,0,1-.445,2.75,3.992,3.992,0,0,1-2.956,1.611,17.487,17.487,0,0,1-4.531-.273,2.778,2.778,0,0,0-1.3.956,2.7,2.7,0,0,1-.686.659c-.328.18-.707.256-1.046.413-.8.37-1.407,1.046-2.166,1.486a3.439,3.439,0,0,0-.913.677c-.226.259-.372.573-.589.838-.44.541-1.108.354-1.723.4-.674.047-1.588.3-1.692,1.093-.1.737.54,1.249.968,1.749a1.647,1.647,0,0,1,.085,2.081,1.767,1.767,0,0,1-1.843.916,15.317,15.317,0,0,1-1.7-.158,6.934,6.934,0,0,1-.842-.184c-.193-.057-.471-.208-.614.016a12.1,12.1,0,0,0-.595,1.059c-.5.98-.779,2.032-1.217,3.034-.311.711-1.023,1.154-1.311,1.878-.333.84.263,1.417.771,2,.587.681,1.023,1.268,2.014,1.189a10.924,10.924,0,0,0,1.774-.373c.57-.142,1.145-.264,1.714-.408a4.333,4.333,0,0,0,2.409-1.314c.776-.988.427-2.3.367-3.44-.021-.409-.018-.92.414-1.113a4.552,4.552,0,0,1,1.437-.109c.939-.1,1.639-.814,2.493-1.14.8-.305,2.136-.677,2.889-.071a8.584,8.584,0,0,1,.859.943,8.306,8.306,0,0,0,1.358,1.226,5.153,5.153,0,0,0,1.3.625,1.037,1.037,0,0,1,.728.64c.25.659.175,2.474,1.28,2.278a3.07,3.07,0,0,0,1.385-.833c.243-.222.576-.521.487-.886a3.474,3.474,0,0,0-.8-1.154,10.165,10.165,0,0,0-1.3-1.385,10.754,10.754,0,0,0-.978-.617,2.58,2.58,0,0,1-.791-1.039c-.242-.48-1.148-2.431.125-2.123a14.042,14.042,0,0,1,2.314,1.17c1.063.481,2.39.877,2.874,2.054a8.221,8.221,0,0,1,.376,2.13,9.573,9.573,0,0,0,.479,2.149,6.613,6.613,0,0,0,.607,1.206,1.752,1.752,0,0,0,1.229.376.833.833,0,0,0,.712-.355c.307-.335.185-.553-.05-.913a8.477,8.477,0,0,1-.867-1.479c-.1-.256.05-.389.207-.6s.306-.392.447-.6c.087-.126.142-.3.235-.414.16-.2.563-.166.8-.208a8.108,8.108,0,0,1,1.115-.136c.3-.01.589-.02.884-.059a5.875,5.875,0,0,0,1.19-.148.53.53,0,0,1,.113-.013,2.884,2.884,0,0,1-.727-1.818,2.424,2.424,0,0,1,.076-.9c.183-.463.5-.872.687-1.335.13-.313.185-.771.575-.85a2.394,2.394,0,0,1,1.37.392,9.609,9.609,0,0,0,1.6.573c.522.138.582-.13.707-.583a5.745,5.745,0,0,1,.274-.661,3.281,3.281,0,0,0,.147-1.091c0-.066,0-.152.077-.172a.786.786,0,0,1,.337.04c.131.024.3-.023.373.122.052.1.086.213.14.316.095.181.173.375.258.561a2.836,2.836,0,0,0,.623.923,2.7,2.7,0,0,0,.586.41c.683.36,1.439.64,2.151.937.308.129.666.272.574.67a1.713,1.713,0,0,1-1.146,1.056,4.214,4.214,0,0,1-2.088-.035,4.142,4.142,0,0,0-1.954.069,4.6,4.6,0,0,0-1.862,1.008,14.775,14.775,0,0,0-1.143,1.518c-.4.493-.96.807-1.376,1.277a1.034,1.034,0,0,0,.036,1.392c.96,1.307,2.4.825,3.761.674a9.225,9.225,0,0,1,1.645.011c.454.029.915-.034,1.366.023,1.192.15.688,1.255.629,2.063a8.6,8.6,0,0,1-.1,1.29c-.1.469-.307.909-.408,1.378a2.835,2.835,0,0,0-.057.453c-.307-.007-.616,0-.923,0a1.541,1.541,0,0,0-.62.032,6.081,6.081,0,0,0-.72.483c-.346.228-.686.464-1.032.692l-.628.418c.017,0,.034.011.05.017a7.447,7.447,0,0,1-2.5-.6,8.891,8.891,0,0,0-1.161-.255,4.593,4.593,0,0,1-.87-.163c-.149-.063-.2-.2-.323-.3a1.956,1.956,0,0,0-1.2-.265,12.44,12.44,0,0,0-1.326-.005,1.5,1.5,0,0,0-.615.257l-1.331.756a5.629,5.629,0,0,1-.96.535.556.556,0,0,0-.094.05l-.261-.15-13.854-3.89s-9.091.037-14.258,3.99-5.885,9.981-5.263,14.718,1.722,7.942,5.311,9.33,11.244,2.2,15.837,5.119,6.507,5.071,8.038,12.2,4.019,11.2,9.617,11.627,12.44-3.828,13.4-9.569,3.158-10.479,6.794-13.876,4.976-10.239,4.976-10.239a4.7,4.7,0,0,1-5.717-1.423c-2.692-3.05-4.368-5.174-4.368-5.174h0c-.064-.069-.127-.14-.185-.212-.55-.679-.578-1.621-.983-2.377-.677-1.264-1.965-2.082-2.907-3.128a12.2,12.2,0,0,1-1.768-3.079c-.11-.23-.225-.456-.34-.683.177-.158.367-.3.541-.464.1-.095.3-.443.42-.483.147-.048.28.236.354.339.239.335.467.677.694,1.019a7.441,7.441,0,0,0,1.237,1.634c.275.228.593.4.873.623a5.23,5.23,0,0,1,1,1.054,13.679,13.679,0,0,1,1.513,2.291,9.864,9.864,0,0,0,.982,1.585c.443.639.932,1.238,1.413,1.849a2.805,2.805,0,0,0,.681.777c.317.2.714.23,1.034.429.414.256.675.7,1.079.98,1.42.98,3.96.151,5.088-.967.8-.791,1.413-1.754,2.131-2.615a11.13,11.13,0,0,1,1.762-1.643,4.431,4.431,0,0,0,1.289-1.71,12.919,12.919,0,0,0,.733-2.268,21.778,21.778,0,0,0,.551-2.512c.11-.877.168-2.224-.753-2.713-.972-.516-2.289.185-3.186.56a3.9,3.9,0,0,1-2.652.451c-.159-.049-.313-.112-.466-.176-.55-.336-1.1-.662-1.669-.971a5.938,5.938,0,0,1-1.372-.9,2.2,2.2,0,0,1-.649-1.358,1.3,1.3,0,0,1,.391-1.216c.413-.261.916.1,1.229.36.523.427.954.958,1.483,1.378a1.966,1.966,0,0,0,1.477.489c.6-.066,1.18-.3,1.778-.4a7.514,7.514,0,0,1,2.188,0,8.172,8.172,0,0,0,2.03.141c1.18-.151,1.775-1.276,2.863-1.6,1.257-.378,2.613.5,3.65,1.109a6.767,6.767,0,0,1,2.489,2.079,37.666,37.666,0,0,1,2.3,4.913c.526,1.15,1.134,2.456,2.384,2.954.2.08.413.142.622.2.124-.6.287-1.19.425-1.785a2.093,2.093,0,0,0-.27-1.136c-.251-.731-.536-1.46-.752-2.2-.156-.538-.417-1.014-.623-1.535a2.333,2.333,0,0,1,.007-1.066c.053-.678.16-1.366.246-2.042.1-.816.2-1.635.306-2.45.094-.691.169-1.385.26-2.076a8.091,8.091,0,0,0,.113-.917,13.394,13.394,0,0,0-.213-1.75c-.009-.073-.018-.145-.027-.217l1,1.243c-.389.427.357,1,.537,1.334.249.459.368.983.587,1.456a2.238,2.238,0,0,0,.47.852c.19.159.389.3.586.451A55.179,55.179,0,0,0,178.882,119.653Zm16.378,37.076c-.144.287-.861.287-1.435.287a2.635,2.635,0,0,1-1.579-.335,1.631,1.631,0,0,1-.862-1.627c.048-.861,0-.479,0-.67s-1.866-2.01-2.01-2.3-.623-.909-1.051-1.531-.719-.431-.959-.622a2.83,2.83,0,0,1-.813-1.435.88.88,0,0,1,.239-.989c.144-.176.526-.686.622-.83s.67-.526.813-.669.909,0,.909,0h.787l.218.574v.478s-.383.766-.431.909a5.49,5.49,0,0,0,.239,1.1s2.489.67,3.014.861.623.861.766,1.547,2.057,3.237,2.057,3.668A5.1,5.1,0,0,1,195.26,156.729Zm.718-10.143a4.373,4.373,0,0,1-.574.957s-.383.383-.575.335-.191,0-.191,0a18.716,18.716,0,0,0-1.148-1.627c-.287-.287,0-.718,0-.718v-.67l1.148-.574h.335a3.07,3.07,0,0,0,.574.574,3.769,3.769,0,0,1,.623,1.084S196.073,146.251,195.977,146.586Zm-5.669,66.165c.305-1.022,1.471-2.584,1.309-3.463s1.489-2.315,3.1-3.032,2.313-3.314,2.313-3.314c1.345.449.736,2.829-.466,4.031a22.323,22.323,0,0,0-2.883,4.5,4.439,4.439,0,0,1-1.961,1.848C190.882,213.594,190,213.774,190.308,212.751Zm-37.977-73.379a5.392,5.392,0,0,0-.267,1.838c.065.788.93,1.347.421,2.137a2.331,2.331,0,0,1-.76.6c-.307.206-.437.542-.815.611-.361.066-.723-.1-1.088-.066a6.125,6.125,0,0,1-1.226.2c-.543-.058-.588-.587-.7-1.019a10.489,10.489,0,0,1,1.056-.462,6.775,6.775,0,0,0,.88-.363c.2-.122.076-.289.059-.473s-.013-.481-.283-.477a2.863,2.863,0,0,0-1.617.654,2.609,2.609,0,0,1-1.408.738c-.193,0-.4-.131-.574-.052-2.039.9-2.594,0-2.594,0,.591-.144.7-.287,1.226-.814.3-.3.524-.668.805-.989a2.015,2.015,0,0,1,.685-.611,12.834,12.834,0,0,0,1.476-.841c.383-.24.431-.144,1-.24a11.486,11.486,0,0,0,1.675-.334c.622-.192.431-.1.574-.192s-.1-.383-.3-.766a1.418,1.418,0,0,1,.1-1.369,1.7,1.7,0,0,1,1.049-.351,1.247,1.247,0,0,1,1.166.683,2.694,2.694,0,0,1-.34,1.4C152.461,138.976,152.393,139.167,152.331,139.371Zm4.146,18.036c-.7-.162-1.347-.914-.827-1.618a1.677,1.677,0,0,1,1.7-.4c.169.039.282.252.4.362.106.095.229.173.341.259.182.141.447.2.475.475a.335.335,0,0,1,0,.089.906.906,0,0,1-.428.542A2.127,2.127,0,0,1,156.477,157.407ZM139.13,129.732c-.12.051-.263.049-.383.1a1.194,1.194,0,0,1-.331.142,12.082,12.082,0,0,1-1.8.579,1.207,1.207,0,0,0-1.06,1.086,1.544,1.544,0,0,1-.3.657c-.27.393-.5.815-.805,1.181a4.147,4.147,0,0,0-.786,1.044,7.986,7.986,0,0,0-.265,1.31c-.388,1.811-1.87,1.948-3.157,2.966a11.9,11.9,0,0,0-2.025,1.419c-.331.4-.121.873-.184,1.333-.05.366-.093,1.164-.425,1.389-.309.209-.806-.458-.932-.7a1.831,1.831,0,0,1-.156-1.262c.142-.593.825-1.142.614-1.783-.157-.475-.882-1.154-1.273-.526a4.109,4.109,0,0,0-.344,1.923,6.512,6.512,0,0,1-.291,2.323,1.819,1.819,0,0,1-1.352.769.622.622,0,0,1-.752-.592c-.022-.258.112-.633-.05-.862-.146-.207-.486-.162-.7-.141-.185.018-.367.03-.551.039a55.356,55.356,0,0,1,19.843-17.506c-.028.112-.114.244-.135.324a1.573,1.573,0,0,1-.449.794,6.018,6.018,0,0,0-.654.647,4.776,4.776,0,0,1-.573.772,7.413,7.413,0,0,1-2.256,1.005,7.176,7.176,0,0,0-1.377.949c-.235.171-.473.341-.7.518-.116.089-.229.179-.341.271a3.584,3.584,0,0,1-.323.283q.225-.145.461-.27a3.987,3.987,0,0,1,1.783-.526c.478-.008.956.01,1.435.005.21,0,.42-.017.631-.027C139.43,129.352,139.13,129.732,139.13,129.732Zm-27.123,43.779c0-.829.022-1.654.058-2.474l.316-.853,4.037,14.19s.064,1.938.279,2.011a2.6,2.6,0,0,1,1.358,1.394,7.048,7.048,0,0,0,1.14,2.275A26.55,26.55,0,0,0,121.054,192a1.552,1.552,0,0,1,.571.863c.142.575-.152,2.3-.009,2.584s.714.936.713,1.152a4.191,4.191,0,0,1-.007,1.65,4.259,4.259,0,0,0-.365,1.649c0,.574.5,1.15.782,1.8a21.356,21.356,0,0,0,1.211,2.3c.214.287,2.861,2.594,2.861,2.594s.714.864,1.286,1.512a8.778,8.778,0,0,0,1.144,1.081,29.818,29.818,0,0,1,1.208,3.163c.14.718.85,2.8.85,2.8v.249A54.994,54.994,0,0,1,112.007,173.511Z" transform="translate(-89.176 -95.561)" fill="#ffac00"/>
          <path id="Path_695" data-name="Path 695" d="M200.443,132.1c4.712,11.645-5.261,26.665-22.274,33.549s-34.624,3.026-39.336-8.619,5.26-26.665,22.273-33.549S195.732,120.46,200.443,132.1Z" transform="translate(-104.575 -95.813)" opacity="0.3" fill="url(#linear-gradient)"/>
          <path id="Path_696" data-name="Path 696" d="M198.288,131.6c2.814,6.955-3.89,16.229-14.972,20.713s-22.35,2.483-25.163-4.472,3.888-16.229,14.972-20.714S195.475,124.647,198.288,131.6Z" transform="translate(-116.486 -98.612)" fill="#fff" opacity="0.3"/>
          <path id="Path_697" data-name="Path 697" d="M167.126,275.659a55.142,55.142,0,0,0,50.318-77.647c-11.438,14.362-47.819,50.731-105.43,22.012,0,.172-.007.343-.007.516A55.119,55.119,0,0,0,167.126,275.659Z" transform="translate(-89.176 -142.59)" fill="#7742ca" opacity="0.3"/>
          <path id="Path_698" data-name="Path 698" d="M134,257.647a55.134,55.134,0,0,0,98.538-47.583C220.314,230.856,187.807,273.625,134,257.647Z" transform="translate(-102.374 -149.823)" fill="#5c17b2" opacity="0.3"/>
        </g>
        <g id="Group_544" data-name="Group 544" transform="translate(22.835 27.771)" opacity="0.3">
          <g id="Group_543" data-name="Group 543">
            <path id="Path_699" data-name="Path 699" d="M131,183.018a7.533,7.533,0,0,1,.94-.359c-.074-.475-.134-.94-.185-1.4q-.416.664-.813,1.339C130.959,182.74,130.974,182.877,131,183.018Z" transform="translate(-123.373 -160.306)" fill="#104488"/>
            <path id="Path_700" data-name="Path 700" d="M221.66,170.949c-.052-.353-.108-.7-.167-1.056a87.161,87.161,0,0,1-8.094,4.961c-3.7,2.032-7.9,4.1-12.473,6.151a145.446,145.446,0,0,0-13.468-16.481A141.632,141.632,0,0,0,163.414,144q1.663-1.637,3.345-3.117c8.14-7.152,16.146-11.091,22.543-11.091a13.843,13.843,0,0,1,3.439.421q-1.346-.708-2.736-1.345c-.232-.01-.466-.018-.7-.018-6.652,0-14.9,4.029-23.228,11.344q-1.753,1.541-3.489,3.257c-9.044-5.914-17.8-9.775-25.1-10.9q-.6.386-1.2.786c7.327.861,16.3,4.717,25.608,10.8a117.879,117.879,0,0,0-18.822,25.529,120.85,120.85,0,0,0-8.73,19.574,119.929,119.929,0,0,1-13.74-6.228,57.587,57.587,0,0,1-8.572-5.533c-.011.405-.016.813-.019,1.221a61.156,61.156,0,0,0,8.091,5.128,121.009,121.009,0,0,0,13.938,6.312,88.383,88.383,0,0,0-3.153,12.415,109.84,109.84,0,0,1-12.919,1.43c.158.309.319.616.482.922a112.255,112.255,0,0,0,12.273-1.374q-.46,2.874-.658,5.611a41.981,41.981,0,0,0,.538,11.165q.625.554,1.266,1.089a39.19,39.19,0,0,1-.8-12.191c.136-1.894.372-3.847.7-5.845a255,255,0,0,0,25.915-5.927q1.98.482,3.991.936c13.826,3.106,27.688,4.817,39.032,4.817a86.474,86.474,0,0,0,10.761-.611A51.943,51.943,0,0,1,213.4,209q.37-.57.727-1.151a54.808,54.808,0,0,0-1.668-5.406,44.858,44.858,0,0,0,5.045-1q.249-.56.487-1.124a42.7,42.7,0,0,1-5.871,1.212A95.766,95.766,0,0,0,201.476,181.8c4.555-2.048,8.735-4.108,12.429-6.135C216.5,174.239,219.231,172.624,221.66,170.949Zm-89.721,31.433a87.839,87.839,0,0,1,3.039-11.884,194.237,194.237,0,0,0,20.841,6.475C147.224,199.329,139.082,201.17,131.938,202.382Zm25.73-5.921a195.067,195.067,0,0,1-22.389-6.863,119.957,119.957,0,0,1,8.689-19.5,116.757,116.757,0,0,1,18.761-25.418,140.863,140.863,0,0,1,23.979,20.463,144.478,144.478,0,0,1,13.3,16.266A306.742,306.742,0,0,1,171.2,192.355C166.629,193.846,162.1,195.219,157.668,196.461Zm53.459,5.206a85.551,85.551,0,0,1-10.418.581c-11.268,0-25.047-1.7-38.8-4.79q-1.188-.267-2.364-.546c3.935-1.125,7.943-2.35,11.98-3.668A307.645,307.645,0,0,0,200.56,182.21,95.922,95.922,0,0,1,211.127,201.667Z" transform="translate(-112.018 -128.854)" fill="#104488"/>
            <path id="Path_701" data-name="Path 701" d="M211.041,382.959a29.169,29.169,0,0,1-3.067,1.106c.521.166,1.044.326,1.571.477q1.3-.456,2.638-1.06A7.167,7.167,0,0,1,211.041,382.959Z" transform="translate(-169.608 -281.36)" fill="#104488"/>
          </g>
        </g>
        <g id="Group_553" data-name="Group 553" transform="translate(13.319 21.335)">
          <g id="Group_551" data-name="Group 551">
            <g id="Group_546" data-name="Group 546" transform="translate(0 32.258)">
              <g id="Group_545" data-name="Group 545">
                <path id="Path_702" data-name="Path 702" d="M216.415,196.693c-.567-1.63-2.411-2.716-5.492-3.254a8.108,8.108,0,0,1-.284,1.006c2.7.458,4.365,1.337,4.8,2.587,1.056,3.037-4.522,8.392-15.3,14.693-11.148,6.515-26.614,13.345-43.55,19.231-22.791,7.92-44.763,12.841-57.342,12.841-5.7,0-9.2-1.049-9.865-2.954-.7-2.013,1.517-5.044,6.228-8.694a7.515,7.515,0,0,1-.535-.893c-4.481,3.458-7.662,7.071-6.67,9.927.841,2.421,4.489,3.648,10.842,3.648,12.687,0,34.789-4.943,57.681-12.9,17-5.907,32.529-12.767,43.734-19.314C208.731,207.9,218.018,201.306,216.415,196.693Z" transform="translate(-88.218 -193.439)" fill="#fff"/>
              </g>
            </g>
            <g id="Group_547" data-name="Group 547" transform="translate(14.547 3.692)">
              <path id="Path_703" data-name="Path 703" d="M220.805,198.6c-4.558-13.011-13.651-27.608-25.6-41.1-18.81-21.235-41.272-35.5-55.894-35.5-4.129,0-7.491,1.124-9.994,3.341-4.075,3.609-5.516,9.806-4.285,17.9a7.635,7.635,0,0,1,.982-.4c-1.116-7.607.222-13.4,3.989-16.731,2.308-2.044,5.44-3.081,9.308-3.081,14.343,0,36.495,14.128,55.12,35.154,24.4,27.543,35.191,57.97,24.063,67.828-2.308,2.044-5.439,3.081-9.308,3.081a26.528,26.528,0,0,1-4.567-.426,8.448,8.448,0,0,1-.645.928,27.79,27.79,0,0,0,5.212.532c4.129,0,7.49-1.124,9.993-3.341C224.837,221.767,225.416,211.757,220.805,198.6Z" transform="translate(-124.602 -121.992)" fill="#fff"/>
            </g>
            <g id="Group_549" data-name="Group 549" transform="translate(25.78)">
              <g id="Group_548" data-name="Group 548">
                <path id="Path_704" data-name="Path 704" d="M177.255,225.039a22.317,22.317,0,0,1-9.01,2.2,12.665,12.665,0,0,1-5.9-1.375c-6.32-3.284-9.327-12.1-8.47-24.812.868-12.865,5.594-28.125,13.309-42.97,6.587-12.675,14.94-24.077,23.52-32.1,8.4-7.859,16.663-12.187,23.264-12.187a12.666,12.666,0,0,1,5.9,1.375c3.39,1.762,5.762,5.082,7.152,9.556.065,0,.128-.01.194-.01a6.727,6.727,0,0,1,.888.062c-1.477-5.019-4.093-8.621-7.758-10.525a13.683,13.683,0,0,0-6.38-1.491c-6.864,0-15.378,4.427-23.97,12.466-8.664,8.1-17.092,19.6-23.732,32.381-7.778,14.969-12.546,30.374-13.423,43.377-.887,13.152,2.318,22.314,9.025,25.8a13.684,13.684,0,0,0,6.379,1.491,24.041,24.041,0,0,0,10.205-2.656A7.253,7.253,0,0,1,177.255,225.039Z" transform="translate(-152.697 -112.759)" fill="#fff"/>
              </g>
            </g>
            <g id="Group_550" data-name="Group 550" transform="translate(0.094 37.633)">
              <path id="Path_705" data-name="Path 705" d="M210.892,232.937a7.715,7.715,0,0,1-.717.764c2.517,2.852,3.587,5.522,3.039,7.814-1.255,5.245-10.987,8.377-26.033,8.377-11.629,0-25.848-1.87-40.039-5.264-16.593-3.968-31.729-9.6-42.623-15.869-10.563-6.075-15.99-12.2-14.889-16.8a6.915,6.915,0,0,1,3.177-4.017,7.16,7.16,0,0,1-.271-1.058,8.1,8.1,0,0,0-3.911,4.835c-1.233,5.156,4.229,11.528,15.379,17.94,10.977,6.313,26.211,11.988,42.9,15.979,14.268,3.413,28.573,5.292,40.28,5.292,15.789,0,25.644-3.342,27.038-9.171C214.858,239.088,213.7,236.093,210.892,232.937Z" transform="translate(-88.454 -206.88)" fill="#fff"/>
            </g>
          </g>
          <g id="Group_552" data-name="Group 552" transform="translate(23.484 11.741)">
            <circle id="Ellipse_86" data-name="Ellipse 86" cx="3.544" cy="3.544" r="3.544" transform="translate(31.023 5.012) rotate(-45)" fill="#fff"/>
            <path id="Path_706" data-name="Path 706" d="M154.04,311.723a3.544,3.544,0,1,1-3.544-3.544A3.544,3.544,0,0,1,154.04,311.723Z" transform="translate(-146.952 -241.785)" fill="#fff"/>
            <path id="Path_707" data-name="Path 707" d="M333.154,248.133a5.6,5.6,0,1,1-5.6-5.6A5.6,5.6,0,0,1,333.154,248.133Z" transform="translate(-251.984 -202.387)" fill="#fff"/>
            <path id="Path_708" data-name="Path 708" d="M362.808,310.09a2.307,2.307,0,1,1-2.307-2.307A2.306,2.306,0,0,1,362.808,310.09Z" transform="translate(-273.733 -241.547)" fill="#fff"/>
            <path id="Path_709" data-name="Path 709" d="M163.524,276.611a2.307,2.307,0,1,1-2.307-2.307A2.306,2.306,0,0,1,163.524,276.611Z" transform="translate(-154.129 -221.454)" fill="#fff"/>
            <path id="Path_710" data-name="Path 710" d="M222.244,296a2.307,2.307,0,1,1-2.307-2.307A2.306,2.306,0,0,1,222.244,296Z" transform="translate(-189.371 -233.093)" fill="#fff"/>
          </g>
        </g>
      </g>
    </g>
    <g id="Group_826" data-name="Group 826" transform="translate(-1610.989 -696.908)">
      <path id="Path_950" data-name="Path 950" d="M1814.707,1720.562a17.37,17.37,0,0,1-1.483,2.338c-.586.664-2.831,1.852-2.843,3.825-.013,2.139,3.784,1.546,5.269,1.468s1.6-1.221,2.223-2.433,1.255-1.006,1.373-1.983a11.547,11.547,0,0,0-.605-3.215Z" transform="translate(-56.448 -633.027)" fill="#202338"/>
      <g id="Group_741" data-name="Group 741" transform="translate(1758.096 1086.529)">
        <path id="Path_951" data-name="Path 951" d="M1842.213,1714.21a8.161,8.161,0,0,1,.14.935c-.034.022-4.208.768-4.185.01a3.65,3.65,0,0,1,.385-1.3Z" transform="translate(-1838.167 -1713.85)" fill="#81807e"/>
      </g>
      <g id="Group_742" data-name="Group 742" transform="translate(1800.374 1007.465)">
        <path id="Path_952" data-name="Path 952" d="M2120.416,1186.776s4.38-.922,4.707-.732.348.438-.059.542-4.213,1.017-4.213,1.017,5.31-.194,5.615-.1c.178.054.246.529.031.606s-5.484.581-5.484.581,4.958-.172,5.186-.013a.369.369,0,0,1-.213.636c-.368.039-4.976.469-4.976.469s3.6.111,3.714.368c.068.157.145.564-.783.5s-3.142.042-3.142.042Z" transform="translate(-2120.416 -1186.019)" fill="#eea886"/>
      </g>
      <g id="Group_743" data-name="Group 743" transform="translate(1776.328 1086.857)">
        <path id="Path_953" data-name="Path 953" d="M1964.442,1716.4a8.954,8.954,0,0,0,3.688,2.471c1.858.428,3.157.974,3.171,2.146s-5.346,1.945-7.472.763c-3.173-1.764-3.5-1.232-3.847-2.114s.423-3.239.4-3.52C1960.353,1715.8,1964.442,1716.4,1964.442,1716.4Z" transform="translate(-1959.889 -1716.038)" fill="#202338"/>
      </g>
      <g id="Group_744" data-name="Group 744" transform="translate(1776.817 1085.665)">
        <path id="Path_954" data-name="Path 954" d="M1967.01,1708.656a8.472,8.472,0,0,1,.206.978c-.036.02-4.186.515-4.061-.253.1-.623.247-1.3.247-1.3Z" transform="translate(-1963.151 -1708.08)" fill="#81807e"/>
      </g>
      <g id="Group_745" data-name="Group 745" transform="translate(1756.645 1024.543)">
        <path id="Path_955" data-name="Path 955" d="M1848.736,1304.431s1.51,14.658,2.295,19.676c.918,5.867,1.229,10.715,1.485,13.751.322,3.82.384,22.608.61,23.725s-5,.308-5,.308-2.571-24.549-3.529-28.617c-.893-3.787-4.207-20.094-5.021-19.06s-1.825,19.03-2.428,22.017-2.438,26.374-2.438,26.374-4.158.828-5.265-.108c0,0-.5-20.155-.119-25.755.146-2.134-2.5-25.592.894-35.035C1832.013,1296.716,1848.736,1304.431,1848.736,1304.431Z" transform="translate(-1828.48 -1300.026)" fill="#292c47"/>
      </g>
      <g id="Group_746" data-name="Group 746" transform="translate(1750.514 992.296)">
        <path id="Path_956" data-name="Path 956" d="M1788.073,1123.482a11.867,11.867,0,0,0,3.611.578c1.067-.2.527-13.273.569-15.995a69.38,69.38,0,0,1,1.24-8.035.049.049,0,0,0,0,.01.011.011,0,0,1,0,.007s0,.007,0,.01c.12.437,1.75,6.484,1.806,9.389.06,3.016-.393,14.551-.393,14.551l4.492.438,12.911.316,2.693-.317s-.322-4.933-.442-7.276c-.074-1.49-.364-4.156-.289-6.752a23.912,23.912,0,0,1,.225-3.916c.029-5.2.344-10.357.344-10.357q.262-3.539.365-6.623c-.569-.3-1.253-.653-1.8-.913-1.695-.807-4.055-1.894-5.571-2.589-.888-.407-1.756-.7-1.756-.7s-6.055-.58-6.547-.55a15.356,15.356,0,0,0-1.9.652,69.556,69.556,0,0,0-6.947,2.948c-.967.692-3.01,17.139-3.1,18.291C1787.417,1108.716,1788.073,1123.482,1788.073,1123.482Z" transform="translate(-1787.556 -1084.75)" fill="#cac7d1"/>
      </g>
      <path id="Path_957" data-name="Path 957" d="M1873.876,1335.906a107.29,107.29,0,0,1-16.623,0v2.547s11.656,1.683,17.012-.486Z" transform="translate(-96.299 -305.989)" fill="#1d2033"/>
      <g id="Group_747" data-name="Group 747" transform="translate(1770.019 993.217)">
        <path id="Path_958" data-name="Path 958" d="M1917.771,1090.9s1.441,3.387,2.523,10.956c.416,2.907,1.186,7.8,1.745,12.8v0c.441,3.937,1.449,7.978,1.769,10.992.332,3.122,1.331,12.321,1.331,12.321l2.424-1.528c.346-.32.831-.736.69-1.185a130.1,130.1,0,0,1-2.7-15.468s0-.008,0-.013q-.053-.448-.1-.889c0-.014,0-.031,0-.047-.142-1.24-.26-2.428-.344-3.517a11.068,11.068,0,0,1,.108-2.447c.338-5.566.505-11.434.505-11.434.178-2.4.279-4.647.347-6.739a13.131,13.131,0,0,0-1.867-1.053S1918.784,1091.191,1917.771,1090.9Z" transform="translate(-1917.771 -1090.898)" fill="#5c17b2"/>
      </g>
      <path id="Path_959" data-name="Path 959" d="M1884.563,1101.005s.162,2.318-1.8,2.372a5.14,5.14,0,0,1-3.517-1.829l3.254.839,1.981-1.679Z" transform="translate(-114.998 -106.022)" fill="#cac7d1"/>
      <g id="Group_749" data-name="Group 749" transform="translate(1795.457 1005.562)">
        <g id="Group_748" data-name="Group 748" transform="translate(0 0)">
          <path id="Path_960" data-name="Path 960" d="M2087.589,1177.846s1.428-.4,1.618-1.252a5.289,5.289,0,0,1,1.087-1.833c.291-.349.818-1.743,1.224-1.391s-.765,2.337-.934,2.8,1.809-.35,2.267-.208,1.38,3.556-.031,3.953-3.116-.134-3.354-.013a9.055,9.055,0,0,1-1.018.331Z" transform="translate(-2087.589 -1173.314)" fill="#eea886"/>
        </g>
      </g>
      <g id="Group_750" data-name="Group 750" transform="translate(1761.466 977.18)">
        <path id="Path_961" data-name="Path 961" d="M1866.12,983.884s4.5.758,3.733,7.8-4.731,6.418-5,6.409-3.992.085-4.189-8.522C1860.668,989.568,1860.611,983.205,1866.12,983.884Z" transform="translate(-1860.668 -983.833)" fill="#eea987"/>
      </g>
      <g id="Group_751" data-name="Group 751" transform="translate(1762.983 988.582)">
        <path id="Path_962" data-name="Path 962" d="M1876.7,1060.768s0,2.9.119,3.527c.128.675-3.61,2.626-6.024.353a24.876,24.876,0,0,0,.336-4.285C1870.979,1059.245,1876.7,1060.768,1876.7,1060.768Z" transform="translate(-1870.794 -1059.953)" fill="#eea987"/>
      </g>
      <g id="Group_752" data-name="Group 752" transform="translate(1770.375 983.161)">
        <path id="Path_963" data-name="Path 963" d="M1920.441,1023.994s.5-.521.674.014a9.312,9.312,0,0,1-.736,3.015s-.093.206-.21.091A25.858,25.858,0,0,1,1920.441,1023.994Z" transform="translate(-1920.147 -1023.766)" fill="#eea987"/>
      </g>
      <g id="Group_753" data-name="Group 753" transform="translate(1760.81 982.604)">
        <path id="Path_964" data-name="Path 964" d="M1856.994,1020.292s-.477-.542-.674-.014a9.032,9.032,0,0,0,.612,3.043s.155.243.277.133A26.015,26.015,0,0,0,1856.994,1020.292Z" transform="translate(-1856.286 -1020.047)" fill="#eea987"/>
      </g>
      <g id="Group_754" data-name="Group 754" transform="translate(1761.151 976.008)">
        <path id="Path_965" data-name="Path 965" d="M1868.444,982.441c-.155.963-.3,1.679-.3,1.679l-.654.855a17.267,17.267,0,0,0-.061-2.187c-.038-.113-.083-.312-.128-.527-.075-.356-.152-.758-.2-.892a9.626,9.626,0,0,0-7.211.231s.029.291.027.615c0,.377-.043.8-.216.863-.322.118-.187,2.212-.187,2.212l-.523-.6s-.151-1.094-.3-2.351l0-.009c-.034-.293-.068-.595-.1-.894-.075-1.265.05-3.561,1.7-4.91,1.111-.475,2.885-.88,5.843.026a3.481,3.481,0,0,1,.927.393C1868.888,978.968,1868.444,982.441,1868.444,982.441Z" transform="translate(-1858.564 -976.008)" fill="#353a3d"/>
      </g>
      <path id="Path_966" data-name="Path 966" d="M1875.1,1072.73a2.862,2.862,0,0,0,2.385.959,3.244,3.244,0,0,0,2.391-.907,2.91,2.91,0,0,1-2.4,1.633A2.943,2.943,0,0,1,1875.1,1072.73Z" transform="translate(-111.472 -82.234)" fill="#c78d71"/>
      <path id="Path_967" data-name="Path 967" d="M1902.649,1086.926l-1.678,1.241a17.456,17.456,0,0,0,1.438-4.184Z" transform="translate(-133.468 -91.801)" fill="#a09ea6"/>
      <path id="Path_968" data-name="Path 968" d="M1910.574,1083.983l1.141,1.062,1.2,3.58-2.1-1.7Z" transform="translate(-141.632 -91.801)" fill="#eae6f2"/>
      <g id="Group_755" data-name="Group 755" transform="translate(1774.034 996.451)">
        <path id="Path_969" data-name="Path 969" d="M1967.881,1129.44s-9.9,2.607-12.321,2.011c-1.119-.275-2.593-1.82-3.993-3.635-.461-.6-.914-1.226-1.345-1.847a0,0,0,0,1,0,0c-1.718-2.481-3.065-4.859-3.065-4.859s-5.079-5.952-1-8.6a4.6,4.6,0,0,1,2.694.547c.9.665,3.1,4.855,3.453,5.632s4.216,7.989,4.474,8.151,3.568-.429,5.315-.575a27.879,27.879,0,0,0,5.219-.963Z" transform="translate(-1944.569 -1112.485)" fill="#5c17b2"/>
      </g>
      <path id="Path_970" data-name="Path 970" d="M1888.764,1091.109a19.77,19.77,0,0,1-1.223,3.117s-1.76-1.542-2.314-2.092S1888.764,1091.109,1888.764,1091.109Z" transform="translate(-120.039 -97.86)" fill="#eea987"/>
      <path id="Path_971" data-name="Path 971" d="M1884.461,1100.406l1.842,1.724a8.234,8.234,0,0,1-2.584-.507Z" transform="translate(-118.799 -105.765)" fill="#a09ea6"/>
      <path id="Path_972" data-name="Path 972" d="M1862.081,1079.2a17.447,17.447,0,0,0,2.444,3.177l-1.635,2.713-2.62-4.76Z" transform="translate(-98.864 -87.733)" fill="#eae6f2"/>
      <g id="Group_756" data-name="Group 756" transform="translate(1749.862 992.595)">
        <path id="Path_973" data-name="Path 973" d="M1788.733,1109.882c-.188,2.525.881,16.5-.186,16.7s-4.984-.665-4.984-.665-.491-15.069-.334-16.649c.114-1.15,1.945-18.4,2.911-19.089.558-.4,4.694-1.867,6.724-2.667.371-.147,1.546-.64,1.878-.766.43.479,4.181,9.28,4.537,16.144a91.992,91.992,0,0,1-.753,10.105c-.4,3.845-.837,6.847-1.16,10.062-.635,6.336-1.08,11.377-1.08,11.377l-6.306-2.807c-1.02-.51-2.433-2.6-2.05-3.68,1.458-4.083,3.293-11.058,3.3-14.641,0,0-.7-8.772-1.261-10.7A54.1,54.1,0,0,0,1788.733,1109.882Z" transform="translate(-1783.198 -1086.742)" fill="#5c17b2"/>
      </g>
      <rect id="Rectangle_528" data-name="Rectangle 528" width="4.177" height="3.106" transform="translate(1767.093 1030.073)" fill="#3a4066"/>
      <g id="Group_757" data-name="Group 757" transform="translate(1743.989 1037.32)">
        <path id="Path_974" data-name="Path 974" d="M1757.73,1394.482h-13.742l3.224-9.151h13.742Z" transform="translate(-1743.989 -1385.331)" fill="#eddad3"/>
        <path id="Path_975" data-name="Path 975" d="M1757.73,1394.482h-13.742l3.224-9.151h13.742Z" transform="translate(-1743.989 -1385.331)" fill="#f2dfd8"/>
        <path id="Path_976" data-name="Path 976" d="M1747.213,1455.575h13.742l-3.224-9.151h-13.742Z" transform="translate(-1743.989 -1437.273)" fill="#d6c5be"/>
        <path id="Path_977" data-name="Path 977" d="M1757.73,1516.669h-13.742l3.224-9.151h13.742Z" transform="translate(-1743.989 -1489.215)" fill="#f2dfd8"/>
        <path id="Path_978" data-name="Path 978" d="M1747.213,1577.761h13.742l-3.224-9.151h-13.742Z" transform="translate(-1743.989 -1541.156)" fill="#d6c5be"/>
        <rect id="Rectangle_529" data-name="Rectangle 529" width="7.837" height="0.339" transform="translate(4.03 1.528)" fill="#c9bab3"/>
        <rect id="Rectangle_530" data-name="Rectangle 530" width="7.837" height="0.339" transform="translate(3.564 2.757)" fill="#c9bab3"/>
        <rect id="Rectangle_531" data-name="Rectangle 531" width="6.34" height="0.339" transform="translate(3.056 3.985)" fill="#c9bab3"/>
        <rect id="Rectangle_532" data-name="Rectangle 532" width="7.837" height="0.339" transform="translate(4.03 19.766)" fill="#c9bab3"/>
        <rect id="Rectangle_533" data-name="Rectangle 533" width="3.919" height="0.339" transform="translate(3.564 20.995)" fill="#c9bab3"/>
      </g>
      <path id="Path_979" data-name="Path 979" d="M1791.928,1345.919s.074.234.2.625c.223.676.941,1.449.5,2.372s-3.768.343-4.274-.088-.3-1.844.864-3.657S1791.928,1345.919,1791.928,1345.919Z" transform="translate(-37.502 -313.314)" fill="#eea886"/>
      <path id="Path_980" data-name="Path 980" d="M1791.26,1362.695a29.544,29.544,0,0,1-.277,3.213c-.215,1.483-.689,3.294-1.063,3.244-.568-.075-.009-1.515.1-3,.1-1.367-.147-1.115-.147-1.115s.076-.068-.331,1.4c-.437,1.578-.973,3.254-1.28,3.219-.38-.043-.424-.08-.36-.679-.112.336-.22.353-.366.321-.756-.171-.479-2.589-.368-3.549-.089.737-.235,1.269-.63.865-.452-.462.1-3.863.175-5.1C1786.8,1360.165,1791.26,1362.695,1791.26,1362.695Z" transform="translate(-36.028 -327.425)" fill="#eea886"/>
      <g id="Group_758" data-name="Group 758" transform="translate(1750.015 1017.017)">
        <path id="Path_981" data-name="Path 981" d="M1789.768,1255.566l-.065,11.1a19.322,19.322,0,0,1-5.271-1.226l-.212-15.661Z" transform="translate(-1784.22 -1249.784)" fill="#5c17b2"/>
      </g>
    </g>
  </g>
</svg>
