<svg xmlns="http://www.w3.org/2000/svg" width="215.033" height="157.496" viewBox="0 0 215.033 157.496">
  <g id="Group_996" data-name="Group 996" transform="translate(-112.115 -240.948)">
    <g id="Group_526" data-name="Group 526" transform="translate(-280.755 7.938)">
      <ellipse id="Ellipse_80" data-name="Ellipse 80" cx="107.517" cy="7.515" rx="107.517" ry="7.515" transform="translate(392.869 375.477)" fill="#d8d2f2" opacity="0.6"/>
    </g>
    <g id="Group_914" data-name="Group 914" transform="translate(-30.735 113.87)">
      <g id="Group_895" data-name="Group 895" transform="translate(243.624 127.202)">
        <path id="Path_1225" data-name="Path 1225" d="M370.174,386.242c-.013,1.585-8.914,2.794-19.879,2.7s-19.845-1.453-19.831-3.038,8.914-2.794,19.88-2.7S370.188,384.657,370.174,386.242Z" transform="translate(-305.333 -238.717)" fill="#e6e6e6" style="mix-blend-mode: multiply;isolation: isolate"/>
        <g id="Group_881" data-name="Group 881" transform="translate(29.619 137.3)">
          <g id="Group_880" data-name="Group 880">
            <g id="Group_879" data-name="Group 879" transform="translate(13.729)">
              <path id="Path_1226" data-name="Path 1226" d="M362.731,373.507l.2-3.028,4.021.266-.35,5.289Z" transform="translate(-362.731 -370.478)" fill="#ffb780"/>
            </g>
            <path id="Path_1227" data-name="Path 1227" d="M352.143,375.842s-7.065,4.047-10.8,4.031-4.075,2.88-.016,3.327c3.215.353,6.213.049,10.158-.044.294-.007,3.433-.391,3.433-.391a11.822,11.822,0,0,0,1.949-.125,40.654,40.654,0,0,0-.692-6.759l-2.4.975.12-1Z" transform="translate(-338.414 -372.814)" fill="#000c19"/>
          </g>
        </g>
        <g id="Group_882" data-name="Group 882" transform="translate(0 22.748)">
          <path id="Path_1228" data-name="Path 1228" d="M338.44,167.621s-4.917-1.008-7.555,8.142a82.662,82.662,0,0,1-9.674,20.856l-24.343,4.858,3.252,7.108s29.687-1.616,32.162-6.978S351.586,171.918,338.44,167.621Z" transform="translate(-290.706 -167.588)" fill="#b38ff9"/>
          <path id="Path_1229" data-name="Path 1229" d="M307.4,234c1.332.077,2.3.356,2.992-.26.567-.5.339-1.065.846-1.366,1.033-.613,2.878,1.188,3.383.716.366-.342-.412-1.463-.065-1.756s1.3.742,2.733,1.041a5.292,5.292,0,0,0,3.188-.521,21.719,21.719,0,0,1,8-1.236,12.118,12.118,0,0,1,2,1.252c-8.421,2.959-25.7,4.04-27.569,4.149a1.681,1.681,0,0,1,.135-1.3C303.712,233.786,306.49,233.947,307.4,234Z" transform="translate(-293.307 -195.03)" fill="#5c17b2"/>
          <path id="Path_1230" data-name="Path 1230" d="M297.1,233.555s-7.183,1.864-9.8-.524c-2.747-2.51-.575-4.477.242-4.7s3.8-.641,3.8-.641l2.384-.809Z" transform="translate(-285.953 -193.404)" fill="#daa366"/>
          <path id="Path_1231" data-name="Path 1231" d="M296.143,225.767l3.416-.83,4.143,8.823-3.752.2Z" transform="translate(-290.39 -192.558)" fill="#f1f1f1"/>
          <path id="Path_1232" data-name="Path 1232" d="M304.107,237.526a.537.537,0,1,0,.5-.57A.536.536,0,0,0,304.107,237.526Z" transform="translate(-293.857 -197.79)" fill="none" stroke="#4c4c4c" stroke-miterlimit="10" stroke-width="0.25"/>
        </g>
        <path id="Path_1233" data-name="Path 1233" d="M346.584,227.3l12.558.886s-.48,33.383-3.1,46.627c0,0,4.729,22.124,3.182,34.35l-4.841.458S347.4,281.759,345.8,277.1C343.868,271.5,344.18,257.5,346.584,227.3Z" transform="translate(-311.462 -170.837)" fill="#303030"/>
        <path id="Path_1234" data-name="Path 1234" d="M360.663,371.949l.266,3.2,5.364-.277.345-2.887Z" transform="translate(-318.482 -233.819)" fill="#303030"/>
        <g id="Group_883" data-name="Group 883" transform="translate(41.865 68.495)" opacity="0.36">
          <path id="Path_1235" data-name="Path 1235" d="M360.154,248.8a.424.424,0,0,0-.05-.189Z" transform="translate(-360.104 -248.613)"/>
        </g>
        <g id="Group_888" data-name="Group 888" transform="translate(37.92 56.943)">
          <g id="Group_887" data-name="Group 887" transform="translate(0 80.351)">
            <g id="Group_886" data-name="Group 886">
              <g id="Group_885" data-name="Group 885">
                <g id="Group_884" data-name="Group 884" transform="translate(12.757)">
                  <path id="Path_1236" data-name="Path 1236" d="M375.819,373.591l-.107-2.98,3.956-.143.188,5.2Z" transform="translate(-375.712 -370.468)" fill="#ffb780"/>
                </g>
                <path id="Path_1237" data-name="Path 1237" d="M365.981,375.716s-6.5,4.663-10.15,5.02-3.694,3.223.318,3.253c3.178.023,6.078-.574,9.923-1.06.287-.036,3.317-.726,3.317-.726a11.6,11.6,0,0,0,1.892-.317,39.927,39.927,0,0,0-1.352-6.537l-2.251,1.194.018-.986Z" transform="translate(-353.116 -372.593)" fill="#000c19"/>
              </g>
            </g>
          </g>
          <path id="Path_1238" data-name="Path 1238" d="M358.95,228.152l13.157,10.25s4.325,6.386-2.288,36.371c0,0,5.735,16.5,2.067,34.936l-4.866.738s-8-29.992-9.621-34.647C355.452,270.21,356.009,254.12,358.95,228.152Z" transform="translate(-354.484 -228.152)" fill="#303030"/>
          <path id="Path_1239" data-name="Path 1239" d="M376.842,282.268s5.735,16.5,2.067,34.936l-1.012.154-.055-2.607s-.1-6.9-.61-7.786.532-2.747.788-3.7-2.441-.659-1.4-3.974-4.236-18.463-4.236-18.463c3.364-5.086,1.783-34.891,1.783-34.891l4.279-.573.682.531S383.455,252.283,376.842,282.268Z" transform="translate(-361.507 -235.647)" fill="#000c19"/>
          <path id="Path_1240" data-name="Path 1240" d="M373.839,371.943l.263,3.205,5.559-.2.369-2.884Z" transform="translate(-362.139 -290.759)" fill="#303030"/>
        </g>
        <path id="Path_1241" data-name="Path 1241" d="M346.836,242.352l-.4,4.5,21.393-2.094" transform="translate(-312.288 -177.392)" opacity="0.36"/>
        <path id="Path_1242" data-name="Path 1242" d="M351.789,169.475s-2.45,3.022-5.359,11.962c-2.351,7.226-1.478,11.753-1.895,16.756-.881,10.562-.283,13.96-.283,13.96l22.657.6s1.715-16.47,1.691-35.706C368.591,170.021,360.6,167.541,351.789,169.475Z" transform="translate(-311.25 -145.385)" fill="#b38ff9"/>
        <path id="Path_1243" data-name="Path 1243" d="M356.354,176.1l-1.975,39.285-5.613-.321s.412-33.832,3.025-39.294Z" transform="translate(-313.302 -148.402)" fill="#b38ff9"/>
        <path id="Path_1244" data-name="Path 1244" d="M376.983,210.514a28.708,28.708,0,0,1,1.422-5.2l3.394,6.945c-.473,8.087-1.179,16.375-1.179,16.375l-5.076-.135a18.349,18.349,0,0,0,2.22-7.545C378.02,216.474,376.218,215.179,376.983,210.514Z" transform="translate(-324.961 -161.266)" fill="#5c17b2"/>
        <path id="Path_1245" data-name="Path 1245" d="M352.664,175.715s-1.022,13.885.188,21.228c0,0-2.27,8.73-2.932,7.55s-2.431-5.158-2.552-7.229S350.7,176.688,352.664,175.715Z" transform="translate(-312.692 -148.378)" fill="#fff"/>
        <path id="Path_1246" data-name="Path 1246" d="M364.752,164.612l-1.251-2.93c-3.69,1.576-9.1,5.907-9.321,6.086l.039,4.061C354.179,172.322,361.47,166.012,364.752,164.612Z" transform="translate(-315.659 -142.268)" fill="#5c17b2"/>
        <path id="Path_1247" data-name="Path 1247" d="M359.7,141.5l6.338.512-1.22,15.125c-.213,2.646-6.868,4.835-6.868,4.835-1.584.115-.6-3.309-.156-5.638Z" transform="translate(-316.923 -133.481)" fill="#daa366"/>
        <path id="Path_1248" data-name="Path 1248" d="M358.513,164.751l3.951-2.209-3.752.655Z" transform="translate(-317.546 -142.642)" opacity="0.1"/>
        <path id="Path_1249" data-name="Path 1249" d="M362.647,168.1l-5.447,2.66a10.723,10.723,0,0,0-.18,1.652C357.067,172.757,362.647,168.1,362.647,168.1Z" transform="translate(-316.893 -145.062)" opacity="0.1"/>
        <path id="Path_1250" data-name="Path 1250" d="M355.816,175.157l-.036-3.936c3.054-2.921,9.292-6.236,9.556-6.375l1.568,2.965A131.959,131.959,0,0,0,355.816,175.157Z" transform="translate(-316.356 -143.645)" fill="#5c17b2"/>
        <path id="Path_1251" data-name="Path 1251" d="M350.924,386.625" transform="translate(-314.242 -240.209)" fill="#303030"/>
        <g id="Group_890" data-name="Group 890" transform="translate(47.313 25.444)">
          <g id="Group_889" data-name="Group 889">
            <path id="Path_1252" data-name="Path 1252" d="M374.657,172.459s-8,1-3.567,9.373c7.461,14.1,10.539,20.738,10.539,20.738l2.164,24.848,7.411-2.569s-.015-19.057-1.494-24.773C387.9,193.075,382.2,170.706,374.657,172.459Z" transform="translate(-369.753 -172.361)" fill="#b38ff9"/>
            <path id="Path_1253" data-name="Path 1253" d="M386.573,175.778c5.223,5.337,9.04,20.291,10.461,25.785,1.371,5.3,1.484,22.064,1.493,24.474-.991.045-1.865-.131-2.17-.625-.609-.989,1.249-2.955.325-4.359-.392-.6-1.107-.818-1.041-1.3.073-.542,1.038-.763.976-1.041s-1.066-.111-1.171-.455c-.135-.447,1-.783,1.431-1.562,1.4-2.512-.78-4.527-.65-9.238.068-2.477.172-2.661-.683-3.34-.993-.788-2.381-.364-2.537-.726-.141-.328.945-.8,1.7-1.861,1.987-2.786-2.633-9.005-5.9-17.884A51.136,51.136,0,0,1,386.573,175.778Z" transform="translate(-377.077 -173.849)" fill="#5c17b2"/>
          </g>
          <path id="Path_1254" data-name="Path 1254" d="M401.467,265.176s.556,6.814-2.362,8.539c-3.065,1.813-5.118-.443-5.092-1.253s.477-3.659.477-3.659l-.073-2.377Z" transform="translate(-380.316 -212.773)" fill="#daa366"/>
          <path id="Path_1255" data-name="Path 1255" d="M393.359,266.125l-.1-3.7,8.657-.946-.232,4.017Z" transform="translate(-379.99 -211.164)" fill="#f1f1f1"/>
          <line id="Line_149" data-name="Line 149" x2="4.37" y2="8.894" transform="translate(4.986 16.438)" fill="none" stroke="#303030" stroke-linecap="round" stroke-miterlimit="10" stroke-width="0.5"/>
        </g>
        <line id="Line_150" data-name="Line 150" y1="9.11" x2="0.47" transform="translate(32.867 51.438)" fill="none" stroke="#303030" stroke-linecap="round" stroke-miterlimit="10" stroke-width="0.5"/>
        <path id="Path_1256" data-name="Path 1256" d="M356.638,267.966v20.94l5.137,23.421" transform="translate(-316.729 -188.544)" fill="none" stroke="#000c19" stroke-linecap="round" stroke-miterlimit="10" stroke-width="0.5"/>
        <g id="Group_891" data-name="Group 891" transform="translate(47.218 139.762)">
          <path id="Path_1257" data-name="Path 1257" d="M372.949,376.744s-.626-2.71-1.507-1.665S372.949,376.744,372.949,376.744Z" transform="translate(-370.308 -374.84)" fill="none" stroke="#4c4c4c" stroke-linejoin="round" stroke-width="0.25"/>
          <path id="Path_1258" data-name="Path 1258" d="M374.262,376.965s.97-2.383,1.545-1.365S374.262,376.965,374.262,376.965Z" transform="translate(-371.621 -375.061)" fill="none" stroke="#4c4c4c" stroke-linejoin="round" stroke-width="0.25"/>
          <path id="Path_1259" data-name="Path 1259" d="M372.143,378.3s-.563-.267-1.358.428-1.2.238-1.2.238" transform="translate(-369.585 -376.322)" fill="none" stroke="#4c4c4c" stroke-linecap="round" stroke-miterlimit="10" stroke-width="0.25"/>
          <path id="Path_1260" data-name="Path 1260" d="M374.257,378.356s.248.547,1.255.229a1.246,1.246,0,0,1,1.467.392" transform="translate(-371.619 -376.371)" fill="none" stroke="#4c4c4c" stroke-linecap="round" stroke-miterlimit="10" stroke-width="0.25"/>
        </g>
        <g id="Group_892" data-name="Group 892" transform="translate(39.531 139.454)">
          <path id="Path_1261" data-name="Path 1261" d="M359.605,376.337s-.352-2.808-1.353-1.842S359.605,376.337,359.605,376.337Z" transform="translate(-356.855 -374.293)" fill="none" stroke="#4c4c4c" stroke-linejoin="round" stroke-width="0.25"/>
          <path id="Path_1262" data-name="Path 1262" d="M360.84,376.746s1.23-2.313,1.706-1.222S360.84,376.746,360.84,376.746Z" transform="translate(-358.09 -374.702)" fill="none" stroke="#4c4c4c" stroke-linejoin="round" stroke-width="0.25"/>
          <path id="Path_1263" data-name="Path 1263" d="M358.629,377.954s-.542-.329-1.419.293-1.24.117-1.24.117" transform="translate(-355.97 -375.849)" fill="none" stroke="#4c4c4c" stroke-linecap="round" stroke-miterlimit="10" stroke-width="0.25"/>
          <path id="Path_1264" data-name="Path 1264" d="M360.821,378.058s.195.579,1.247.362a1.268,1.268,0,0,1,1.445.549" transform="translate(-358.082 -375.932)" fill="none" stroke="#4c4c4c" stroke-linecap="round" stroke-miterlimit="10" stroke-width="0.25"/>
        </g>
        <g id="Group_894" data-name="Group 894" transform="translate(36.631)">
          <path id="Path_1265" data-name="Path 1265" d="M352.627,133.008c-2.29,4.016-2.1,9.782-1.009,12.869,1.612,4.54,7.323,3.77,10.854.52,3.133-2.883,4.617-8.017,3-11.708C363.385,129.906,355.464,128.032,352.627,133.008Z" transform="translate(-350.834 -128.504)" fill="#daa366"/>
          <path id="Path_1266" data-name="Path 1266" d="M355.767,131.217s10.726-1.1,6.053,12.113c-2.522,7.13,14.1-12.561-.734-15.659-11.037-2.3-9.1,6.746-9.1,6.746S352.927,130.135,355.767,131.217Z" transform="translate(-351.279 -127.297)" fill="#4c4c4c"/>
          <path id="Path_1267" data-name="Path 1267" d="M368.531,144.05a18.834,18.834,0,0,0,.512-2.857c1.534-.2,3.043-.1,3.383-.976.44-1.139-1.663-2.421-1.152-3.646.477-1.143,1.521-1.238,2.228-2.305.734-1.107-1.923-4.03-3.371-5.376,6.485,1.637,5.37,12.066,1.829,16.08C370.355,146.787,367.864,146.471,368.531,144.05Z" transform="translate(-358.491 -127.99)" fill="#303030"/>
          <path id="Path_1268" data-name="Path 1268" d="M353.683,133.026s11.178.277,8.449,6.374c-1.121,2.5,2.949,2.278,2.812.28C363.958,125.382,353.683,133.026,353.683,133.026Z" transform="translate(-352.074 -128.902)" fill="#4c4c4c"/>
          <g id="Group_893" data-name="Group 893" transform="translate(9.366 11.248)">
            <path id="Path_1269" data-name="Path 1269" d="M369.966,150.142a1.461,1.461,0,0,1-2.217.176,1.96,1.96,0,0,1,.294-2.491,1.462,1.462,0,0,1,2.217-.177A1.961,1.961,0,0,1,369.966,150.142Z" transform="translate(-367.423 -147.219)" fill="#daa366"/>
          </g>
        </g>
      </g>
      <g id="Group_913" data-name="Group 913" transform="translate(188.735 127.079)">
        <path id="Path_1270" data-name="Path 1270" d="M188.735,386.242c.014,1.585,8.914,2.794,19.88,2.7s19.844-1.453,19.832-3.038-8.914-2.794-19.88-2.7S188.721,384.657,188.735,386.242Z" transform="translate(-188.735 -238.594)" fill="#e6e6e6" style="mix-blend-mode: multiply;isolation: isolate"/>
        <g id="Group_898" data-name="Group 898" transform="translate(16.744 137.423)">
          <g id="Group_897" data-name="Group 897">
            <g id="Group_896" data-name="Group 896" transform="translate(0.528)">
              <path id="Path_1271" data-name="Path 1271" d="M223.548,373.507l-.2-3.028-4.02.266.35,5.289Z" transform="translate(-219.327 -370.478)" fill="#ffb780"/>
            </g>
            <path id="Path_1272" data-name="Path 1272" d="M223.141,375.842s7.065,4.047,10.8,4.031,4.075,2.88.016,3.327c-3.215.353-6.213.049-10.158-.044-.294-.007-3.434-.391-3.434-.391a11.815,11.815,0,0,1-1.948-.125,40.607,40.607,0,0,1,.691-6.759l2.4.975-.12-1Z" transform="translate(-218.391 -372.814)" fill="#000c19"/>
          </g>
        </g>
        <path id="Path_1273" data-name="Path 1273" d="M231.387,227.3l-12.558.886s.48,33.383,3.1,46.627c0,0-4.729,22.124-3.182,34.35l4.841.458s6.977-27.86,8.584-32.521C234.1,271.5,233.791,257.5,231.387,227.3Z" transform="translate(-201.667 -170.714)" fill="#303030"/>
        <path id="Path_1274" data-name="Path 1274" d="M224.263,371.949l-.265,3.2-5.364-.277-.345-2.887Z" transform="translate(-201.602 -233.695)" fill="#303030"/>
        <g id="Group_899" data-name="Group 899" transform="translate(22.926 68.618)" opacity="0.36">
          <path id="Path_1275" data-name="Path 1275" d="M229.341,248.8a.433.433,0,0,1,.05-.189Z" transform="translate(-229.341 -248.613)"/>
        </g>
        <g id="Group_904" data-name="Group 904" transform="translate(7.909 57.066)">
          <g id="Group_903" data-name="Group 903" transform="translate(0.848 80.351)">
            <g id="Group_902" data-name="Group 902">
              <g id="Group_901" data-name="Group 901">
                <g id="Group_900" data-name="Group 900" transform="translate(1.264)">
                  <path id="Path_1276" data-name="Path 1276" d="M210.519,373.591l.108-2.98-3.956-.143-.188,5.2Z" transform="translate(-206.482 -370.468)" fill="#ffb780"/>
                </g>
                <path id="Path_1277" data-name="Path 1277" d="M209.544,375.716s6.5,4.663,10.15,5.02,3.695,3.223-.318,3.253c-3.178.023-6.078-.574-9.923-1.06-.287-.036-3.316-.726-3.316-.726a11.592,11.592,0,0,1-1.892-.317,39.923,39.923,0,0,1,1.352-6.537l2.251,1.194-.018-.986Z" transform="translate(-204.244 -372.593)" fill="#000c19"/>
              </g>
            </g>
          </g>
          <path id="Path_1278" data-name="Path 1278" d="M217.289,228.152,204.132,238.4s-4.326,6.386,2.287,36.371c0,0-5.735,16.5-2.067,34.936l4.867.738s8-29.992,9.62-34.647C220.787,270.21,220.229,254.12,217.289,228.152Z" transform="translate(-202.743 -228.152)" fill="#303030"/>
          <path id="Path_1279" data-name="Path 1279" d="M206.42,282.268s-5.735,16.5-2.067,34.936l1.012.154.055-2.607s.1-6.9.611-7.786-.532-2.747-.788-3.7,2.441-.659,1.4-3.974,4.236-18.463,4.236-18.463c-3.364-5.086-1.782-34.891-1.782-34.891l-4.279-.573-.681.531S199.807,252.283,206.42,282.268Z" transform="translate(-202.743 -235.647)" fill="#000c19"/>
          <path id="Path_1280" data-name="Path 1280" d="M210.921,371.943l-.263,3.205-5.559-.2-.369-2.884Z" transform="translate(-203.608 -290.759)" fill="#303030"/>
        </g>
        <path id="Path_1281" data-name="Path 1281" d="M226.312,243.179l.287,4.037-21.393-2.094" transform="translate(-195.907 -177.629)" opacity="0.36"/>
        <path id="Path_1282" data-name="Path 1282" d="M218.814,169.475s2.451,3.022,5.359,11.962c2.351,7.226,1.671,11.741,1.9,16.756.478,10.69.445,25.67.445,25.67l-2.455.019-.169-11.835-5.613.321.12,11.845H202.5s-.523-27.928-.5-47.164C202.012,170.021,210,167.541,218.814,169.475Z" transform="translate(-194.512 -145.262)" fill="#fa8a00"/>
        <rect id="Rectangle_551" data-name="Rectangle 551" width="6.783" height="1.545" transform="matrix(0.737, -0.675, 0.675, 0.737, 14.139, 70.767)" fill="#f7d18f"/>
        <path id="Path_1283" data-name="Path 1283" d="M227.327,176.1l1.976,39.285,5.613-.321s-.411-33.832-3.025-39.294Z" transform="translate(-205.538 -148.279)" fill="#f1f1f1"/>
        <path id="Path_1284" data-name="Path 1284" d="M230.672,180.873l-2.55-1.114,2.57,36.74-1.384.079-1.968-38.067Z" transform="translate(-205.544 -149.472)" fill="#e6e6e6"/>
        <path id="Path_1285" data-name="Path 1285" d="M207.318,204.606c-.242-1.472.478-5.96-.049-7.195l-5.251-5.665c-.23,8.522.471,42.439.471,42.439h7.236c-.9-1.733-3-15.871-3.188-19.138C206.281,210.566,208.083,209.271,207.318,204.606Z" transform="translate(-194.498 -155.235)" fill="#fa8a00"/>
        <path id="Path_1286" data-name="Path 1286" d="M232.639,175.715s1.022,13.885-.188,21.228c0,0,2.27,8.73,2.931,7.55s2.431-5.158,2.552-7.229S234.607,176.688,232.639,175.715Z" transform="translate(-207.769 -148.255)" fill="#b38ff9"/>
        <path id="Path_1287" data-name="Path 1287" d="M216.63,164.612l1.25-2.93c3.69,1.576,9.1,5.907,9.322,6.086l-.04,4.061C227.2,172.322,219.911,166.012,216.63,164.612Z" transform="translate(-200.881 -142.145)" fill="#f1f1f1"/>
        <path id="Path_1288" data-name="Path 1288" d="M222.93,141.5l-6.338.512,1.22,15.125c.213,2.646,6.868,4.835,6.868,4.835,1.584.115.6-3.309.156-5.638Z" transform="translate(-200.864 -133.358)" fill="#ffb780"/>
        <path id="Path_1289" data-name="Path 1289" d="M227.974,164.751l-3.951-2.209,3.752.655Z" transform="translate(-204.099 -142.519)" opacity="0.1"/>
        <path id="Path_1290" data-name="Path 1290" d="M222.542,168.1l5.447,2.66a10.651,10.651,0,0,1,.18,1.652C228.122,172.757,222.542,168.1,222.542,168.1Z" transform="translate(-203.455 -144.939)" opacity="0.1"/>
        <path id="Path_1291" data-name="Path 1291" d="M225.138,175.157l.036-3.936c-3.054-2.921-9.293-6.236-9.557-6.375l-1.568,2.965A132.038,132.038,0,0,1,225.138,175.157Z" transform="translate(-199.757 -143.522)" fill="#f1f1f1"/>
        <path id="Path_1292" data-name="Path 1292" d="M238.609,386.625" transform="translate(-210.45 -240.086)" fill="#303030"/>
        <path id="Path_1293" data-name="Path 1293" d="M228.934,271.638V290.5L223.8,313.926" transform="translate(-204.001 -190.02)" fill="none" stroke="#000c19" stroke-linecap="round" stroke-miterlimit="10" stroke-width="0.5"/>
        <g id="Group_905" data-name="Group 905" transform="translate(12.263 139.885)">
          <path id="Path_1294" data-name="Path 1294" d="M215.272,376.744s.625-2.71,1.507-1.665S215.272,376.744,215.272,376.744Z" transform="translate(-212.552 -374.84)" fill="none" stroke="#4c4c4c" stroke-linejoin="round" stroke-width="0.25"/>
          <path id="Path_1295" data-name="Path 1295" d="M214,376.965s-.971-2.383-1.545-1.365S214,376.965,214,376.965Z" transform="translate(-211.284 -375.061)" fill="none" stroke="#4c4c4c" stroke-linejoin="round" stroke-width="0.25"/>
          <path id="Path_1296" data-name="Path 1296" d="M215.417,378.3s.563-.267,1.358.428,1.2.238,1.2.238" transform="translate(-212.615 -376.322)" fill="none" stroke="#4c4c4c" stroke-linecap="round" stroke-miterlimit="10" stroke-width="0.25"/>
          <path id="Path_1297" data-name="Path 1297" d="M213.177,378.356s-.248.547-1.255.229a1.245,1.245,0,0,0-1.467.392" transform="translate(-210.455 -376.371)" fill="none" stroke="#4c4c4c" stroke-linecap="round" stroke-miterlimit="10" stroke-width="0.25"/>
        </g>
        <g id="Group_906" data-name="Group 906" transform="translate(19.88 139.577)">
          <path id="Path_1298" data-name="Path 1298" d="M228.693,376.337s.352-2.808,1.354-1.842S228.693,376.337,228.693,376.337Z" transform="translate(-226.012 -374.293)" fill="none" stroke="#4c4c4c" stroke-linejoin="round" stroke-width="0.25"/>
          <path id="Path_1299" data-name="Path 1299" d="M227.325,376.746s-1.23-2.313-1.706-1.222S227.325,376.746,227.325,376.746Z" transform="translate(-224.644 -374.702)" fill="none" stroke="#4c4c4c" stroke-linejoin="round" stroke-width="0.25"/>
          <path id="Path_1300" data-name="Path 1300" d="M228.853,377.954s.543-.329,1.42.293,1.239.117,1.239.117" transform="translate(-226.082 -375.849)" fill="none" stroke="#4c4c4c" stroke-linecap="round" stroke-miterlimit="10" stroke-width="0.25"/>
          <path id="Path_1301" data-name="Path 1301" d="M226.637,378.058s-.195.579-1.247.362a1.268,1.268,0,0,0-1.445.549" transform="translate(-223.945 -375.932)" fill="none" stroke="#4c4c4c" stroke-linecap="round" stroke-miterlimit="10" stroke-width="0.25"/>
        </g>
        <g id="Group_908" data-name="Group 908" transform="translate(11.826)">
          <path id="Path_1302" data-name="Path 1302" d="M225.107,133.008c2.289,4.016,2.1,9.782,1.008,12.869-1.611,4.54-7.323,3.77-10.854.52-3.133-2.883-4.617-8.017-3-11.708C214.348,129.906,222.269,128.032,225.107,133.008Z" transform="translate(-210.516 -128.381)" fill="#ffb780"/>
          <path id="Path_1303" data-name="Path 1303" d="M221.624,131.122s-10.422-1.087-5.749,12.125c2.522,7.13-15.193-11.746.43-15.67,10.935-2.747,9.1,6.746,9.1,6.746S224.463,130.04,221.624,131.122Z" transform="translate(-209.728 -127.079)" fill="#4c4c4c"/>
          <path id="Path_1304" data-name="Path 1304" d="M216.025,144.164v0a18.774,18.774,0,0,1-.51-2.854c-1.535-.2-3.044-.1-3.384-.976-.44-1.139,1.663-2.421,1.152-3.646-.477-1.143-1.717-.859-2.424-1.928-.723-1.091,2.191-3.94,3.355-5.605-7.9,2.613-3.719,13.791-.554,16.309C215.111,146.616,216.5,146.216,216.025,144.164Z" transform="translate(-209.681 -127.981)" fill="#303030"/>
          <path id="Path_1305" data-name="Path 1305" d="M227.163,133.026s-11.178.277-8.449,6.374c1.121,2.5-2.95,2.278-2.812.28C216.889,125.382,227.163,133.026,227.163,133.026Z" transform="translate(-212.388 -128.779)" fill="#4c4c4c"/>
          <g id="Group_907" data-name="Group 907" transform="translate(3.855 11.371)">
            <path id="Path_1306" data-name="Path 1306" d="M217.129,150.142a1.461,1.461,0,0,0,2.217.176,1.959,1.959,0,0,0-.294-2.491,1.461,1.461,0,0,0-2.217-.177A1.961,1.961,0,0,0,217.129,150.142Z" transform="translate(-216.509 -147.219)" fill="#ffb780"/>
          </g>
        </g>
        <g id="Group_909" data-name="Group 909" transform="translate(21.928 14.484)">
          <path id="Path_1307" data-name="Path 1307" d="M231.675,153.261c-1.269-.146-1.542.2-1.9.526a2.974,2.974,0,0,1-1.184.8,1.672,1.672,0,0,1-1.017.03" transform="translate(-227.574 -152.947)" fill="none" stroke="#4c4c4c" stroke-linecap="round" stroke-miterlimit="10" stroke-width="1"/>
          <path id="Path_1308" data-name="Path 1308" d="M235.849,153a1.272,1.272,0,0,1,.824-.267c.622-.006,1.269.57,1.813.085" transform="translate(-231.177 -152.732)" fill="none" stroke="#4c4c4c" stroke-linecap="round" stroke-miterlimit="10" stroke-width="1"/>
        </g>
        <g id="Group_912" data-name="Group 912" transform="translate(7.691 27.8)">
          <g id="Group_911" data-name="Group 911">
            <g id="Group_910" data-name="Group 910">
              <path id="Path_1309" data-name="Path 1309" d="M202.98,179.965s4.071-7.89,9.854-.461c9.293,11.94,12.961,21.443,12.961,21.443l21.848,4.222-1.858,6.8s-19.917-.934-24.8-4.124C215,203.939,199.025,186.582,202.98,179.965Z" transform="translate(-202.358 -176.318)" fill="#f7d18f"/>
              <path id="Path_1310" data-name="Path 1310" d="M249.116,221.49a10.841,10.841,0,0,1-5.145.193c-1.606-.344-1.214-.643-2.849-1.008-4.263-.952-6.167,1.732-9.166,0a9.146,9.146,0,0,0-2.973-1.385c-1.786-.41-2.991,0-3.344-.63-.472-.841,1.154-2.5.867-2.77-.272-.259-1.513,1.423-3.22,1.385a3.784,3.784,0,0,1-2.849-1.763c-.844-1.28-.032-2.063-.867-3.274-.938-1.36-2.174-1.511-3.964-2.77-1.636-1.152-2.013-2.018-3.22-3.274a18.381,18.381,0,0,0-3.761-2.94c4.321,6.8,11.5,13.977,15.085,16.319,4.888,3.19,24.8,4.124,24.8,4.124Z" transform="translate(-205.086 -188.046)" fill="#f7d18f"/>
            </g>
          </g>
          <path id="Path_1311" data-name="Path 1311" d="M281.189,234.186s6.2,2.656,8.705.423c2.635-2.346,1.158-5,.393-5.229s-3.566-.69-3.566-.69l-2.2-.811Z" transform="translate(-236.681 -198.768)" fill="#ffb780"/>
          <path id="Path_1312" data-name="Path 1312" d="M282.844,226.534l-3.654-.787-2.244,8.132,3.924.526Z" transform="translate(-234.834 -197.839)" fill="#f1f1f1"/>
        </g>
        <path id="Path_1313" data-name="Path 1313" d="M282.909,228.45a.528.528,0,1,0,.493-.57A.531.531,0,0,0,282.909,228.45Z" transform="translate(-229.738 -170.967)" fill="none" stroke="#4c4c4c" stroke-miterlimit="10" stroke-width="0.25"/>
      </g>
      <path id="Path_1314" data-name="Path 1314" d="M293.393,228.251s-4.057,1.344-3.407,2.087c.942,1.074,3.535.982,4.229-.241C294.763,229.134,293.393,228.251,293.393,228.251Z" transform="translate(-44.054 -44.051)" fill="#daa366"/>
    </g>
  </g>
</svg>
