<svg xmlns="http://www.w3.org/2000/svg" width="658.541" height="149.549" viewBox="0 0 658.541 149.549">
  <g id="JKfQ7U" transform="translate(-79.984 -37.689)">
    <path id="Path_8" data-name="Path 8" d="M1227.82,269.009c-12.893,5.8-26.4,7.535-40.52,6.586a34.815,34.815,0,0,0,3.516-1.563,23.871,23.871,0,0,0,3.181-2.065c7.925-5.358,12.5-16.911,9.321-27.069-.335-1.06-.67-2.177-1-3.237h.112V241.6c6.028,1.507,11.832.223,17.693-1.172,2.623-.614,5.135-1.451,7.7-2.232Z" transform="translate(-489.295 -88.601)" fill="#fff"/>
    <path id="Path_9" data-name="Path 9" d="M818.989,159.665v41.971c0,.837-.167,1.06-1.06,1.06-9.153-.056-18.362-.056-27.516,0a1.165,1.165,0,0,1-1.228-.781c-2.4-4.911-4.911-9.767-7.311-14.679-.558-1.116-1.06-1.116-1.842-.223-5.525,6.642-11.776,12.446-20.26,15.125a64.43,64.43,0,0,1-23.051,2.512,36.271,36.271,0,0,1-14.511-3.516c-10.493-5.079-16.241-13.786-18.362-25a49.469,49.469,0,0,1,.67-23.385c3.014-10.437,10.214-16.967,19.925-21.209,8.428-3.684,17.358-5.3,26.511-6.028,8.26-.67,16.521-.614,24.781-.949.781-.056.949-.279.949-1a25.937,25.937,0,0,0-.781-6.865c-1.674-5.8-6.2-8.986-13.228-9.153-8.2-.167-15.962,1.9-23.609,4.577-3.628,1.284-7.144,2.791-10.716,4.186-.614.279-.893.279-1.228-.447q-5.693-13.228-11.553-26.455c-.335-.726-.056-.949.5-1.228A101.7,101.7,0,0,1,747.716,78.9a144.136,144.136,0,0,1,27.739-1.172c7.87.5,15.516,2.121,22.548,5.916,12.055,6.53,18.586,16.8,20.483,30.25a76.592,76.592,0,0,1,.558,10.1C818.989,136,818.933,147.833,818.989,159.665Zm-48.836-11.553a61.259,61.259,0,0,0-11.051,1.06c-9.153,1.953-13.451,7.311-12.948,16.13.279,4.856,3.014,8.149,7.7,9.209a20.639,20.639,0,0,0,5.246.447c8.037-.279,15.125-5.47,17.023-12.669,1.228-4.577.5-9.321.67-14.009,0-.614-.447-.447-.781-.447-1.953.056-3.907.167-5.86.279Z" transform="translate(-275.194 -17.6)" fill="#fff"/>
    <path id="Path_10" data-name="Path 10" d="M375.584,159.8v41.971c0,.837-.167,1.06-1.06,1.06-9.153-.056-18.362-.056-27.516,0a1.165,1.165,0,0,1-1.228-.781c-2.4-4.911-4.856-9.767-7.311-14.679-.558-1.116-1.116-1.06-1.842-.167-5.525,6.642-11.776,12.446-20.26,15.125a64.428,64.428,0,0,1-23.051,2.512,37.225,37.225,0,0,1-14.511-3.516c-10.493-5.079-16.241-13.786-18.362-25a49.993,49.993,0,0,1,.614-23.33c3.014-10.493,10.214-17.079,19.925-21.32,8.428-3.684,17.358-5.3,26.511-6.028,8.26-.67,16.521-.614,24.781-.949.781-.056.949-.279.949-1a25.937,25.937,0,0,0-.781-6.865c-1.674-5.8-6.2-8.986-13.228-9.153-8.2-.167-15.962,1.953-23.609,4.577-3.572,1.228-7.144,2.623-10.6,4.186-.726.335-1,.279-1.34-.5q-5.693-13.144-11.5-26.232c-.335-.726-.167-1,.5-1.284a101.458,101.458,0,0,1,31.59-9.209,144.137,144.137,0,0,1,27.739-1.172c7.646.5,15.069,2.009,21.934,5.581,12.446,6.474,19.144,16.855,21.041,30.585a75.779,75.779,0,0,1,.558,10.046Q375.612,141.993,375.584,159.8ZM326.8,148.244a61.259,61.259,0,0,0-11.051,1.06c-9.153,1.953-13.451,7.311-12.948,16.13.279,4.856,3.014,8.149,7.7,9.209a20.638,20.638,0,0,0,5.246.447c8.093-.223,15.237-5.525,17.079-12.781,1.172-4.577.446-9.265.614-13.9,0-.614-.447-.447-.781-.447Z" transform="translate(-79.262 -17.733)" fill="#fff"/>
    <path id="Path_11" data-name="Path 11" d="M491.455,81.695h21.1a1.063,1.063,0,0,1,1.228.893q10.214,35.664,20.427,71.384a53.817,53.817,0,0,1,2.065,12.279c0,.279-.056.614.391.614s.391-.279.391-.558c.056-6.977,2.456-13.4,4.409-19.925q9.46-31.9,19.032-63.738a1.063,1.063,0,0,1,1.172-.949h.056q21.1.084,42.194,0c.781,0,1,.056.67.949q-23.106,60.529-46.213,121.113a1.053,1.053,0,0,1-1.172.837H516.961a1.154,1.154,0,0,1-1.228-.893q-23.023-60.445-46.1-120.89c-.335-.893-.391-1.172.726-1.116Z" transform="translate(-172.082 -19.442)" fill="#fff"/>
    <path id="Path_12" data-name="Path 12" d="M80.16,181.174v-16.13c0-.726.056-.893.837-.558a125.025,125.025,0,0,0,33.822,9.153c5.3.614,10.66.893,15.907-.279a13.99,13.99,0,0,0,2.567-.893c3.628-1.73,4.353-5.47,1.674-8.428-2.009-2.232-4.688-3.4-7.311-4.521-7.479-3.237-15.014-6.307-22.492-9.6a55.7,55.7,0,0,1-13.283-8.093c-8.316-6.809-11.665-15.907-11.888-26.344-.335-17.134,8.6-28.911,25.9-34.325,10.66-3.293,21.6-3.8,32.65-3.014,12.669.837,24.558,4.744,36.167,9.711.726.279.893.558.558,1.34q-5.442,12.725-10.772,25.562c-.335.781-.614.781-1.34.5-9.042-3.851-18.307-7.032-28.13-8.372a24.637,24.637,0,0,0-11.218.614c-3.739,1.284-4.632,4.967-1.842,7.87a16.17,16.17,0,0,0,5.023,3.125c8.149,3.851,16.744,6.642,24.837,10.493a66.232,66.232,0,0,1,12,7.032,30.578,30.578,0,0,1,12,20.2c1.284,8.372,1.06,16.632-2.009,24.613-4.074,10.493-12.279,16.576-22.548,20.2-9.488,3.349-19.367,4.018-29.3,3.907-13.953-.112-27.683-1.507-40.8-6.474a1.261,1.261,0,0,1-1-1.451Z" transform="translate(0 -17.734)" fill="#fff"/>
    <path id="Path_13" data-name="Path 13" d="M938.7,141.33V81c0-.893.167-1.116,1.116-1.116,9.879.056,19.7.056,29.581,0a1.063,1.063,0,0,1,1.228.893c1.953,5.972,3.963,11.888,6.028,17.8.167.447.112,1.06.837,1s1.4.167,1.953-.726c6.418-10.828,15.628-17.972,28.074-20.539,5.972-1.228,11.944-.391,17.86.67.5.112.447.391.447.781-1.228,12.837-2.4,25.674-3.628,38.455-.056.781-.335.837-1.06.726-7.925-1.34-15.851-1.842-23.72,0-9.153,2.177-14.734,8.6-15.851,17.916a51.262,51.262,0,0,0-.391,6.53v58.268c0,.893-.167,1.116-1.116,1.116q-20.092-.084-40.241,0c-.893,0-1.116-.167-1.116-1.116Z" transform="translate(-379.445 -17.683)" fill="#fff"/>
    <path id="Path_14" data-name="Path 14" d="M1157.105,144.3c-7.591-6.028-15.907-7.87-24.948-4.856s-14.623,9.488-16.744,19.2c-.223-1.786-.446-3.293-.614-4.744s-.279-3.126-.391-4.688-.112-3.07-.112-4.577V95.238c0-.949-.223-1.172-1.172-1.172-4.242.056-8.484,0-12.669.056-.781,0-1.06-.167-1.06-1q.084-7.7,0-15.4a1.484,1.484,0,0,1,.781-1.4c5.8-4.074,11.609-8.2,17.358-12.279a3.046,3.046,0,0,0,1.116-1.4l10.214-24.111a1.212,1.212,0,0,1,1.284-.837h25.9c.837,0,1,.279,1,1.06-.056,7.535,0,15.125-.056,22.66,0,.781.168.949.949.949,9.376,0,18.753,0,28.129-.056.837,0,1.172.167,1.116,1.116q-.084,14.9,0,29.8c0,.837-.223,1-1,1-9.377-.056-18.809,0-28.241-.056-.726,0-1,.167-1,.949v46.883C1156.994,142.623,1157.05,143.348,1157.105,144.3Z" transform="translate(-450.449)" fill="#fff"/>
    <path id="Path_15" data-name="Path 15" d="M1214.256,244.267l-.056-.167.167.056v.056Z" transform="translate(-501.181 -91.208)" fill="#fff"/>
    <circle id="Ellipse_1" data-name="Ellipse 1" cx="18.251" cy="18.251" r="18.251" transform="translate(671.606 145.079)" fill="#fc0"/>
  </g>
</svg>
